<svg width="104" height="104" viewBox="0 0 104 104" fill="none" xmlns="http://www.w3.org/2000/svg">
<g id="Group 1597881430">
<g id="Group">
<g id="Group_2">
<path id="Vector" d="M40.5079 66.9883C39.4185 66.9883 38.5469 67.8599 38.5469 69.022C38.5469 70.1841 39.4185 71.0556 40.4353 71.0556C41.5248 71.0556 42.3237 70.1841 42.3237 69.022C42.3237 68.5135 42.1785 68.0051 41.8153 67.5693C41.5248 67.2062 41.0163 66.9883 40.5079 66.9883Z" fill="#4F296F"/>
<path id="Vector_2" d="M38.9828 84.8551H41.9607V72.1445L38.9102 72.653C38.9828 72.653 38.9828 84.8551 38.9828 84.8551Z" fill="#4F296F"/>
<path id="Vector_3" d="M33.6095 82.3859C33.3189 82.6038 32.7379 82.8217 32.0116 82.8217C30.7768 82.8217 30.2684 81.8049 30.2684 80.7154C30.2684 79.7712 30.8495 78.6817 32.3747 78.6817H33.6095V82.3859ZM32.3747 71.8544C30.9221 71.8544 29.6147 72.2901 28.3074 73.0165L27.9442 73.1617L28.7432 75.0501L29.1789 74.8323C30.1232 74.3965 31.14 74.1059 32.0116 74.1059C33.1011 74.1786 33.5368 74.687 33.5368 75.7765V76.4301H31.7211C28.8158 76.4301 27.0726 78.028 27 80.5702C27 82.967 28.8884 85.0007 31.5032 85.0007C33.6095 85.0007 35.3526 84.2744 36.5874 82.967V76.1396C36.66 72.9438 34.4811 71.8544 32.3747 71.8544ZM64.4779 74.3238C65.7853 74.3238 66.0032 75.8491 66.0032 76.7933H62.7347C62.8074 75.6312 63.3158 74.3238 64.4779 74.3238ZM65.1316 82.8217C64.3326 82.8217 63.7516 82.5312 63.3884 82.0954C62.88 81.4417 62.5895 80.207 62.6621 78.827H69.1989V78.5365C69.1263 74.0333 67.6737 71.9996 64.5505 71.9996C60.9916 71.9996 59.6116 75.4859 59.6116 78.6817C59.6116 80.7154 60.3379 82.8217 61.6453 83.9838C62.4442 84.7101 63.6063 85.0733 64.9137 85.0733C65.64 85.0733 66.3663 85.0007 67.02 84.7101C68.3274 84.2744 69.2716 83.548 69.2716 83.548L68.4 81.6596C68.2547 81.8775 66.9474 82.8217 65.1316 82.8217ZM44.4316 74.3965V84.8554H47.4821V75.0501C47.9179 74.6144 48.7168 74.2512 49.5158 74.2512C50.2421 74.2512 50.7505 74.3965 50.7505 74.3965L51.6221 72.3628C51.3316 72.2175 50.5326 71.9996 49.5884 71.9996C48.2811 71.927 46.2474 72.2902 44.4316 74.3965ZM75.5905 82.8217C74.3558 82.7491 74.0653 82.168 74.0653 81.1512V68.5859L71.0147 69.167V81.0059C71.0147 83.8386 72.4674 85.0007 74.8642 85.0007C75.3726 85.0007 76.0263 84.8554 76.0263 84.8554V82.8217C76.0263 82.8217 75.7358 82.8217 75.5905 82.8217ZM56.4884 68.5859L53.3653 69.0944V81.0059C53.3653 83.6933 54.8179 84.928 57.2874 84.928C57.8684 84.928 58.4495 84.7828 58.4495 84.7828V82.8217C58.4495 82.8217 58.1589 82.8217 58.0137 82.8217C56.7063 82.7491 56.4884 82.0228 56.4884 81.1512V74.4691H58.4495V72.1449H56.4884V68.5859Z" fill="#4F296F"/>
</g>
<path id="Vector_4" d="M49.2239 60.6707C51.2576 59.8717 52.9281 58.7822 54.4534 57.7654L54.8892 57.4749C56.5597 56.3854 58.1576 55.078 59.8281 53.5528C63.5323 50.1391 65.7839 46.798 67.0186 42.658C67.5271 40.9875 68.2534 37.7191 67.3818 34.7412C66.7281 32.4896 65.4207 30.6738 63.6049 29.2938C63.387 29.0759 61.0628 27.1875 56.7776 27.1875C52.7828 27.1875 48.4249 28.7854 43.8492 31.9812L43.7039 32.0538C43.5586 32.1265 43.4134 32.1991 43.2681 32.3443C43.1955 32.417 43.0502 32.4896 42.9049 32.6349C41.9607 33.2886 41.0892 34.0149 40.2176 34.8138C38.2565 36.8475 36.0776 40.1159 36.1502 42.9486C36.2228 44.1833 36.6586 45.1275 37.5302 45.8538C38.3292 46.5075 39.2734 46.8707 40.4355 46.8707C42.7597 46.8707 45.3744 45.4907 47.1902 44.4012C47.3355 44.3286 47.4081 44.2559 47.5534 44.1833L48.4976 43.5296L48.7881 43.3117C51.3302 41.4959 53.8723 39.6801 56.8502 38.5907C57.6492 38.3001 58.3028 38.1549 58.8839 38.1549C59.1744 38.1549 59.4649 38.1549 59.7555 38.2275C60.6271 38.4454 61.2807 38.9538 61.7165 39.8254C62.3702 41.278 62.2249 43.6022 61.2807 45.7086C60.046 48.6138 57.867 51.4465 54.8165 54.2065C53.2913 55.5865 51.8386 56.6759 50.6039 57.4022L50.4586 57.4749C49.8776 57.838 49.2239 58.2012 48.4976 58.4917L48.4249 58.5643C48.207 58.637 48.0618 58.7096 47.8439 58.7822C44.866 59.6538 46.6818 56.8938 46.6818 56.8938C47.3355 56.0949 47.9892 55.4412 48.7155 54.7149L49.9502 53.4801L50.0228 53.4075C50.5313 52.8264 51.2576 52.1001 51.1849 51.0833C51.1123 49.6307 49.8049 48.7591 48.4976 48.7591H48.4249C47.1902 48.7591 46.0281 49.558 45.3018 50.1391C44.5028 50.8654 43.7765 51.737 43.1955 52.6812C42.3965 53.9886 40.7986 57.3296 42.3965 60.017C43.0502 61.1065 44.1397 61.6149 45.5923 61.6149C46.6818 61.4696 47.8439 61.1791 49.2239 60.6707Z" fill="#4F296F"/>
<g id="Group_3">
<path id="Vector_5" d="M69.2734 32.1992C71.6703 37.2108 72.3966 42.8034 66.9492 49.0497" stroke="#4F296F" stroke-miterlimit="10"/>
<path id="Vector_6" d="M45.8139 28.8594C43.1992 29.0773 37.3887 33.2173 36.2266 36.1952" stroke="#4F296F" stroke-miterlimit="10"/>
<path id="Vector_7" d="M40.4371 55.4414C38.9118 56.9667 39.7108 61.034 41.9624 62.1961" stroke="#4F296F" stroke-miterlimit="10"/>
</g>
</g>
</g>
</svg>
