<svg width="24" height="24" viewBox="0 0 24 24" fill="none" xmlns="http://www.w3.org/2000/svg">
<mask id="mask0_3842_15014" style="mask-type:alpha" maskUnits="userSpaceOnUse" x="0" y="0" width="24" height="24">
<rect width="24" height="24" fill="#D9D9D9"/>
</mask>
<g mask="url(#mask0_3842_15014)">
<path d="M12.4083 12L8.60396 8.19563C8.39273 7.98439 8.28711 7.71918 8.28711 7.39998C8.28711 7.08078 8.39273 6.81556 8.60396 6.60433C8.81519 6.39309 9.08041 6.28748 9.39961 6.28748C9.71881 6.28748 9.98403 6.39309 10.1953 6.60433L14.7893 11.1984C14.9012 11.3103 14.983 11.4346 15.0347 11.5712C15.0863 11.7078 15.1121 11.8507 15.1121 12C15.1121 12.1493 15.0863 12.2922 15.0347 12.4288C14.983 12.5654 14.9012 12.6897 14.7893 12.8016L10.1953 17.3956C9.98403 17.6069 9.71881 17.7125 9.39961 17.7125C9.08041 17.7125 8.81519 17.6069 8.60396 17.3956C8.39273 17.1844 8.28711 16.9192 8.28711 16.6C8.28711 16.2808 8.39273 16.0156 8.60396 15.8043L12.4083 12Z" fill="#673391"/>
</g>
</svg>
