<svg width="40" height="41" viewBox="0 0 40 41" fill="none" xmlns="http://www.w3.org/2000/svg">
<mask id="mask0_29_2070" style="mask-type:alpha" maskUnits="userSpaceOnUse" x="0" y="0" width="40" height="41">
<rect y="0.5" width="40" height="40" fill="#D9D9D9"/>
</mask>
<g mask="url(#mask0_29_2070)">
<path d="M8.02402 27.1169V19.0925C8.02402 18.5804 8.20034 18.1497 8.55297 17.8003C8.90564 17.451 9.33802 17.2763 9.8501 17.2763C10.3622 17.2763 10.7929 17.451 11.1422 17.8003C11.4916 18.1497 11.6662 18.5804 11.6662 19.0925V27.1268C11.6662 27.6389 11.4916 28.0696 11.1422 28.419C10.7929 28.7683 10.3622 28.943 9.8501 28.943C9.33802 28.943 8.90564 28.7666 8.55297 28.414C8.20034 28.0613 8.02402 27.629 8.02402 27.1169ZM18.1834 27.1268V19.0925C18.1834 18.5804 18.3581 18.1497 18.7074 17.8003C19.0568 17.451 19.4875 17.2763 19.9996 17.2763C20.5116 17.2763 20.9423 17.451 21.2917 17.8003C21.641 18.1497 21.8157 18.5804 21.8157 19.0925V27.1268C21.8157 27.6389 21.641 28.0696 21.2917 28.419C20.9423 28.7683 20.5116 28.943 19.9996 28.943C19.4875 28.943 19.0568 28.7683 18.7074 28.419C18.3581 28.0696 18.1834 27.6389 18.1834 27.1268ZM4.88997 35.7591C4.35795 35.7591 3.90896 35.5761 3.54302 35.2102C3.17707 34.8443 2.99411 34.3953 2.99414 33.8632C2.99414 33.3312 3.17711 32.8823 3.54306 32.5163C3.909 32.1504 4.35799 31.9674 4.89002 31.9674H35.1092C35.6412 31.9674 36.0902 32.1504 36.4561 32.5163C36.8221 32.8823 37.0051 33.3312 37.0051 33.8632C37.0051 34.3953 36.8221 34.8443 36.4561 35.2102C36.0902 35.5761 35.6412 35.7591 35.1092 35.7591H4.88997ZM28.3329 27.1169V19.0925C28.3329 18.5804 28.5092 18.1497 28.8619 17.8003C29.2145 17.451 29.6469 17.2763 30.159 17.2763C30.6711 17.2763 31.1018 17.451 31.4511 17.8003C31.8004 18.1497 31.9751 18.5804 31.9751 19.0925V27.1268C31.9751 27.6389 31.8004 28.0696 31.4511 28.419C31.1018 28.7683 30.6711 28.943 30.159 28.943C29.6469 28.943 29.2145 28.7666 28.8619 28.414C28.5092 28.0613 28.3329 27.629 28.3329 27.1169ZM35.0693 14.2419H4.73327C4.25015 14.2419 3.83952 14.0728 3.50135 13.7347C3.16318 13.3965 2.99411 12.9859 2.99414 12.5027V11.4267C2.99414 11.0812 3.08215 10.7758 3.25818 10.5105C3.43421 10.2451 3.66715 10.033 3.95702 9.87412L18.3003 2.70746C18.8323 2.44537 19.3988 2.31433 19.9996 2.31433C20.6004 2.31433 21.1669 2.44537 21.6989 2.70746L35.9389 9.8225C36.2843 9.9813 36.5484 10.2212 36.7311 10.5422C36.9137 10.8631 37.0051 11.2062 37.0051 11.5716V12.2962C37.0051 12.8415 36.8188 13.3021 36.4462 13.678C36.0736 14.054 35.6146 14.2419 35.0693 14.2419ZM11.2677 10.4502H28.7314L19.9996 6.12595L11.2677 10.4502Z" fill="#673391"/>
</g>
</svg>
