<svg width="20" height="22" viewBox="0 0 20 22" fill="none" xmlns="http://www.w3.org/2000/svg">
<path d="M3.0719 21.2032C2.44218 21.2032 1.90558 20.9814 1.4621 20.538C1.01862 20.0945 0.796875 19.5579 0.796875 18.9282V5.07166C0.796875 4.44194 1.01862 3.90534 1.4621 3.46186C1.90558 3.01837 2.44218 2.79663 3.0719 2.79663H4.00015V1.86241C4.00015 1.56312 4.10396 1.31067 4.31157 1.10506C4.51918 0.899439 4.77262 0.796631 5.0719 0.796631C5.37117 0.796631 5.62361 0.899439 5.82923 1.10506C6.03484 1.31067 6.13765 1.56312 6.13765 1.86241V2.79663H13.8626V1.86241C13.8626 1.56312 13.9664 1.31067 14.174 1.10506C14.3817 0.899439 14.6351 0.796631 14.9344 0.796631C15.2337 0.796631 15.4861 0.899439 15.6917 1.10506C15.8973 1.31067 16.0001 1.56312 16.0001 1.86241V2.79663H16.9284C17.5581 2.79663 18.0947 3.01837 18.5382 3.46186C18.9817 3.90534 19.2034 4.44194 19.2034 5.07166V18.9282C19.2034 19.5579 18.9817 20.0945 18.5382 20.538C18.0947 20.9814 17.5581 21.2032 16.9284 21.2032H3.0719ZM3.0719 18.9282H16.9284V8.99991H3.0719V18.9282ZM3.0719 6.99991H16.9284V5.07166H3.0719V6.99991ZM10.0001 13.0477C9.70327 13.0477 9.45441 12.9473 9.25358 12.7465C9.05274 12.5456 8.95233 12.2968 8.95233 11.9999C8.95233 11.703 9.05274 11.4542 9.25358 11.2533C9.45441 11.0525 9.70327 10.9521 10.0001 10.9521C10.297 10.9521 10.5459 11.0525 10.7467 11.2533C10.9476 11.4542 11.048 11.703 11.048 11.9999C11.048 12.2968 10.9476 12.5456 10.7467 12.7465C10.5459 12.9473 10.297 13.0477 10.0001 13.0477ZM6.00015 13.0477C5.70327 13.0477 5.45441 12.9473 5.25357 12.7465C5.05274 12.5456 4.95233 12.2968 4.95233 11.9999C4.95233 11.703 5.05274 11.4542 5.25357 11.2533C5.45441 11.0525 5.70327 10.9521 6.00015 10.9521C6.29703 10.9521 6.54589 11.0525 6.74673 11.2533C6.94756 11.4542 7.04798 11.703 7.04798 11.9999C7.04798 12.2968 6.94756 12.5456 6.74673 12.7465C6.54589 12.9473 6.29703 13.0477 6.00015 13.0477ZM14.0001 13.0477C13.7088 13.0477 13.4614 12.9473 13.2578 12.7465C13.0541 12.5456 12.9523 12.2968 12.9523 11.9999C12.9523 11.703 13.0541 11.4542 13.2578 11.2533C13.4614 11.0525 13.7099 10.9521 14.0031 10.9521C14.2964 10.9521 14.5439 11.0525 14.7455 11.2533C14.9472 11.4542 15.048 11.703 15.048 11.9999C15.048 12.2968 14.9476 12.5456 14.7467 12.7465C14.5459 12.9473 14.297 13.0477 14.0001 13.0477ZM10.0001 17.0477C9.70327 17.0477 9.45441 16.9459 9.25358 16.7423C9.05274 16.5387 8.95233 16.2902 8.95233 15.9969C8.95233 15.7036 9.05274 15.4562 9.25358 15.2545C9.45441 15.0529 9.70327 14.9521 10.0001 14.9521C10.297 14.9521 10.5459 15.0525 10.7467 15.2533C10.9476 15.4542 11.048 15.703 11.048 15.9999C11.048 16.2912 10.9476 16.5387 10.7467 16.7423C10.5459 16.9459 10.297 17.0477 10.0001 17.0477ZM6.00015 17.0477C5.70327 17.0477 5.45441 16.9459 5.25357 16.7423C5.05274 16.5387 4.95233 16.2902 4.95233 15.9969C4.95233 15.7036 5.05274 15.4562 5.25357 15.2545C5.45441 15.0529 5.70327 14.9521 6.00015 14.9521C6.29703 14.9521 6.54589 15.0525 6.74673 15.2533C6.94756 15.4542 7.04798 15.703 7.04798 15.9999C7.04798 16.2912 6.94756 16.5387 6.74673 16.7423C6.54589 16.9459 6.29703 17.0477 6.00015 17.0477ZM14.0001 17.0477C13.7088 17.0477 13.4614 16.9459 13.2578 16.7423C13.0541 16.5387 12.9523 16.2902 12.9523 15.9969C12.9523 15.7036 13.0541 15.4562 13.2578 15.2545C13.4614 15.0529 13.7099 14.9521 14.0031 14.9521C14.2964 14.9521 14.5439 15.0525 14.7455 15.2533C14.9472 15.4542 15.048 15.703 15.048 15.9999C15.048 16.2912 14.9476 16.5387 14.7467 16.7423C14.5459 16.9459 14.297 17.0477 14.0001 17.0477Z" fill="#FCFCFC"/>
</svg>
