<svg width="24" height="24" viewBox="0 0 24 24" fill="none" xmlns="http://www.w3.org/2000/svg">
<circle cx="12.0004" cy="12.0004" r="9.6" fill="#ED1C24"/>
<mask id="mask0_2079_100631" style="mask-type:alpha" maskUnits="userSpaceOnUse" x="4" y="4" width="16" height="16">
<rect x="4.80078" y="4.80078" width="14.4" height="14.4" fill="#D9D9D9"/>
</mask>
<g mask="url(#mask0_2079_100631)">
<path d="M12.0001 17.5942C11.6394 17.5942 11.3308 17.4658 11.0742 17.2089C10.8177 16.952 10.6895 16.6432 10.6895 16.2825C10.6895 15.9218 10.8179 15.6132 11.0748 15.3566C11.3317 15.1001 11.6405 14.9719 12.0012 14.9719C12.3619 14.9719 12.6705 15.1003 12.9271 15.3572C13.1836 15.6141 13.3118 15.9229 13.3118 16.2836C13.3118 16.6443 13.1834 16.9529 12.9265 17.2095C12.6696 17.466 12.3608 17.5942 12.0001 17.5942ZM12.0024 13.7719C11.6569 13.7719 11.3612 13.6491 11.1155 13.4035C10.8697 13.158 10.7468 12.8628 10.7468 12.518V7.68935C10.7468 7.34455 10.8691 7.04938 11.1137 6.80384C11.3583 6.55831 11.6533 6.43555 11.9988 6.43555C12.3444 6.43555 12.6401 6.55831 12.8858 6.80384C13.1316 7.04938 13.2545 7.34455 13.2545 7.68935V12.518C13.2545 12.8628 13.1322 13.158 12.8876 13.4035C12.643 13.6491 12.348 13.7719 12.0024 13.7719Z" fill="#FCFCFC"/>
</g>
</svg>
