<svg width="28" height="29" viewBox="0 0 28 29" fill="none" xmlns="http://www.w3.org/2000/svg">
<path d="M27.125 13.625H0.875V9.25H27.125V13.625Z" fill="#CCCBE5"/>
<path d="M24.8686 23.25H3.1244C1.3722 23.25 0 22.0331 0 20.4877V7.64342C0 6.09189 1.3722 4.875 3.1244 4.875H24.8686C26.6208 4.875 28 6.09189 28 7.64342V20.4816C27.9156 22.0696 26.5715 23.2439 24.8686 23.2439V23.25ZM3.1244 5.78158C1.95627 5.78158 1.0485 6.5969 1.0485 7.64342V20.4816C1.0485 21.522 1.96331 22.3373 3.1244 22.3373H24.8686C26.0156 22.3373 26.8882 21.5464 26.9515 20.4572V7.64342C26.9515 6.60298 26.0367 5.78158 24.8686 5.78158H3.1244ZM11.6391 19.9583H2.70219C2.41367 19.9583 2.17442 19.7575 2.17442 19.502C2.17442 19.2464 2.40663 19.0457 2.70219 19.0457H11.6391C11.9276 19.0457 12.1669 19.2464 12.1669 19.502C12.1669 19.7575 11.9347 19.9583 11.6391 19.9583ZM14.4539 17.8288H2.70219C2.41367 17.8288 2.17442 17.628 2.17442 17.3724C2.17442 17.1169 2.40663 16.9161 2.70219 16.9161H14.4539C14.7424 16.9161 14.9817 17.1169 14.9817 17.3724C14.9817 17.628 14.7494 17.8288 14.4539 17.8288Z" fill="url(#paint0_linear_7432_2089)"/>
<defs>
<linearGradient id="paint0_linear_7432_2089" x1="17.4305" y1="3.06792" x2="12.1681" y2="25.506" gradientUnits="userSpaceOnUse">
<stop offset="0.2" stop-color="#673391"/>
<stop offset="1" stop-color="#B22382"/>
</linearGradient>
</defs>
</svg>
