<svg width="32" height="32" viewBox="0 0 32 32" fill="none" xmlns="http://www.w3.org/2000/svg">
<path d="M14.9859 10.8301L14.6275 12.0842H8L8.36546 10.8301H14.9859ZM11.5914 17.8826L8.20382 14.1915L8.19679 13.0861H9.84839C10.2326 13.0861 10.5489 13.0172 10.7972 12.8793C11.0455 12.7414 11.2306 12.5561 11.3524 12.3234C11.4742 12.0864 11.5351 11.8235 11.5351 11.5347C11.5351 11.2331 11.4789 10.9659 11.3665 10.7332C11.254 10.5005 11.0736 10.3195 10.8253 10.1902C10.577 10.0566 10.2467 9.98979 9.83434 9.98979H8.00703L8.42169 8.4707H9.83434C10.6777 8.4707 11.3805 8.58706 11.9428 8.81977C12.505 9.05248 12.9267 9.38862 13.2078 9.82819C13.489 10.2634 13.6295 10.7914 13.6295 11.4119C13.6295 11.9549 13.5358 12.4311 13.3484 12.8405C13.161 13.2499 12.8635 13.5882 12.4558 13.8554C12.0482 14.1183 11.5117 14.3036 10.8464 14.4113L13.8966 17.7921V17.8826H11.5914ZM15 8.4707L14.6345 9.7183H9.14558L9.51104 8.4707H15Z" fill="#D9CEE1"/>
<path fill-rule="evenodd" clip-rule="evenodd" d="M22.798 27.0059H12.6805V30.3734L14.9665 29.1068C15.0631 29.0533 15.1705 29.0266 15.2783 29.0266L15.2786 29.0266C15.3864 29.0266 15.4939 29.0532 15.5904 29.1067L18.4982 30.718L21.406 29.1067C21.5987 28.9997 21.8368 28.9997 22.0295 29.1067L24.9373 30.718L27.8451 29.1067C28.0379 28.9997 28.2759 28.9997 28.4687 29.1067L30.7544 30.3734V16.4994C30.7544 15.9274 30.5214 15.3902 30.0983 14.9858C29.6755 14.5812 29.1135 14.3586 28.5151 14.3586C27.2808 14.3586 26.2768 15.3188 26.2768 16.4993V23.6748C26.2768 25.4987 24.736 26.9847 22.8336 27.0046C22.8219 27.0053 22.81 27.0056 22.7981 27.0056L22.798 27.0059ZM28.5154 13.1693C29.446 13.1693 30.3203 13.5159 30.9776 14.1448C31.6355 14.7732 31.9982 15.6093 31.9982 16.4993V31.4048C31.9982 31.6172 31.8798 31.814 31.687 31.9202C31.5908 31.9732 31.4839 31.9995 31.3764 31.9995L31.3763 31.9999C31.2686 31.9999 31.1611 31.9732 31.0646 31.9197L28.1568 30.3085L25.249 31.9197C25.0562 32.0268 24.8182 32.0268 24.6254 31.9197L21.7177 30.3085L18.8099 31.9197C18.6171 32.0268 18.3791 32.0268 18.1863 31.9197L15.2785 30.3085L12.3707 31.9197C12.1783 32.0265 11.9414 32.0268 11.7487 31.9206C11.5559 31.8144 11.4375 31.6182 11.4375 31.4052V27.0059H3.48195C1.56187 27.0059 0 25.5122 0 23.6758V0.594795C0 0.382419 0.118432 0.185621 0.311183 0.0794293C0.503934 -0.0267623 0.741094 -0.0264723 0.933246 0.0802788L3.84103 1.69153L6.74882 0.0802788C6.94157 -0.0264782 7.17962 -0.0264782 7.37237 0.0802788L10.2802 1.69153L13.1879 0.0802788C13.3807 -0.0264782 13.6187 -0.0264782 13.8115 0.0802788L16.7193 1.69153L19.6271 0.0802788C19.8195 -0.0264782 20.0564 -0.0264783 20.2491 0.0794293C20.4419 0.185614 20.5603 0.381853 20.5603 0.594795V13.1693H28.5154ZM20.5603 14.3589L25.8496 14.3593C25.3405 14.9384 25.0335 15.6852 25.0335 16.4994V23.6748C25.0335 24.8553 24.0295 25.8155 22.7951 25.8155H22.7266C22.1552 25.7986 21.6212 25.5779 21.2155 25.1894C20.7933 24.7856 20.5603 24.2478 20.5603 23.6758V14.3589ZM12.0593 25.8155H20.1293C19.6035 25.2175 19.3163 24.4682 19.3163 23.6764V1.62692L17.0302 2.89355C16.8375 3.0003 16.5994 3.0003 16.4067 2.89355L13.4989 1.2823L10.5911 2.89355C10.3983 3.0003 10.1603 3.0003 9.96755 2.89355L7.05976 1.2823L4.15198 2.89355C3.95922 3.0003 3.72118 3.0003 3.52843 2.89355L1.24291 1.62692V23.6764C1.24291 24.8569 2.24692 25.8171 3.48127 25.8171H12.0132C12.0284 25.8161 12.0438 25.8155 12.0593 25.8155Z" fill="url(#paint0_linear_1505_3033)"/>
<defs>
<linearGradient id="paint0_linear_1505_3033" x1="15.9991" y1="0" x2="9.86974" y2="38.2483" gradientUnits="userSpaceOnUse">
<stop offset="0.202452" stop-color="#673391"/>
<stop offset="1" stop-color="#B22382"/>
</linearGradient>
</defs>
</svg>
