<svg width="64" height="64" viewBox="0 0 64 64" fill="none" xmlns="http://www.w3.org/2000/svg">
<g id="Status=Autopay, Size=64px">
<mask id="mask0_1880_6975" style="mask-type:alpha" maskUnits="userSpaceOnUse" x="0" y="0" width="64" height="64">
<rect id="Bounding box" width="64" height="64" fill="#D9D9D9"/>
</mask>
<g mask="url(#mask0_1880_6975)">
<path id="check_circle" d="M28.2668 36.8L22.5335 31.0667C22.0446 30.5778 21.4224 30.3333 20.6668 30.3333C19.9113 30.3333 19.2891 30.5778 18.8002 31.0667C18.3113 31.5555 18.0668 32.1778 18.0668 32.9333C18.0668 33.6889 18.3113 34.3111 18.8002 34.8L26.4002 42.4C26.9335 42.9333 27.5557 43.2 28.2668 43.2C28.9779 43.2 29.6002 42.9333 30.1335 42.4L45.2002 27.3333C45.6891 26.8444 45.9335 26.2222 45.9335 25.4667C45.9335 24.7111 45.6891 24.0889 45.2002 23.6C44.7113 23.1111 44.0891 22.8666 43.3335 22.8666C42.5779 22.8666 41.9557 23.1111 41.4668 23.6L28.2668 36.8ZM32.0002 58.6667C28.3113 58.6667 24.8446 57.9667 21.6002 56.5667C18.3557 55.1667 15.5335 53.2667 13.1335 50.8667C10.7335 48.4667 8.8335 45.6444 7.4335 42.4C6.0335 39.1555 5.3335 35.6889 5.3335 32C5.3335 28.3111 6.0335 24.8444 7.4335 21.6C8.8335 18.3555 10.7335 15.5333 13.1335 13.1333C15.5335 10.7333 18.3557 8.83331 21.6002 7.43331C24.8446 6.03331 28.3113 5.33331 32.0002 5.33331C35.6891 5.33331 39.1557 6.03331 42.4002 7.43331C45.6446 8.83331 48.4668 10.7333 50.8668 13.1333C53.2668 15.5333 55.1668 18.3555 56.5668 21.6C57.9668 24.8444 58.6668 28.3111 58.6668 32C58.6668 35.6889 57.9668 39.1555 56.5668 42.4C55.1668 45.6444 53.2668 48.4667 50.8668 50.8667C48.4668 53.2667 45.6446 55.1667 42.4002 56.5667C39.1557 57.9667 35.6891 58.6667 32.0002 58.6667ZM32.0002 53.3333C37.9557 53.3333 43.0002 51.2667 47.1335 47.1333C51.2668 43 53.3335 37.9555 53.3335 32C53.3335 26.0444 51.2668 21 47.1335 16.8666C43.0002 12.7333 37.9557 10.6666 32.0002 10.6666C26.0446 10.6666 21.0002 12.7333 16.8668 16.8666C12.7335 21 10.6668 26.0444 10.6668 32C10.6668 37.9555 12.7335 43 16.8668 47.1333C21.0002 51.2667 26.0446 53.3333 32.0002 53.3333Z" fill="#673391"/>
</g>
</g>
</svg>
