<svg width="16" height="16" viewBox="0 0 16 16" fill="none" xmlns="http://www.w3.org/2000/svg">
<mask id="mask0_2682_3496" style="mask-type:alpha" maskUnits="userSpaceOnUse" x="0" y="0" width="16" height="16">
<rect width="16" height="16" fill="#D9D9D9"/>
</mask>
<g mask="url(#mask0_2682_3496)">
<path d="M7.06732 9.19998L5.63398 7.76665C5.51176 7.64442 5.35621 7.58331 5.16732 7.58331C4.97843 7.58331 4.82287 7.64442 4.70065 7.76665C4.57843 7.88887 4.51732 8.04442 4.51732 8.23331C4.51732 8.4222 4.57843 8.57776 4.70065 8.69998L6.60065 10.6C6.73398 10.7333 6.88954 10.8 7.06732 10.8C7.2451 10.8 7.40065 10.7333 7.53398 10.6L11.3007 6.83331C11.4229 6.71109 11.484 6.55554 11.484 6.36665C11.484 6.17776 11.4229 6.0222 11.3007 5.89998C11.1784 5.77776 11.0229 5.71665 10.834 5.71665C10.6451 5.71665 10.4895 5.77776 10.3673 5.89998L7.06732 9.19998ZM8.00065 14.6666C7.07843 14.6666 6.21176 14.4916 5.40065 14.1416C4.58954 13.7916 3.88398 13.3166 3.28398 12.7166C2.68398 12.1166 2.20898 11.4111 1.85898 10.6C1.50898 9.78887 1.33398 8.9222 1.33398 7.99998C1.33398 7.07776 1.50898 6.21109 1.85898 5.39998C2.20898 4.58887 2.68398 3.88331 3.28398 3.28331C3.88398 2.68331 4.58954 2.20831 5.40065 1.85831C6.21176 1.50831 7.07843 1.33331 8.00065 1.33331C8.92287 1.33331 9.78954 1.50831 10.6007 1.85831C11.4118 2.20831 12.1173 2.68331 12.7173 3.28331C13.3173 3.88331 13.7923 4.58887 14.1423 5.39998C14.4923 6.21109 14.6673 7.07776 14.6673 7.99998C14.6673 8.9222 14.4923 9.78887 14.1423 10.6C13.7923 11.4111 13.3173 12.1166 12.7173 12.7166C12.1173 13.3166 11.4118 13.7916 10.6007 14.1416C9.78954 14.4916 8.92287 14.6666 8.00065 14.6666ZM8.00065 13.3333C9.48954 13.3333 10.7507 12.8166 11.784 11.7833C12.8173 10.75 13.334 9.48887 13.334 7.99998C13.334 6.51109 12.8173 5.24998 11.784 4.21665C10.7507 3.18331 9.48954 2.66665 8.00065 2.66665C6.51176 2.66665 5.25065 3.18331 4.21732 4.21665C3.18398 5.24998 2.66732 6.51109 2.66732 7.99998C2.66732 9.48887 3.18398 10.75 4.21732 11.7833C5.25065 12.8166 6.51176 13.3333 8.00065 13.3333Z" fill="#3E7D2B"/>
</g>
</svg>
