<svg width="20" height="21" viewBox="0 0 20 21" fill="none" xmlns="http://www.w3.org/2000/svg">
<path d="M18 10.5C18 14.9183 14.4183 18.5 10 18.5C5.58172 18.5 2 14.9183 2 10.5C2 6.08172 5.58172 2.5 10 2.5C14.4183 2.5 18 6.08172 18 10.5Z" fill="#51A037"/>
<mask id="mask0_2615_3066" style="mask-type:alpha" maskUnits="userSpaceOnUse" x="4" y="4" width="12" height="13">
<rect x="4" y="4.5" width="12" height="12" fill="#D9D9D9"/>
</mask>
<g mask="url(#mask0_2615_3066)">
<path d="M8.77559 11.9734L12.9593 7.7897C13.0732 7.67575 13.2084 7.61877 13.3649 7.61877C13.5213 7.61877 13.6565 7.67575 13.7704 7.7897C13.8844 7.90365 13.9414 8.03884 13.9414 8.19527C13.9414 8.3517 13.8844 8.48689 13.7704 8.60084L9.17641 13.1949C9.06246 13.3088 8.92885 13.3658 8.77559 13.3658C8.62234 13.3658 8.48873 13.3088 8.37478 13.1949L6.23076 11.0508C6.11681 10.9369 6.06141 10.8017 6.06458 10.6453C6.06776 10.4888 6.12632 10.3536 6.24027 10.2397C6.35422 10.1257 6.48941 10.0688 6.64584 10.0688C6.80227 10.0688 6.93746 10.1257 7.05141 10.2397L8.77559 11.9734Z" fill="#FCFCFC"/>
</g>
</svg>
