<svg width="24" height="24" viewBox="0 0 24 24" fill="none" xmlns="http://www.w3.org/2000/svg">
<mask id="mask0_5941_13417" style="mask-type:alpha" maskUnits="userSpaceOnUse" x="0" y="0" width="24" height="24">
<rect width="24" height="24" fill="#D9D9D9"/>
</mask>
<g mask="url(#mask0_5941_13417)">
<path d="M12.0016 13.5929L7.19721 18.3972C6.98598 18.6084 6.72076 18.7141 6.40156 18.7141C6.08236 18.7141 5.81715 18.6084 5.60591 18.3972C5.39468 18.186 5.28906 17.9208 5.28906 17.6016C5.28906 17.2824 5.39468 17.0171 5.60591 16.8059L10.4103 12.0016L5.60591 7.19721C5.39468 6.98598 5.28906 6.72076 5.28906 6.40156C5.28906 6.08236 5.39468 5.81715 5.60591 5.60591C5.81715 5.39468 6.08236 5.28906 6.40156 5.28906C6.72076 5.28906 6.98598 5.39468 7.19721 5.60591L12.0016 10.4103L16.8059 5.60591C17.0171 5.39468 17.2824 5.28906 17.6016 5.28906C17.9208 5.28906 18.186 5.39468 18.3972 5.60591C18.6084 5.81715 18.7141 6.08236 18.7141 6.40156C18.7141 6.72076 18.6084 6.98598 18.3972 7.19721L13.5929 12.0016L18.3972 16.8059C18.6084 17.0171 18.7141 17.2824 18.7141 17.6016C18.7141 17.9208 18.6084 18.186 18.3972 18.3972C18.186 18.6084 17.9208 18.7141 17.6016 18.7141C17.2824 18.7141 17.0171 18.6084 16.8059 18.3972L12.0016 13.5929Z" fill="white"/>
</g>
</svg>
