<svg width="26" height="26" viewBox="0 0 26 26" fill="none" xmlns="http://www.w3.org/2000/svg">
<g id="completely paperless 1" clip-path="url(#clip0_549_2618)">
<g id="Group">
<path id="Vector" d="M16.8532 3.73267C13.7876 3.73267 11.2852 6.18387 11.2852 9.30067C11.2852 12.4175 13.7364 14.8687 16.8532 14.8687C19.97 14.8687 22.4212 12.4175 22.4212 9.30067C22.4212 6.18387 19.9188 3.73267 16.8532 3.73267ZM19.8548 11.4703C19.9124 11.5279 19.9124 11.6943 19.8548 11.7455L19.3556 12.2959C19.298 12.3535 19.1316 12.3535 19.0804 12.2959L16.9108 10.1263L14.7412 12.2959C14.6836 12.3535 14.5172 12.3535 14.466 12.2959L13.9668 11.7455C13.9092 11.6879 13.9092 11.5215 13.9668 11.4703L16.1364 9.30067L13.9668 7.13107C13.9092 7.07347 13.9092 6.90707 13.9668 6.85587L14.466 6.35667C14.5236 6.29907 14.69 6.29907 14.7412 6.35667L16.9108 8.52627L19.0804 6.35667C19.138 6.29907 19.3044 6.29907 19.3556 6.35667L19.8548 6.85587C19.9124 6.91347 19.9124 7.07987 19.8548 7.13107L17.6852 9.30067L19.8548 11.4703Z" fill="#CCCBE5"/>
<path id="Vector_2" d="M17.89 25.5312H3.77801C2.79241 25.5312 2.02441 24.7632 2.02441 23.7776V6.89435C2.02441 6.76635 2.07561 6.63835 2.17161 6.54875L8.31561 0.60315C8.40521 0.51995 8.52681 0.46875 8.64841 0.46875H17.89C18.8244 0.46875 19.6436 1.28795 19.6436 2.22235V23.7776C19.6436 24.712 18.8244 25.5312 17.89 25.5312ZM2.97801 7.09275V23.7776C2.97801 24.2959 3.38761 24.5776 3.77801 24.5776H17.89C18.2996 24.5776 18.69 24.1872 18.69 23.7776V2.22235C18.69 1.81275 18.2996 1.42235 17.89 1.42235H8.84041L2.97801 7.09275ZM17.3652 20.9487H4.30281C4.04041 20.9487 3.82281 20.7375 3.82281 20.4688C3.82281 20.1999 4.03401 19.9888 4.30281 19.9888H17.3716C17.634 19.9888 17.8516 20.1999 17.8516 20.4688C17.8516 20.7375 17.6404 20.9487 17.3716 20.9487H17.3652ZM17.3652 18.3951H7.67561C7.41321 18.3951 7.19561 18.184 7.19561 17.9151C7.19561 17.6463 7.40681 17.4352 7.67561 17.4352H17.3652C17.6276 17.4352 17.8452 17.6463 17.8452 17.9151C17.8452 18.184 17.634 18.3951 17.3652 18.3951Z" fill="url(#paint0_linear_549_2618)"/>
</g>
</g>
<defs>
<linearGradient id="paint0_linear_549_2618" x1="7.51561" y1="0.79515" x2="14.5108" y2="26.5488" gradientUnits="userSpaceOnUse">
<stop offset="0.2" stop-color="#6A3990"/>
<stop offset="1" stop-color="#B62D85"/>
</linearGradient>
<clipPath id="clip0_549_2618">
<rect width="25.6" height="25.6" fill="white" transform="translate(0.200195 0.199951)"/>
</clipPath>
</defs>
</svg>
