<svg width="20" height="20" viewBox="0 0 20 20" fill="none" xmlns="http://www.w3.org/2000/svg">
<path d="M5.83332 13.2886L14.9327 4.18923C15.0481 4.07384 15.1931 4.01481 15.3678 4.01214C15.5424 4.00948 15.6901 4.0685 15.8109 4.18923C15.9316 4.30995 15.9919 4.45631 15.9919 4.62831C15.9919 4.80032 15.9316 4.94669 15.8109 5.06741L6.71151 14.1668L11.875 14.1668C12.0521 14.1668 12.2005 14.2267 12.3203 14.3465C12.4401 14.4664 12.5 14.6149 12.5 14.792C12.5 14.9692 12.4401 15.1176 12.3203 15.2372C12.2005 15.3569 12.0521 15.4167 11.875 15.4167L5.33655 15.4167C5.12315 15.4167 4.94426 15.3446 4.7999 15.2002C4.65553 15.0558 4.58334 14.8769 4.58334 14.6635L4.58334 8.12508C4.58334 7.94801 4.64326 7.79958 4.76311 7.67979C4.88296 7.56 5.03146 7.5001 5.20861 7.5001C5.38578 7.5001 5.53419 7.56 5.65384 7.67979C5.77349 7.79958 5.83332 7.94801 5.83332 8.12508L5.83332 13.2886Z" fill="#51A037"/>
</svg>
