<svg width="24" height="24" viewBox="0 0 24 24" fill="none" xmlns="http://www.w3.org/2000/svg">
<path d="M16.9999 8.0538L6.0807 18.973C5.94223 19.1115 5.7682 19.1823 5.5586 19.1855C5.34898 19.1887 5.17174 19.1179 5.02687 18.973C4.882 18.8282 4.80957 18.6525 4.80957 18.4461C4.80957 18.2397 4.882 18.0641 5.02687 17.9192L15.9461 6.99998H9.7499C9.53741 6.99998 9.3593 6.92807 9.21555 6.78425C9.0718 6.64045 8.99992 6.46225 8.99992 6.24965C8.99992 6.03707 9.0718 5.85898 9.21555 5.7154C9.3593 5.5718 9.53741 5.5 9.7499 5.5H17.596C17.8521 5.5 18.0668 5.58663 18.24 5.75988C18.4133 5.93311 18.4999 6.14777 18.4999 6.40385V14.25C18.4999 14.4625 18.428 14.6406 18.2842 14.7844C18.1404 14.9281 17.9622 15 17.7496 15C17.537 15 17.3589 14.9281 17.2153 14.7844C17.0717 14.6406 16.9999 14.4625 16.9999 14.25V8.0538Z" fill="#ED1C24"/>
</svg>
