<svg width="32" height="32" viewBox="0 0 32 32" fill="none" xmlns="http://www.w3.org/2000/svg">
<g id="DMAT account">
<g id="Group 1244828311">
<path id="Vector (Stroke)" fill-rule="evenodd" clip-rule="evenodd" d="M18.5295 26.3764L18.5297 22.034H19.5313C19.8126 22.034 20.0405 21.8039 20.0405 21.5203V15.9352C20.0405 15.6516 19.8126 15.4215 19.5312 15.4215H18.5292V11.0797C18.5292 10.7959 18.3014 10.566 18.0201 10.566C17.7387 10.566 17.5109 10.7959 17.5109 11.0797V15.421H16.5092C16.2278 15.421 16 15.6511 16 15.9347V21.5205C16 21.8042 16.2278 22.0343 16.5092 22.0343H17.5112V26.3764C17.5112 26.6601 17.739 26.8902 18.0203 26.8902C18.3017 26.8902 18.5295 26.6601 18.5295 26.3764Z" fill="#D9CEE1"/>
<path id="Vector (Stroke)_2" fill-rule="evenodd" clip-rule="evenodd" d="M26.0256 10.7604C26.0259 10.4766 25.7978 10.2467 25.5167 10.2467H24.5152V4.06931C24.5152 3.78542 24.2873 3.55554 24.006 3.55554C23.7246 3.55554 23.4968 3.78542 23.4968 4.06931V10.2467H22.4955C22.2142 10.2467 21.9863 10.4766 21.9863 10.7604V18.4611C21.9863 18.7447 22.2142 18.9748 22.4955 18.9748H23.4968V25.154C23.4968 25.4377 23.7246 25.6678 24.006 25.6678C24.2873 25.6678 24.5152 25.4377 24.5152 25.154V18.9754H25.5165C25.7978 18.9754 26.0256 18.7453 26.0256 18.4617V10.7604Z" fill="#D9CEE1"/>
<path id="Vector (Stroke)_3" fill-rule="evenodd" clip-rule="evenodd" d="M31.4894 16.9757C31.7705 16.9757 31.9985 17.2061 31.9985 17.4895V23.0769C31.9985 23.3605 31.7707 23.5907 31.4894 23.5907H30.4881V27.9312C30.4881 28.2148 30.2602 28.4449 29.9789 28.4449C29.6975 28.4449 29.4697 28.2148 29.4697 27.9312V23.5907H28.4682C28.1868 23.5907 27.959 23.3605 27.959 23.0769V17.4895C27.959 17.2058 28.1868 16.9757 28.4682 16.9757H29.4697V12.6352C29.4697 12.3513 29.6975 12.1215 29.9789 12.1215C30.2602 12.1215 30.4881 12.3513 30.4881 12.6352V16.9757H31.4894Z" fill="#D9CEE1"/>
</g>
<path id="Vector (Stroke)_4" fill-rule="evenodd" clip-rule="evenodd" d="M30.6286 32V27.8518C30.6286 26.0287 29.9302 24.2803 28.6871 22.9911C27.444 21.702 25.758 20.9778 24 20.9778H8C6.24199 20.9778 4.55599 21.702 3.31289 22.9911C2.06979 24.2803 1.37143 26.0287 1.37143 27.8518V32H0V27.8518C0 25.6515 0.842854 23.5413 2.34315 21.9855C3.84344 20.4296 5.87827 19.5555 8 19.5555H24C26.1217 19.5555 28.1566 20.4296 29.6569 21.9855C31.1571 23.5413 32 25.6515 32 27.8518V32H30.6286Z" fill="url(#paint0_linear_5790_4408)"/>
<path id="Vector (Stroke)_5" fill-rule="evenodd" clip-rule="evenodd" d="M16 15.1704C19.6609 15.1704 22.6286 12.0927 22.6286 8.2963C22.6286 4.49985 19.6609 1.42222 16 1.42222C12.3391 1.42222 9.37143 4.49985 9.37143 8.2963C9.37143 12.0927 12.3391 15.1704 16 15.1704ZM24 8.2963C24 12.8782 20.4183 16.5926 16 16.5926C11.5817 16.5926 8 12.8782 8 8.2963C8 3.71438 11.5817 0 16 0C20.4183 0 24 3.71438 24 8.2963Z" fill="url(#paint1_linear_5790_4408)"/>
</g>
<defs>
<linearGradient id="paint0_linear_5790_4408" x1="16" y1="19.5555" x2="15.053" y2="34.7529" gradientUnits="userSpaceOnUse">
<stop offset="0.202452" stop-color="#673391"/>
<stop offset="1" stop-color="#B22382"/>
</linearGradient>
<linearGradient id="paint1_linear_5790_4408" x1="16" y1="0" x2="12.7105" y2="19.7951" gradientUnits="userSpaceOnUse">
<stop offset="0.202452" stop-color="#673391"/>
<stop offset="1" stop-color="#B22382"/>
</linearGradient>
</defs>
</svg>
