<svg width="24" height="24" viewBox="0 0 24 24" fill="none" xmlns="http://www.w3.org/2000/svg">
<mask id="mask0_373_5001" style="mask-type:alpha" maskUnits="userSpaceOnUse" x="0" y="0" width="24" height="24">
<rect width="24" height="24" fill="#D9D9D9"/>
</mask>
<g mask="url(#mask0_373_5001)">
<path d="M12 15.4494C11.8507 15.4494 11.7078 15.4235 11.5712 15.3719C11.4346 15.3203 11.3103 15.2385 11.1984 15.1265L7.5087 11.4369C7.28478 11.2129 7.17599 10.9477 7.18232 10.6412C7.18867 10.3347 7.29746 10.0695 7.5087 9.84556C7.7366 9.61766 8.00598 9.50053 8.31685 9.49418C8.62771 9.48785 8.8971 9.59863 9.125 9.82653L10.8625 11.564V4.93416C10.8625 4.61494 10.9723 4.34555 11.1918 4.12598C11.4114 3.90641 11.6808 3.79663 12 3.79663C12.3192 3.79663 12.5886 3.90641 12.8081 4.12598C13.0277 4.34555 13.1375 4.61494 13.1375 4.93416V11.564L14.875 9.82653C15.0989 9.59863 15.3663 9.48685 15.6772 9.4912C15.988 9.49555 16.2574 9.61168 16.4853 9.83958C16.7005 10.0675 16.8113 10.3337 16.8177 10.6382C16.824 10.9427 16.7132 11.209 16.4853 11.4369L12.8016 15.1265C12.6897 15.2385 12.5654 15.3203 12.4288 15.3719C12.2922 15.4235 12.1493 15.4494 12 15.4494ZM6.07175 20.2032C5.44203 20.2032 4.90543 19.9814 4.46195 19.538C4.01846 19.0945 3.79672 18.5579 3.79672 17.9282V16.0657C3.79672 15.7465 3.90651 15.4771 4.12607 15.2575C4.34564 15.0379 4.61503 14.9282 4.93425 14.9282C5.25345 14.9282 5.52283 15.0379 5.7424 15.2575C5.96196 15.4771 6.07175 15.7465 6.07175 16.0657V17.9282H17.9282V16.0657C17.9282 15.7465 18.038 15.4771 18.2576 15.2575C18.4772 15.0379 18.7465 14.9282 19.0657 14.9282C19.385 14.9282 19.6544 15.0379 19.8739 15.2575C20.0935 15.4771 20.2033 15.7465 20.2033 16.0657V17.9282C20.2033 18.5579 19.9815 19.0945 19.538 19.538C19.0946 19.9814 18.558 20.2032 17.9282 20.2032H6.07175Z" fill="#673391"/>
</g>
</svg>
