<svg width="12" height="12" viewBox="0 0 12 12" fill="none" xmlns="http://www.w3.org/2000/svg">
<path d="M9.96452 10.6016H8.66479C8.50519 10.6016 8.3705 10.5468 8.26072 10.437C8.15093 10.3272 8.09604 10.1925 8.09604 10.0329C8.09604 9.87329 8.15093 9.7386 8.26072 9.62881C8.3705 9.51903 8.50519 9.46414 8.66479 9.46414H9.96452V4.50001H3.03627V5.86251C3.03627 6.02211 2.98137 6.15681 2.87159 6.26659C2.76181 6.37637 2.62712 6.43126 2.46752 6.43126C2.30791 6.43126 2.17321 6.37637 2.06343 6.26659C1.95364 6.15681 1.89875 6.02211 1.89875 5.86251V2.53589C1.89875 2.22103 2.00962 1.95273 2.23137 1.73099C2.45311 1.50925 2.72141 1.39838 3.03627 1.39838H3.50039V0.931264C3.50039 0.781622 3.55229 0.655397 3.6561 0.552589C3.7599 0.44978 3.88662 0.398376 4.03627 0.398376C4.1859 0.398376 4.31212 0.44978 4.41493 0.552589C4.51774 0.655397 4.56914 0.781622 4.56914 0.931264V1.39838H8.43164V0.931264C8.43164 0.781622 8.48354 0.655397 8.58734 0.552589C8.69115 0.44978 8.81787 0.398376 8.96752 0.398376C9.11715 0.398376 9.24337 0.44978 9.34618 0.552589C9.44899 0.655397 9.50039 0.781622 9.50039 0.931264V1.39838H9.96452C10.2794 1.39838 10.5477 1.50925 10.7694 1.73099C10.9912 1.95273 11.102 2.22103 11.102 2.53589V9.46414C11.102 9.779 10.9912 10.0473 10.7694 10.269C10.5477 10.4908 10.2794 10.6016 9.96452 10.6016ZM4.92349 9.56876H1.50039C1.34079 9.56876 1.2061 9.51387 1.09632 9.40409C0.986532 9.29431 0.931641 9.15961 0.931641 9.00001C0.931641 8.84041 0.986532 8.70572 1.09632 8.59594C1.2061 8.48616 1.34079 8.43126 1.50039 8.43126H4.92349L4.09958 7.59784C3.99396 7.49222 3.93957 7.3617 3.93639 7.20626C3.93322 7.05083 3.98862 6.91614 4.10257 6.80219C4.20818 6.69657 4.34079 6.64376 4.50039 6.64376C4.65999 6.64376 4.7926 6.69657 4.89822 6.80219L6.69822 8.5992C6.81217 8.71315 6.86914 8.84676 6.86914 9.00001C6.86914 9.15327 6.81217 9.28688 6.69822 9.40083L4.89822 11.1978C4.7926 11.3035 4.66207 11.3583 4.50664 11.3625C4.35121 11.3667 4.21652 11.3118 4.10257 11.1978C3.99695 11.0922 3.94364 10.9596 3.94264 10.8C3.94165 10.6404 3.99396 10.5078 4.09958 10.4022L4.92349 9.56876ZM3.03627 3.50001H9.96452V2.53589H3.03627V3.50001Z" fill="#673391"/>
</svg>
