<svg width="16" height="17" viewBox="0 0 16 17" fill="none" xmlns="http://www.w3.org/2000/svg">
<circle cx="8" cy="8.5" r="8" fill="#ED1C24"/>
<mask id="mask0_5301_3832" style="mask-type:alpha" maskUnits="userSpaceOnUse" x="2" y="2" width="12" height="13">
<rect x="2" y="2.5" width="12" height="12" fill="#D9D9D9"/>
</mask>
<g mask="url(#mask0_5301_3832)">
<path d="M8.00042 13.1614C7.69981 13.1614 7.44262 13.0544 7.22885 12.8403C7.01509 12.6262 6.9082 12.3689 6.9082 12.0683C6.9082 11.7677 7.01524 11.5105 7.2293 11.2967C7.44337 11.083 7.70071 10.9761 8.00132 10.9761C8.30192 10.9761 8.55911 11.0831 8.77288 11.2972C8.98664 11.5112 9.09353 11.7686 9.09353 12.0692C9.09353 12.3698 8.98649 12.627 8.77243 12.8408C8.55836 13.0545 8.30102 13.1614 8.00042 13.1614ZM8.00237 9.97608C7.71441 9.97608 7.46803 9.87377 7.26323 9.66915C7.05843 9.46454 6.95603 9.21857 6.95603 8.93124V4.90733C6.95603 4.61999 7.05793 4.37402 7.26174 4.1694C7.46554 3.96479 7.71142 3.86249 7.99937 3.86249C8.28732 3.86249 8.5337 3.96479 8.7385 4.1694C8.9433 4.37402 9.0457 4.61999 9.0457 4.90733V8.93124C9.0457 9.21857 8.9438 9.46454 8.73999 9.66915C8.53619 9.87377 8.29032 9.97608 8.00237 9.97608Z" fill="#FCFCFC"/>
</g>
</svg>
