<svg width="16" height="16" viewBox="0 0 16 16" fill="none" xmlns="http://www.w3.org/2000/svg">
<mask id="mask0_2682_3537" style="mask-type:alpha" maskUnits="userSpaceOnUse" x="0" y="0" width="16" height="16">
<rect width="16" height="16" fill="#D9D9D9"/>
</mask>
<g mask="url(#mask0_2682_3537)">
<path d="M7.99945 14.8022C7.05863 14.8022 6.17469 14.6232 5.34763 14.2652C4.52058 13.9072 3.80041 13.4216 3.18713 12.8083C2.57384 12.195 2.08888 11.4742 1.73223 10.6458C1.37559 9.81745 1.19727 8.93285 1.19727 7.99203C1.19727 7.05121 1.37559 6.16794 1.73223 5.34222C2.08888 4.51648 2.57384 3.79764 3.18713 3.18568C3.80041 2.57373 4.52058 2.08943 5.34763 1.73278C6.17469 1.37614 7.05863 1.19781 7.99945 1.19781C8.94027 1.19781 9.82421 1.37614 10.6513 1.73278C11.4783 2.08943 12.1985 2.57373 12.8118 3.18568C13.4251 3.79764 13.91 4.51648 14.2667 5.34222C14.6233 6.16794 14.8016 7.05121 14.8016 7.99203C14.8016 8.93285 14.6233 9.81745 14.2667 10.6458C13.91 11.4742 13.4251 12.195 12.8118 12.8083C12.1985 13.4216 11.4783 13.9072 10.6513 14.2652C9.82421 14.6232 8.94027 14.8022 7.99945 14.8022ZM7.99945 13.2855C8.57819 13.2855 9.13737 13.1949 9.67698 13.0138C10.2166 12.8326 10.7118 12.5653 11.1625 12.2119L3.77952 4.83297C3.43145 5.28901 3.16684 5.78551 2.98568 6.32246C2.80453 6.85942 2.71395 7.41594 2.71395 7.99203C2.71395 9.46763 3.22663 10.7188 4.25198 11.7455C5.27735 12.7722 6.5265 13.2855 7.99945 13.2855ZM12.2234 11.1511C12.5688 10.695 12.8321 10.1986 13.0132 9.6616C13.1944 9.12464 13.2849 8.56812 13.2849 7.99203C13.2849 6.51909 12.7723 5.27126 11.7469 4.24855C10.7215 3.22585 9.47239 2.7145 7.99945 2.7145C7.42336 2.7145 6.86751 2.80375 6.33188 2.98225C5.79625 3.16075 5.30042 3.4227 4.84438 3.76811L12.2234 11.1511Z" fill="#4B4B4B"/>
</g>
</svg>
