<svg width="32" height="32" viewBox="0 0 32 32" fill="none" xmlns="http://www.w3.org/2000/svg">
<circle cx="16" cy="16" r="16" fill="#EEEEF6"/>
<mask id="mask0_156_3571" style="mask-type:alpha" maskUnits="userSpaceOnUse" x="6" y="6" width="21" height="20">
<rect x="6.1936" y="6" width="20.6452" height="20" fill="#D9D9D9"/>
</mask>
<g mask="url(#mask0_156_3571)">
<path d="M11.9263 24.1686C11.4317 24.1686 11.0116 24.0001 10.6659 23.6632C10.3203 23.3263 10.1475 22.9184 10.1475 22.4394V9.55902C10.1475 9.08009 10.3214 8.67216 10.6692 8.33523C11.017 7.9983 11.438 7.82983 11.9324 7.82983H17.9095C18.1451 7.82983 18.3697 7.87037 18.5832 7.95144C18.7967 8.03251 18.9943 8.16106 19.176 8.33708L22.3607 11.4222C22.5424 11.5983 22.6751 11.7897 22.7588 11.9965C22.8424 12.2034 22.8843 12.4209 22.8843 12.6491V22.4394C22.8843 22.9184 22.7103 23.3263 22.3623 23.6632C22.0143 24.0002 21.5931 24.1686 21.0985 24.1686L11.9263 24.1686ZM17.4864 12.1944V9.55902H11.9324V22.4394H21.0993V13.059H18.3789C18.1287 13.059 17.9174 12.9755 17.745 12.8085C17.5726 12.6415 17.4864 12.4368 17.4864 12.1944Z" fill="#5553AA"/>
</g>
</svg>
