<svg width="24" height="24" viewBox="0 0 24 24" fill="none" xmlns="http://www.w3.org/2000/svg">
<mask id="mask0_5436_2596" style="mask-type:alpha" maskUnits="userSpaceOnUse" x="0" y="0" width="24" height="24">
<rect width="24" height="24" fill="#D9D9D9"/>
</mask>
<g mask="url(#mask0_5436_2596)">
<path d="M6.0719 18.9281H8.86265V13.9999C8.86265 13.6807 8.97243 13.4113 9.192 13.1917C9.41157 12.9722 9.68095 12.8624 10.0002 12.8624H14.0001C14.3193 12.8624 14.5887 12.9722 14.8083 13.1917C15.0279 13.4113 15.1376 13.6807 15.1376 13.9999V18.9281H17.9284V10.0358L12.0001 5.58957L6.0719 10.0358V18.9281ZM3.79688 18.9281V10.0358C3.79688 9.67624 3.87668 9.33563 4.03628 9.01394C4.19589 8.69226 4.41863 8.4258 4.7045 8.21457L10.6328 3.76837C11.0346 3.46185 11.4904 3.30859 12.0001 3.30859C12.5099 3.30859 12.9657 3.46185 13.3675 3.76837L19.2958 8.21457C19.5817 8.4258 19.8044 8.69226 19.964 9.01394C20.1236 9.33563 20.2034 9.67624 20.2034 10.0358V18.9281C20.2034 19.5579 19.9817 20.0945 19.5382 20.5379C19.0947 20.9814 18.5581 21.2032 17.9284 21.2032H14.0898C13.7706 21.2032 13.5012 21.0934 13.2817 20.8738C13.0621 20.6543 12.9523 20.3849 12.9523 20.0656V15.0477H11.048V20.0656C11.048 20.3849 10.9382 20.6543 10.7186 20.8738C10.4991 21.0934 10.2297 21.2032 9.91047 21.2032H6.0719C5.44218 21.2032 4.90558 20.9814 4.4621 20.5379C4.01862 20.0945 3.79688 19.5579 3.79688 18.9281Z" fill="#673391"/>
</g>
</svg>
