<svg width="24" height="24" viewBox="0 0 24 24" fill="none" xmlns="http://www.w3.org/2000/svg">
<g id="IC_arrow_forward">
<mask id="mask0_189_2516" style="mask-type:alpha" maskUnits="userSpaceOnUse" x="0" y="0" width="24" height="24">
<rect id="Bounding box" width="24" height="24" fill="#D9D9D9"/>
</mask>
<g mask="url(#mask0_189_2516)">
<path id="arrow_forward" d="M15.8464 13.1376H4.9344C4.61518 13.1376 4.34579 13.0278 4.12622 12.8083C3.90666 12.5887 3.79688 12.3193 3.79688 12.0001C3.79688 11.6809 3.90666 11.4115 4.12622 11.192C4.34579 10.9724 4.61518 10.8626 4.9344 10.8626H15.8464L11.1795 6.19575C10.9516 5.96785 10.8408 5.70064 10.8471 5.39413C10.8535 5.08761 10.9706 4.8204 11.1985 4.5925C11.4264 4.38127 11.6936 4.27248 12.0001 4.26613C12.3067 4.25979 12.5739 4.37058 12.8018 4.59848L19.4018 11.1985C19.5137 11.3104 19.5955 11.4347 19.6472 11.5713C19.6988 11.7079 19.7246 11.8508 19.7246 12.0001C19.7246 12.1494 19.6988 12.2923 19.6472 12.4289C19.5955 12.5655 19.5137 12.6898 19.4018 12.8017L12.7958 19.4077C12.5806 19.6229 12.3175 19.7306 12.0067 19.7306C11.6958 19.7306 11.4264 19.6229 11.1985 19.4077C10.9706 19.1798 10.8567 18.9094 10.8567 18.5966C10.8567 18.2837 10.9706 18.0133 11.1985 17.7854L15.8464 13.1376Z" fill="#FCFCFC"/>
</g>
</g>
</svg>
