<svg width="24" height="24" viewBox="0 0 24 24" fill="none" xmlns="http://www.w3.org/2000/svg">
<g id="IC_arrow_backword">
<mask id="mask0_4905_3557" style="mask-type:alpha" maskUnits="userSpaceOnUse" x="0" y="0" width="24" height="24">
<rect id="Bounding box" width="24" height="24" fill="#D9D9D9"/>
</mask>
<g mask="url(#mask0_4905_3557)">
<path id="arrow_back" d="M8.15364 13.1375L12.8205 17.8043C13.0484 18.0322 13.1592 18.2994 13.1528 18.606C13.1465 18.9125 13.0294 19.1797 12.8015 19.4076C12.5736 19.6188 12.3064 19.7276 11.9998 19.734C11.6933 19.7403 11.4261 19.6295 11.1982 19.4016L4.59822 12.8016C4.48625 12.6897 4.40445 12.5654 4.35282 12.4288C4.3012 12.2922 4.27539 12.1493 4.27539 12C4.27539 11.8507 4.3012 11.7078 4.35282 11.5712C4.40445 11.4346 4.48625 11.3103 4.59822 11.1984L11.2042 4.59238C11.4194 4.37715 11.6824 4.26953 11.9933 4.26953C12.3042 4.26953 12.5736 4.37715 12.8015 4.59238C13.0294 4.82028 13.1433 5.09066 13.1433 5.40351C13.1433 5.71637 13.0294 5.98676 12.8015 6.21466L8.15364 10.8625H19.0656C19.3848 10.8625 19.6542 10.9723 19.8738 11.1918C20.0933 11.4114 20.2031 11.6808 20.2031 12C20.2031 12.3192 20.0933 12.5886 19.8738 12.8081C19.6542 13.0277 19.3848 13.1375 19.0656 13.1375H8.15364Z" fill="#673391"/>
</g>
</g>
</svg>
