<svg width="40" height="40" viewBox="0 0 40 40" fill="none" xmlns="http://www.w3.org/2000/svg">
<mask id="mask0_963_2815" style="mask-type:alpha" maskUnits="userSpaceOnUse" x="11" y="13" width="14" height="14">
<rect x="11" y="13" width="14" height="14" fill="#D9D9D9"/>
</mask>
<g mask="url(#mask0_963_2815)">
<path d="M15.0833 21.75H18.5833L19.75 20.5833H15.0833C14.918 20.5833 14.7795 20.6392 14.6677 20.751C14.5559 20.8629 14.5 21.0014 14.5 21.1667C14.5 21.3319 14.5559 21.4705 14.6677 21.5823C14.7795 21.6941 14.918 21.75 15.0833 21.75ZM15.0833 19.4167H17.4166C17.5819 19.4167 17.7204 19.3608 17.8323 19.249C17.9441 19.1372 18 18.9986 18 18.8333C18 18.6681 17.9441 18.5295 17.8323 18.4177C17.7204 18.3059 17.5819 18.25 17.4166 18.25H15.0833C14.918 18.25 14.7795 18.3059 14.6677 18.4177C14.5559 18.5295 14.5 18.6681 14.5 18.8333C14.5 18.9986 14.5559 19.1372 14.6677 19.249C14.7795 19.3608 14.918 19.4167 15.0833 19.4167ZM16.25 24.0833H13.3333C13.0125 24.0833 12.7378 23.9691 12.5093 23.7406C12.2809 23.5122 12.1666 23.2375 12.1666 22.9167V17.0833C12.1666 16.7625 12.2809 16.4879 12.5093 16.2594C12.7378 16.0309 13.0125 15.9167 13.3333 15.9167H22.6666C22.9875 15.9167 23.2621 16.0309 23.4906 16.2594C23.7191 16.4879 23.8333 16.7625 23.8333 17.0833V17.6667H22.6666V17.0833H13.3333V22.9167H17.4166L16.25 24.0833ZM24.3583 20.175C24.4069 20.2236 24.4312 20.2771 24.4312 20.3354C24.4312 20.3938 24.4069 20.4472 24.3583 20.4958L23.8333 21.0208L22.8125 20L23.3375 19.475C23.3861 19.4264 23.4395 19.4021 23.4979 19.4021C23.5562 19.4021 23.6097 19.4264 23.6583 19.475L24.3583 20.175ZM23.4833 21.3708L19.7791 25.075C19.7208 25.1333 19.6552 25.1771 19.5823 25.2063C19.5093 25.2354 19.434 25.25 19.3562 25.25H18.875C18.7972 25.25 18.7291 25.2208 18.6708 25.1625C18.6125 25.1042 18.5833 25.0361 18.5833 24.9583V24.4771C18.5833 24.3993 18.5979 24.324 18.627 24.251C18.6562 24.1781 18.7 24.1125 18.7583 24.0542L22.4625 20.35L23.4833 21.3708Z" fill="#D9CEE1"/>
</g>
<path fill-rule="evenodd" clip-rule="evenodd" d="M10.549 4C9.1432 4 8 5.1588 8 6.58381V33.4162C8 34.8406 9.14319 36 10.549 36H24.3583C25.7635 36 26.9073 34.8412 26.9073 33.4162V6.58381C26.9073 5.15911 25.7635 4 24.3583 4H10.549ZM9.05632 6.58414C9.05632 5.74999 9.72589 5.07106 10.549 5.07106H24.3583C25.1812 5.07106 25.851 5.74976 25.851 6.58414V33.416C25.851 34.2502 25.1814 34.9291 24.3583 34.9291L10.549 34.9288C9.72612 34.9288 9.05632 34.2501 9.05632 33.4157V6.58414ZM15.9382 6.47441C15.6468 6.47441 15.4099 6.71413 15.4099 7.00995C15.4099 7.30536 15.6464 7.54548 15.9382 7.54548H18.9699C19.2621 7.54548 19.4982 7.30568 19.4982 7.00995C19.4982 6.71449 19.2614 6.47441 18.9699 6.47441H15.9382ZM17.4518 30.886C16.7882 30.886 16.25 31.4311 16.25 32.1039C16.25 32.7766 16.7882 33.3221 17.4518 33.3221C18.1155 33.3221 18.6536 32.7766 18.6536 32.1039C18.6536 31.4311 18.1154 30.886 17.4518 30.886Z" fill="url(#paint0_linear_963_2815)"/>
<defs>
<linearGradient id="paint0_linear_963_2815" x1="17.4537" y1="4" x2="7.54307" y2="40.5427" gradientUnits="userSpaceOnUse">
<stop offset="0.202452" stop-color="#673391"/>
<stop offset="1" stop-color="#B22382"/>
</linearGradient>
</defs>
</svg>
