<svg width="40" height="40" viewBox="0 0 40 40" fill="none" xmlns="http://www.w3.org/2000/svg">
<path d="M24.3288 24.4776L23.9333 25.8571H16.6204L17.0236 24.4776H24.3288ZM20.5831 32.2352L16.8453 28.1751L16.8375 26.9592H18.6599C19.0838 26.9592 19.4328 26.8834 19.7068 26.7317C19.9808 26.58 20.185 26.3761 20.3195 26.1202C20.4539 25.8594 20.5211 25.5703 20.5211 25.2527C20.5211 24.9209 20.459 24.627 20.335 24.371C20.2109 24.115 20.0118 23.9159 19.7378 23.7737C19.4638 23.6267 19.0994 23.5533 18.6444 23.5533H16.6281L17.0857 21.8823H18.6444C19.575 21.8823 20.3505 22.0103 20.9709 22.2663C21.5913 22.5222 22.0566 22.892 22.3668 23.3755C22.677 23.8543 22.8321 24.435 22.8321 25.1176C22.8321 25.7149 22.7287 26.2387 22.5219 26.689C22.3151 27.1393 21.9868 27.5114 21.537 27.8053C21.0872 28.0945 20.4952 28.2983 19.7611 28.4169L23.1267 32.1357V32.2352H20.5831ZM24.3443 21.8823L23.941 23.2546H17.8844L18.2877 21.8823H24.3443Z" fill="#D9CEE1"/>
<path fill-rule="evenodd" clip-rule="evenodd" d="M19.9991 11.4977C19.4455 9.59828 18.3304 7.11513 16.1186 5.60164C12.2399 2.94793 6.61942 4.39444 6.38644 4.45821C6.14288 4.52237 5.98105 4.74694 6.00179 4.99212C6.02135 5.23253 6.52755 10.8687 10.405 13.5228C12.247 14.772 14.4679 15.1127 16.3273 15.1127L16.3271 15.1126C17.3847 15.1149 18.4389 15.0135 19.4744 14.8106V17.7828C17.1844 17.9083 15.014 18.8501 13.3836 20.4383C11.6286 22.1481 10.6426 24.4667 10.6426 26.884C10.6426 29.3016 11.6287 31.6202 13.3836 33.3301C15.1384 35.0395 17.5187 36 20.0007 36C22.4818 35.9973 24.8605 35.0359 26.615 33.3269C28.3691 31.6179 29.3559 29.3008 29.3587 26.884C29.3587 24.4667 28.3727 22.1481 26.6178 20.4383C24.9865 18.8492 22.8147 17.9074 20.5234 17.7826V14.8036C21.5593 15.0089 22.6143 15.1125 23.6729 15.1125L23.6727 15.1125C25.5322 15.1125 27.7587 14.781 29.595 13.5148C33.4725 10.861 33.9783 5.22251 33.9982 4.98407C34.0189 4.73891 33.8571 4.51433 33.6136 4.45017V4.45056C33.3757 4.38678 27.7601 2.93987 23.8814 5.594C21.667 7.10909 20.552 9.59713 19.9991 11.4977ZM19.9635 18.7903C19.9752 18.791 19.9871 18.7914 19.9989 18.7914C20.0107 18.7914 20.0224 18.791 20.0341 18.7903C22.225 18.8012 24.3235 19.6538 25.8733 21.1635C27.431 22.6808 28.3069 24.738 28.3097 26.8836C28.3097 29.0303 27.4343 31.089 25.8757 32.6068C24.3177 34.1246 22.2044 34.9773 20.0007 34.9773C17.7969 34.9773 15.6838 34.1246 14.1256 32.6068C12.5671 31.0891 11.6917 29.0303 11.6917 26.8836C11.6917 24.7372 12.5671 22.6785 14.1256 21.1607C15.6749 19.6515 17.7731 18.7998 19.9635 18.7903ZM11.0088 12.6871C13.4883 14.3845 16.9178 14.1714 18.6927 13.9054L11.4882 8.96947C11.2511 8.80708 11.1938 8.48824 11.3601 8.25733C11.5264 8.02603 11.8537 7.97018 12.0912 8.13217L19.296 13.0634C18.95 11.346 17.9936 8.13457 15.516 6.43751C12.6295 4.46071 8.45804 5.07141 7.10204 5.34193L7.10214 5.34629C7.29934 6.6771 8.12111 10.7099 11.0088 12.6871ZM20.5834 13.7738C21.9346 14.0439 26.1084 14.6586 28.9962 12.6826C31.8916 10.7006 32.7076 6.67255 32.8979 5.34174C31.5468 5.07162 27.3729 4.45691 24.484 6.43296C21.595 8.40895 20.7757 12.4427 20.5833 13.7738H20.5834ZM22.8965 12.7972C22.6676 12.7972 22.4655 12.6526 22.3964 12.4403C22.3273 12.228 22.4074 11.9963 22.5944 11.868L27.9078 8.13123C28.1452 7.96923 28.4725 8.02508 28.6388 8.25639C28.8051 8.4873 28.7478 8.80615 28.5108 8.96853L23.1986 12.7041C23.1104 12.7651 23.0047 12.7976 22.8965 12.7972Z" fill="url(#paint0_linear_963_2837)"/>
<defs>
<linearGradient id="paint0_linear_963_2837" x1="20" y1="4" x2="13.0487" y2="41.9575" gradientUnits="userSpaceOnUse">
<stop offset="0.202452" stop-color="#673391"/>
<stop offset="1" stop-color="#B22382"/>
</linearGradient>
</defs>
</svg>
