<svg width="40" height="40" viewBox="0 0 40 40" fill="none" xmlns="http://www.w3.org/2000/svg">
<path d="M17.5014 26.5077H7.47341C7.07453 26.5077 6.69174 26.3369 6.40975 26.033C6.12777 25.729 5.96924 25.3165 5.96924 24.8867V7.88614C5.96924 7.45628 6.12771 7.04375 6.40975 6.73986C6.69179 6.43596 7.07458 6.26512 7.47341 6.26512H17.5014C17.9003 6.26512 18.283 6.43591 18.565 6.73986C18.847 7.04381 19.0055 7.45633 19.0055 7.88614V24.8867C19.0055 25.3165 18.8471 25.7291 18.565 26.033C18.283 26.3369 17.9002 26.5077 17.5014 26.5077Z" fill="#D9CEE1"/>
<path fill-rule="evenodd" clip-rule="evenodd" d="M29.266 12.3949C29.4658 12.2016 29.7773 12.2147 29.9617 12.4241L35.8694 19.1338C36.0434 19.3315 36.0434 19.6362 35.8694 19.8339L29.9617 26.5436C29.7773 26.7531 29.4658 26.7661 29.266 26.5728C29.0662 26.3795 29.0538 26.0529 29.2382 25.8435L34.3832 20H17.7845C17.5126 20 17.2922 19.7689 17.2922 19.4839C17.2922 19.1988 17.5126 18.9677 17.7845 18.9677H34.3832L29.2382 13.1243C29.0538 12.9148 29.0662 12.5883 29.266 12.3949Z" fill="url(#paint0_linear_963_2811)"/>
<path fill-rule="evenodd" clip-rule="evenodd" d="M4 6.58065C4 5.15539 5.10207 4 6.46154 4H22.2154C23.5749 4 24.6769 5.15539 24.6769 6.58065V16.9032C24.6769 17.1883 24.4565 17.4194 24.1846 17.4194C23.9127 17.4194 23.6923 17.1883 23.6923 16.9032V6.58065C23.6923 5.72549 23.0311 5.03226 22.2154 5.03226H6.46154C5.64586 5.03226 4.98462 5.72549 4.98462 6.58065V33.4194C4.98462 34.2745 5.64586 34.9677 6.46154 34.9677H22.2154C23.0311 34.9677 23.6923 34.2745 23.6923 33.4194V21.5484C23.6923 21.2633 23.9127 21.0323 24.1846 21.0323C24.4565 21.0323 24.6769 21.2633 24.6769 21.5484V33.4194C24.6769 34.8446 23.5749 36 22.2154 36H6.46154C5.10207 36 4 34.8446 4 33.4194V6.58065Z" fill="url(#paint1_linear_963_2811)"/>
<defs>
<linearGradient id="paint0_linear_963_2811" x1="26.6461" y1="12.2581" x2="24.486" y2="29.7077" gradientUnits="userSpaceOnUse">
<stop offset="0.202452" stop-color="#673391"/>
<stop offset="1" stop-color="#B22382"/>
</linearGradient>
<linearGradient id="paint1_linear_963_2811" x1="14.3385" y1="4" x2="5.17318" y2="40.9576" gradientUnits="userSpaceOnUse">
<stop offset="0.202452" stop-color="#673391"/>
<stop offset="1" stop-color="#B22382"/>
</linearGradient>
</defs>
</svg>
