<svg width="56" height="56" viewBox="0 0 56 56" fill="none" xmlns="http://www.w3.org/2000/svg">
<g id="Cate IC_Video Tutorials 1" clip-path="url(#clip0_652_1136)">
<path id="Vector" d="M44.2398 43.54H12.4598C11.8998 43.54 11.4798 43.12 11.4798 42.56C11.4798 42 11.8998 41.58 12.4598 41.58H44.2398C44.7998 41.58 45.2198 42 45.2198 42.56C45.2198 43.12 44.7998 43.54 44.2398 43.54ZM46.6198 40.18H9.51984C8.53984 40.18 7.83984 39.48 7.83984 38.5V14.14C7.83984 13.16 8.53984 12.46 9.51984 12.46H46.6198C47.5998 12.46 48.2998 13.16 48.2998 14.14V38.5C48.2998 39.48 47.4598 40.18 46.6198 40.18ZM9.79984 38.22H46.1998V14.42H9.79984V38.22Z" fill="url(#paint0_linear_652_1136)"/>
<g id="Group">
<path id="Vector_2" fill-rule="evenodd" clip-rule="evenodd" d="M23.2402 33.3199V19.3199C23.2402 19.1799 23.3802 19.0399 23.5202 19.1799L34.3002 26.1799C34.4402 26.3199 34.4402 26.4599 34.3002 26.4599L23.5202 33.4599C23.3802 33.5999 23.2402 33.4599 23.2402 33.3199Z" fill="#CCCBE5"/>
<path id="Vector_3" d="M23.66 34.3C23.1 34.44 22.54 34.02 22.54 33.46V19.32C22.54 19.04 22.68 18.9 22.82 18.76C22.96 18.62 23.24 18.48 23.52 18.48C23.66 18.48 23.8 18.62 23.94 18.76C24.08 18.9 24.36 19.04 24.5 19.18C24.92 19.46 25.2 19.74 25.62 19.88C26.32 20.44 27.16 20.86 27.86 21.42C29.54 22.54 31.08 23.52 32.76 24.64C33.18 24.92 33.74 25.34 34.16 25.62C34.3 25.76 34.58 25.9 34.72 26.04C35.14 26.46 35.14 27.02 34.72 27.3L34.58 27.44C33.32 28.28 32.06 29.12 30.8 29.82C28.84 31.08 26.88 32.48 24.92 33.74C24.64 34.02 24.22 34.16 23.94 34.44C23.94 34.16 23.8 34.16 23.66 34.3ZM23.94 20.3V32.48L33.18 26.46L23.94 20.3Z" fill="#CCCBE5"/>
</g>
</g>
<defs>
<linearGradient id="paint0_linear_652_1136" x1="32.7972" y1="8.8124" x2="22.6836" y2="46.0972" gradientUnits="userSpaceOnUse">
<stop offset="0.2" stop-color="#673391"/>
<stop offset="1" stop-color="#B22382"/>
</linearGradient>
<clipPath id="clip0_652_1136">
<rect width="56" height="56" fill="white"/>
</clipPath>
</defs>
</svg>
