<svg width="104" height="105" viewBox="0 0 104 105" fill="none" xmlns="http://www.w3.org/2000/svg">
<g id="Group 1597881431">
<g id="Group 1597881432">
<g id="Group">
<g id="Group_2">
<path id="Vector" d="M52.6223 62.9871C59.6474 62.9871 65.3423 58.4683 65.3423 52.8939C65.3423 47.3196 59.6474 42.8008 52.6223 42.8008C45.5973 42.8008 39.9023 47.3196 39.9023 52.8939C39.9023 58.4683 45.5973 62.9871 52.6223 62.9871Z" fill="white"/>
<g id="Group_3">
<path id="Vector_2" d="M50.0405 38.4747C49.9205 38.4747 49.8005 38.5348 49.6805 38.5348C49.5605 38.5348 49.4405 38.5348 49.3205 38.5949C49.2005 38.655 49.0805 38.655 49.0805 38.655C48.8405 38.655 47.2205 39.0755 46.9205 39.1957C46.8605 39.1957 46.8005 39.2558 46.7405 39.2558C46.6805 39.2558 46.6805 39.2558 46.6805 39.3158C46.6805 39.3158 46.6205 39.3759 46.5605 39.3759C46.5005 39.3759 46.4405 39.436 46.3805 39.436C46.3805 39.436 46.2605 39.4961 46.2005 39.4961C46.1405 39.5562 46.0205 39.5562 45.9605 39.6162C45.9005 39.6162 45.8405 39.6763 45.8405 39.6763C45.8405 39.6763 45.7805 39.6763 45.7205 39.7364C45.6605 39.7965 45.6605 39.7965 45.6005 39.7965C45.5405 39.7965 45.5405 39.7965 45.4805 39.8566C45.4205 39.9166 45.4205 39.9166 45.3605 39.9166C45.3005 39.9166 45.3005 39.9166 45.2405 39.9767C45.2405 39.9767 45.1805 40.0368 45.1205 40.0368C45.1205 40.0368 45.0605 40.0368 45.0605 40.0969C45.0605 40.0969 44.9405 40.1569 44.8805 40.217C44.8205 40.2771 44.7005 40.3372 44.6405 40.3372C44.5805 40.3372 44.4605 40.4573 44.2805 40.5174C44.1005 40.6376 43.9805 40.6976 43.9805 40.6976C43.9805 40.6976 43.9805 40.6976 43.9205 40.6976C43.8605 40.6976 43.2605 41.1182 43.1405 41.1783C43.0805 41.2384 43.0805 41.2384 43.0205 41.2384C42.9605 41.2384 42.6605 41.4787 42.6605 41.4787L42.6005 41.5387H42.5405C42.5405 41.5387 42.4805 41.5988 42.4205 41.6589C42.1805 41.8391 42.0605 41.9593 41.4005 42.6202C40.6805 43.3411 40.5005 43.5213 40.5005 43.5814V43.6415C40.5005 43.6415 40.4405 43.7016 40.3805 43.8217C40.3205 43.9419 40.2605 44.002 40.2005 44.002L40.1405 44.062C40.1405 44.062 40.1405 44.1221 40.0805 44.1221C40.0205 44.2423 39.7205 44.6027 39.7205 44.6027C39.7205 44.6027 39.7205 44.6628 39.6605 44.6628C39.6005 44.7229 39.6005 44.783 39.5405 44.783C39.5405 44.8431 39.4805 44.9031 39.4205 44.9632C39.3005 45.0834 39.3005 45.2035 39.2405 45.2636C39.2405 45.3237 39.1805 45.3838 39.1205 45.4438C39.0605 45.5039 39.0605 45.564 39.0005 45.6241C38.9405 45.6842 38.9405 45.6842 38.9405 45.7442L38.8805 45.8043C38.8805 45.8644 38.8805 45.8644 38.8205 45.8644C38.7605 45.8644 38.7605 45.9245 38.7605 45.9245C38.7605 45.9845 38.7005 46.0446 38.7005 46.0446C38.7005 46.0446 38.6405 46.1047 38.6405 46.1648C38.6405 46.2249 38.6405 46.2249 38.5805 46.2849C38.5205 46.345 38.5205 46.345 38.5205 46.4051C38.5205 46.4652 38.5205 46.4652 38.4605 46.5253C38.4605 46.5853 38.4005 46.5853 38.4005 46.6454C38.4005 46.7055 38.4005 46.7055 38.3405 46.7656C38.2805 46.8256 38.2805 46.8256 38.2805 46.8857C38.2805 46.9458 38.2805 46.9458 38.2205 46.9458C38.1605 46.9458 38.1605 47.0059 38.1605 47.066C38.1605 47.126 38.1005 47.1861 38.1005 47.2462C38.1005 47.3063 38.0405 47.3664 38.0405 47.3664C38.0405 47.3664 38.0405 47.4264 37.9805 47.4264C37.9205 47.4264 37.9205 47.4865 37.9205 47.5466C37.9205 47.6067 37.8605 47.6667 37.8605 47.7268C37.8005 47.7869 37.8005 47.847 37.8005 47.847C37.8005 47.847 37.8005 47.9071 37.7405 47.9671C37.6205 48.1474 37.3205 49.2288 37.2605 49.7094C37.2005 49.8296 37.2005 50.0699 37.1405 50.13C37.1405 50.2501 37.0805 50.3703 37.0805 50.4303C37.0805 50.4904 37.0805 50.6106 37.0205 50.6707C36.9605 50.7307 36.9605 50.911 36.9605 51.1513C36.9605 51.3315 36.9005 51.6319 36.9005 51.7521C36.8405 52.0525 36.8405 53.5544 36.9005 53.7947C36.9005 53.9149 36.9605 54.1552 36.9605 54.3354C36.9605 54.5157 37.0205 54.756 37.0205 54.756C37.0205 54.8161 37.0805 54.9362 37.0805 54.9963C37.0805 55.0564 37.0805 55.2366 37.1405 55.3568C37.2005 55.4769 37.2005 55.6572 37.2605 55.8374C37.3805 56.318 37.6205 57.1591 37.6805 57.3994C37.6805 57.4595 37.7405 57.5196 37.7405 57.5196C37.7405 57.5196 37.7405 57.6398 37.8005 57.6398C37.8005 57.6998 37.8605 57.7599 37.8605 57.7599C37.8605 57.7599 37.8605 57.82 37.9205 57.82C37.9205 57.82 37.9805 57.8801 37.9805 57.9401C37.9805 58.0002 37.9805 58.0603 38.0405 58.0603C38.1005 58.0603 38.1005 58.1805 38.1005 58.1805L38.1605 58.3006L38.2205 58.3607C38.2205 58.3607 38.2205 58.4809 38.2805 58.4809C38.3405 58.4809 38.3405 58.5409 38.3405 58.601C38.3405 58.6611 38.3405 58.6611 38.4005 58.7212C38.4005 58.7212 38.4605 58.7812 38.4605 58.8413C38.4605 58.9014 38.4605 58.9014 38.5205 58.9615C38.5805 59.0216 38.5805 59.0216 38.5805 59.0816C38.5805 59.1417 38.5805 59.1417 38.6405 59.2018C38.7005 59.2619 38.7005 59.2619 38.7005 59.322C38.7005 59.382 38.7005 59.382 38.7605 59.382L38.8205 59.4421C38.8205 59.5022 38.8205 59.5022 38.8805 59.5022C38.8805 59.5022 38.9405 59.5623 38.9405 59.6223C38.9405 59.6824 39.0005 59.7425 39.0605 59.8026C39.1205 59.8627 39.1205 59.9227 39.1805 59.9828C39.2405 60.0429 39.2405 60.103 39.3005 60.1631C39.3605 60.2231 39.3605 60.2832 39.4205 60.3433C39.4805 60.4634 39.8405 61.0041 39.8405 61.0041C39.8405 61.0041 39.9005 61.1243 39.9605 61.1844C40.0205 61.3045 40.0805 61.3646 40.0805 61.3646C40.0805 61.3646 40.1405 61.3646 40.1405 61.4247C40.1405 61.4247 40.2005 61.5448 40.2605 61.6049C40.3205 61.665 40.3805 61.7251 40.3805 61.7852C40.5005 62.0255 42.1805 63.6476 42.2405 63.6476C42.2405 63.6476 42.3005 63.6476 42.3005 63.7077L42.3605 63.7678C42.3605 63.7678 42.4205 63.7677 42.4205 63.8278C42.4205 63.8879 43.8005 64.8492 43.8605 64.8492C43.8605 64.8492 43.9205 64.9092 43.9805 64.9693C44.0405 65.0294 44.1005 65.0895 44.1605 65.0895H44.2205C44.2205 65.0895 44.2805 65.1496 44.4005 65.2096C44.5205 65.2697 44.5805 65.3298 44.5805 65.3298L44.6405 65.3899C44.7005 65.3899 44.7005 65.3899 44.7005 65.3899C44.7005 65.3899 44.7605 65.4499 44.8805 65.51C45.0005 65.5701 45.0605 65.5701 45.0605 65.6302C45.0605 65.6302 45.0605 65.6302 45.1205 65.6302C45.1805 65.6302 45.6005 65.8104 45.7205 65.9306C45.7805 65.9306 45.8405 65.9907 45.8405 65.9907C45.8405 65.9907 45.9005 65.9907 45.9005 66.0507C45.9005 66.1108 45.9605 66.1108 45.9605 66.1108C46.0205 66.1108 46.2005 66.1709 46.4405 66.291C46.7405 66.4112 47.9405 66.7717 48.3005 66.8317C48.3605 66.8317 48.4805 66.8918 48.5405 66.8918C48.6005 66.8918 48.7205 66.9519 48.7805 66.9519C48.8405 66.9519 48.9605 66.9519 48.9605 67.012C48.9605 67.0721 49.1405 67.0721 49.2605 67.0721C49.3805 67.0721 49.5605 67.1321 49.6205 67.1321C49.6805 67.1922 50.7605 67.2523 51.3605 67.2523C52.0805 67.2523 52.9805 67.1922 53.1005 67.1321C53.1605 67.1321 53.2805 67.0721 53.4005 67.0721C53.5205 67.0721 53.6405 67.0721 53.7605 67.012C53.8805 66.9519 53.9405 66.9519 54.0005 66.9519C54.0605 66.9519 54.1805 66.9519 54.2405 66.8918C54.3005 66.8918 54.3605 66.8317 54.4205 66.8317C54.4805 66.8317 54.6005 66.8318 54.6605 66.7717C54.7205 66.7116 55.0205 66.6515 55.2605 66.5914C55.8005 66.4713 56.2205 66.291 56.3405 66.231C56.4005 66.231 56.4605 66.1709 56.4605 66.1709C56.5205 66.1709 56.5205 66.1709 56.5805 66.1108C56.6405 66.1108 56.7005 66.0507 56.7005 66.0507C56.7005 66.0507 56.8205 66.0507 56.8205 65.9907C56.8805 65.9907 56.8805 65.9306 56.9405 65.9306C57.0005 65.9306 57.0005 65.9306 57.0005 65.8705C57.0005 65.8705 57.0005 65.8104 57.0605 65.8104C57.1205 65.8104 58.0205 65.3899 58.0205 65.3298C58.0205 65.3298 58.0805 65.2697 58.2005 65.2096C58.3205 65.1496 58.3805 65.0895 58.4405 65.0895C58.5005 65.0294 58.5605 65.0294 58.6205 64.9693C58.6805 64.9092 58.7405 64.9092 58.8005 64.8492C58.8605 64.7891 58.9205 64.7891 58.9805 64.729C59.0405 64.729 59.0405 64.6689 59.0405 64.6689C59.0405 64.6689 59.2205 64.5488 59.6405 64.2484C60.0005 64.0081 60.1805 63.8879 60.1805 63.8278C60.1805 63.8278 60.3005 63.7678 60.3605 63.7077C60.6005 63.5274 60.6605 63.4674 61.3205 62.8065C62.1005 62.0255 62.2205 61.9053 62.2205 61.8452V61.7852C62.2205 61.7852 62.3405 61.665 62.5205 61.4247C62.5205 61.4247 62.6405 61.2445 62.7605 61.1243C62.8805 60.9441 63.0005 60.7638 63.0605 60.7038C63.1205 60.6437 63.1805 60.5836 63.1805 60.5235V60.4634L63.2405 60.4034C63.2405 60.3433 63.2405 60.3433 63.3005 60.3433C63.3605 60.3433 63.3605 60.2832 63.3605 60.2832C63.3605 60.2231 63.4205 60.163 63.4805 60.103C63.5405 60.0429 63.5405 59.9828 63.6005 59.9227C63.6605 59.8627 63.6605 59.8627 63.6605 59.8026L63.7205 59.7425C63.7205 59.6824 63.7205 59.6824 63.7805 59.6824L63.8405 59.6223C63.8405 59.5623 63.8405 59.5623 63.9005 59.5623L63.9605 59.5022C63.9605 59.4421 63.9605 59.4421 64.0205 59.382C64.0805 59.322 64.0805 59.322 64.0805 59.2619C64.0805 59.2018 64.0805 59.2018 64.1405 59.1417C64.2005 59.0816 64.2005 59.0816 64.2005 59.0816C64.2005 59.0816 64.2605 58.9615 64.3205 58.8413C64.4405 58.601 64.4405 58.601 64.5605 58.3607C64.6205 58.2405 64.6205 58.1805 64.6805 58.1204C64.8005 57.8801 65.0405 57.039 65.1605 56.6184C65.1605 56.4983 65.2205 56.3781 65.2805 56.258C65.3405 56.1378 65.3405 56.0777 65.3405 56.0176C65.3405 55.9576 65.3405 55.8975 65.4005 55.8374C65.4005 55.7773 65.4605 55.6572 65.4605 55.5971C65.4605 55.537 65.4605 55.4169 65.5205 55.3568C65.5205 55.2967 65.5805 55.1765 65.5805 55.0564C65.5805 54.9362 65.5805 54.8762 65.6405 54.8161C65.7005 54.756 65.7005 54.5758 65.7005 54.3354C65.7005 54.0951 65.7605 53.8548 65.7605 53.7347C65.8205 53.4943 65.8205 51.9924 65.7605 51.8122C65.7605 51.692 65.7005 51.4517 65.7005 51.2714C65.7005 51.0311 65.6405 50.8509 65.6405 50.7908C65.6405 50.7307 65.5805 50.6707 65.5805 50.5505C65.5805 50.4304 65.5805 50.3102 65.5205 50.2501C65.5205 50.19 65.4605 50.0699 65.4605 50.0098C65.4605 49.9497 65.4605 49.8296 65.4005 49.7695C65.4005 49.7094 65.3405 49.6493 65.3405 49.5892C65.3405 49.5292 65.3405 49.4691 65.2805 49.3489C65.2805 49.2889 65.2205 49.1086 65.1605 49.0485C64.9205 48.3276 64.6205 47.3063 64.4405 47.0059C64.4405 46.9458 64.3805 46.8857 64.3805 46.8857V46.8256V46.7656C64.3805 46.7055 64.3805 46.7055 64.3205 46.6454C64.2605 46.5853 64.2605 46.5853 64.2605 46.5253C64.2605 46.4652 64.2005 46.4051 64.2005 46.4051V46.345C64.2005 46.2849 64.2005 46.2849 64.1405 46.2249C64.1405 46.2249 64.0805 46.1648 64.0805 46.1047C64.0805 46.0446 64.0805 46.0446 64.0205 46.0446C63.9605 45.9845 63.9005 45.8644 63.8405 45.7442C63.8405 45.6842 63.7805 45.6241 63.7805 45.6241V45.564C63.7805 45.564 63.7805 45.5039 63.7205 45.5039C63.6605 45.5039 63.6605 45.4438 63.6605 45.4438L63.6005 45.3237C63.5405 45.2636 63.5405 45.2035 63.4805 45.1435C63.4805 45.0834 63.4205 45.0834 63.4205 45.0834C63.4205 45.0834 63.4205 45.0834 63.4205 45.0233C63.4205 45.0233 63.3005 44.8431 63.1805 44.6628C63.0605 44.4826 62.9405 44.3624 62.9405 44.3024C62.8805 44.2423 62.8205 44.1221 62.7605 44.062V44.002C62.7605 44.002 62.7605 43.9419 62.7005 43.9419C62.7005 43.9419 62.5805 43.8217 62.5205 43.7616C62.4605 43.6415 62.4005 43.5814 62.4005 43.5814C62.4005 43.5814 62.4005 43.5814 62.4005 43.5213C62.4005 43.5213 62.3405 43.4012 62.2805 43.3411C61.9805 43.0407 61.0805 42.1395 60.9605 42.0194C60.9005 41.9593 60.7205 41.8391 60.6605 41.7791C60.6005 41.719 60.4805 41.5988 60.4205 41.5387C60.3605 41.4787 60.3005 41.4787 60.3005 41.4787C60.3005 41.4787 60.1805 41.4186 60.0005 41.2984C59.6405 41.0581 59.4005 40.8779 59.1005 40.6976C58.9805 40.6376 58.8005 40.5174 58.8005 40.5174L58.6805 40.4573C58.6205 40.4573 58.5605 40.3973 58.5005 40.3372C58.4405 40.2771 58.2605 40.217 58.1405 40.1569C58.0205 40.0969 57.8405 40.0368 57.8405 39.9767C57.6605 39.8565 57.6005 39.8566 57.5405 39.8566C57.4805 39.8566 57.4805 39.8566 57.4805 39.7965L57.4205 39.7364L57.3005 39.6763C57.3005 39.6763 57.2405 39.6162 57.1805 39.6162C57.1205 39.6162 57.0605 39.5562 57.0605 39.5562C57.0605 39.5562 57.0005 39.4961 56.9405 39.4961C56.8805 39.4961 56.8205 39.4961 56.8205 39.436L56.7605 39.3759C56.7605 39.3759 56.7005 39.3759 56.6405 39.3158C56.5805 39.3158 56.5205 39.2558 56.4605 39.2558C56.4005 39.2558 56.2805 39.1957 56.1605 39.1356C55.3805 38.8953 54.1805 38.5949 53.5205 38.5348C53.4005 38.5348 53.1605 38.4747 53.1005 38.4747C52.8005 38.4147 50.2805 38.4147 50.0405 38.4747ZM51.4805 45.1435C51.7205 45.2035 51.8405 45.2636 52.0205 45.3838C52.2605 45.564 52.4405 45.8043 52.5605 46.1047C52.6205 46.2849 52.6205 47.0059 52.5605 47.1861C52.4405 47.6067 52.0805 47.9671 51.6005 48.1474C51.4805 48.2074 51.3605 48.2074 50.8205 48.2074H50.2205L49.9805 48.0873C49.8005 48.0272 49.6805 47.9071 49.5605 47.7869C49.3805 47.6067 49.3805 47.5466 49.2605 47.3664C49.0205 46.9458 49.0805 46.2249 49.3205 45.8043C49.4405 45.6241 49.8005 45.2035 49.9205 45.2035C49.9805 45.2035 49.9805 45.2035 49.9805 45.1435C49.9805 45.1435 50.1005 45.0834 50.1605 45.0834C50.4005 45.0834 51.3605 45.0834 51.4805 45.1435ZM46.8605 46.4051C47.2805 46.4652 47.6405 46.6454 47.8805 46.9458C48.0605 47.1861 48.1205 47.1861 48.1805 47.3664L48.2405 47.5466V50.7307C48.2405 52.8936 48.2405 53.975 48.1805 54.1552C48.1205 54.6959 48.0005 55.0564 47.9405 55.1165C47.9405 55.1165 47.8805 55.1765 47.8805 55.2366C47.8805 55.2967 47.8805 55.3568 47.8205 55.3568C47.8205 55.4169 47.7005 55.537 47.6405 55.7172C47.5205 56.0176 47.4605 56.0176 47.2805 56.318C46.9205 56.8587 46.2605 57.3394 45.6605 57.5196C45.0005 57.7599 44.7005 57.82 43.9205 57.82C42.7205 57.8801 41.3405 57.4595 40.6805 56.8587C40.0205 56.1979 39.8405 55.537 40.1405 54.8762C40.2005 54.756 40.2605 54.6358 40.2605 54.6358C40.2605 54.6358 40.3205 54.6358 40.3205 54.5758C40.3205 54.5157 40.6805 54.0951 40.8605 53.9149C41.1605 53.6145 41.2205 53.6145 41.4005 53.8548C41.6405 54.1552 42.0605 54.4556 42.4805 54.5758C42.5405 54.5758 42.7205 54.6358 42.9005 54.6959C43.1405 54.756 43.2005 54.756 43.4405 54.6959C43.8605 54.6358 43.9805 54.5758 44.1605 54.3955C44.4005 54.1552 44.4605 53.975 44.5205 53.5544C44.5205 53.3742 44.5805 51.9323 44.5805 50.3703C44.5805 47.2462 44.5805 47.4264 44.8205 47.066C45.0605 46.7656 45.4805 46.5253 45.9605 46.4051C46.4405 46.345 46.5005 46.345 46.8605 46.4051ZM58.6805 48.8683C58.8005 48.8683 58.9805 48.9284 59.0405 48.9284C59.1005 48.9284 59.2205 48.9885 59.3405 49.0485C60.4805 49.3489 61.5605 50.2501 62.0405 51.3315C62.1005 51.4517 62.1605 51.5718 62.1605 51.6319C62.1605 51.692 62.2205 51.7521 62.2205 51.7521C62.2205 51.7521 62.2205 51.8122 62.2205 51.8722C62.2205 51.8722 62.2805 51.9924 62.2805 52.0525C62.2805 52.1125 62.3405 52.2327 62.3405 52.3529C62.4005 52.7133 62.4605 52.8335 62.4605 53.194C62.4605 53.4343 62.4605 53.6746 62.4605 53.8548C62.4605 53.975 62.4005 54.1552 62.4005 54.2754C62.4005 54.3955 62.3405 54.5157 62.3405 54.5758C62.1605 55.1165 62.1005 55.2967 61.9805 55.537C61.6805 56.0777 61.0805 56.7386 60.4805 57.1591C60.2405 57.2793 59.7005 57.6398 59.5805 57.6398C59.5805 57.6398 59.5205 57.6398 59.4605 57.6998C59.3405 57.7599 59.0405 57.82 58.7405 57.8801C58.3805 57.9401 57.4805 57.9401 57.1205 57.8801C56.5205 57.7599 56.1605 57.6398 55.7405 57.3994C54.9605 56.9789 54.1805 56.1979 53.8205 55.4169C53.5805 54.9963 53.5805 54.8762 53.5805 54.8161C53.5805 54.756 53.5805 54.6959 53.5205 54.6959C53.5205 54.6358 53.4605 54.5758 53.4605 54.4556C53.4605 54.3354 53.4005 54.2153 53.4005 54.1552C53.3405 53.9149 53.3405 52.9536 53.4005 52.6533C53.4605 52.3529 53.5205 52.1125 53.5805 51.9323C53.5805 51.8722 53.6405 51.8122 53.6405 51.8122C53.6405 51.7521 53.8805 51.3315 53.9405 51.2114C54.0005 51.1513 54.0005 51.0912 54.0005 51.0912C54.0005 51.0912 54.1205 50.911 54.2405 50.7908C54.9005 50.0098 55.6205 49.4691 56.4605 49.2288C56.5805 49.1687 56.7005 49.1687 56.8205 49.1086C56.9405 49.0485 57.0605 49.0485 57.1205 49.0485C57.1805 49.0485 57.3005 49.0485 57.3605 48.9885C57.5405 48.8082 58.3805 48.8082 58.6805 48.8683ZM51.4805 49.0485C52.0205 49.1687 52.4405 49.5292 52.5605 50.0699C52.6205 50.19 52.6205 50.7307 52.6205 53.3141C52.6205 56.6184 52.6205 56.5583 52.4405 56.8587C52.3805 57.039 52.0805 57.3394 51.9005 57.3994C51.5405 57.5797 51.3605 57.6398 50.6405 57.5797C50.1005 57.5797 49.9805 57.5196 49.6805 57.3394C49.3805 57.0991 49.2005 56.7987 49.1405 56.4382C49.1405 56.318 49.0805 55.4169 49.0805 53.3141C49.0805 50.0699 49.0805 50.19 49.2605 49.8296C49.3205 49.6493 49.5005 49.4691 49.7405 49.2889C50.0405 49.1086 50.2805 49.0485 50.8205 49.0485C51.1205 48.9885 51.3605 48.9885 51.4805 49.0485Z" fill="#4F296F"/>
<path id="Vector_3" d="M57.5998 51.5117C57.3598 51.5718 57.1798 51.6319 57.1198 51.692L57.0598 51.752C56.9998 51.752 56.5798 52.1726 56.5198 52.2927C56.5198 52.3528 56.4598 52.4129 56.4598 52.4129C56.2798 52.7133 56.2198 53.3741 56.3398 53.7947C56.5198 54.4556 56.8798 54.816 57.5398 55.0563C58.0198 55.1765 58.6798 55.0563 59.0398 54.6959C59.3398 54.3955 59.5198 54.035 59.6398 53.5544C59.6398 53.3141 59.6398 53.254 59.6398 53.0137C59.5798 52.5931 59.3998 52.2927 59.1598 52.0524C58.9198 51.8121 58.6198 51.6319 58.3198 51.5718C58.0198 51.5117 57.8998 51.5117 57.5998 51.5117Z" fill="#4F296F"/>
</g>
<path id="Vector_4" d="M66.6022 49.2891C66.6022 49.229 66.5422 49.1089 66.5422 49.1089C66.5422 49.1089 66.5422 48.9286 66.4822 48.8686C66.4822 48.7484 66.4222 48.6283 66.3622 48.5081C66.1222 47.7271 65.7622 46.6457 65.5822 46.3453C65.5822 46.2852 65.5222 46.2251 65.5222 46.2251C65.5222 46.2251 65.5222 46.165 65.4622 46.165L65.4022 46.105C65.4022 46.105 65.4022 45.9848 65.3422 45.9848L65.2822 45.8647L65.2222 45.7445L65.1622 45.6844C65.1622 45.6844 65.1622 45.5643 65.1022 45.5643C65.1022 45.5042 65.0422 45.5042 65.0422 45.4441C65.0422 45.384 65.0422 45.384 64.9822 45.3239C64.9222 45.2639 64.8622 45.1437 64.8022 45.0236C64.8022 44.9635 64.7422 44.9034 64.7422 44.9034V44.8433C64.7422 44.8433 64.7422 44.7832 64.6822 44.7232C64.6222 44.6631 64.6222 44.6631 64.6222 44.6631C64.6222 44.6631 64.5622 44.5429 64.5622 44.4828C64.5022 44.4228 64.5022 44.3627 64.4422 44.3026C64.4422 44.2425 64.3822 44.2425 64.3822 44.2425C64.3822 44.2425 64.3822 44.2425 64.3822 44.1825C64.3822 44.1224 64.2622 44.0022 64.1422 43.822C64.0222 43.6417 63.9022 43.4615 63.8422 43.4615C63.7822 43.4014 63.7222 43.2813 63.6622 43.2212L63.6022 43.1611C63.6022 43.1611 63.6022 43.101 63.5422 43.101C63.5422 43.101 63.4222 42.9809 63.3622 42.9208C63.3022 42.8007 63.2422 42.7406 63.1822 42.7406V42.6805C63.1822 42.6805 63.1222 42.5603 63.0622 42.5003C62.7622 42.1398 61.8022 41.2386 61.6222 41.1185C61.5622 41.0584 61.3822 40.9382 61.2622 40.8181C61.1422 40.758 61.0222 40.6378 60.9622 40.5777C60.9022 40.5177 60.8422 40.5177 60.8422 40.5177C60.8422 40.5177 60.7222 40.3975 60.5422 40.3374C60.1822 40.037 59.8822 39.8568 59.5822 39.6766C59.4622 39.5564 59.2822 39.4963 59.2222 39.4963C59.1622 39.4963 59.1022 39.4363 59.1022 39.4363C59.0422 39.4363 58.9822 39.3762 58.9222 39.3161C58.8622 39.256 58.6822 39.1959 58.5622 39.1359C58.3822 39.0758 58.2622 38.9556 58.2022 38.9556C57.9622 38.8355 57.9022 38.8355 57.8422 38.8355C57.7822 38.8355 57.7822 38.8355 57.7822 38.7754C57.7822 38.7754 57.7222 38.7153 57.6622 38.7153C57.6022 38.7153 57.5422 38.6552 57.5422 38.6552C57.5422 38.6552 57.4822 38.5952 57.4222 38.5952C57.3622 38.5952 57.3022 38.5351 57.3022 38.5351C57.3022 38.5351 57.2422 38.475 57.1822 38.475C57.1222 38.475 57.0622 38.4149 57.0622 38.4149L57.0022 38.3549C57.0022 38.3549 56.8822 38.3549 56.8222 38.2948C56.7622 38.2347 56.7022 38.2347 56.6422 38.2347C56.5822 38.2347 56.4622 38.1746 56.3422 38.1145M66.8422 50.4306C66.8422 50.3705 66.7822 50.2504 66.7822 50.1302C66.7822 50.0101 66.7822 49.8899 66.7222 49.8298M62.4622 63.4676C63.3022 62.6265 63.4222 62.5064 63.4222 62.4463V62.3862C63.4222 62.3862 63.5422 62.2661 63.7822 61.9657C63.7822 61.9657 63.9022 61.7854 64.0222 61.6052C64.1422 61.425 64.3222 61.2447 64.3222 61.1246C64.3822 61.0645 64.4422 60.9443 64.4422 60.9443C64.4422 60.9443 64.4422 60.8843 64.5022 60.8843L64.5622 60.8242C64.5622 60.7641 64.6222 60.704 64.6222 60.704L64.6822 60.6439C64.6822 60.5839 64.7422 60.5238 64.8022 60.4637C64.8622 60.4036 64.8622 60.3435 64.9222 60.2835C64.9222 60.2234 64.9822 60.2234 64.9822 60.1633C64.9822 60.1633 65.0422 60.1032 65.0422 60.0432C65.0422 59.9831 65.0422 59.9831 65.1022 59.9831C65.1622 59.9831 65.1622 59.923 65.1622 59.8629C65.1622 59.8028 65.1622 59.8028 65.2222 59.7428L65.2822 59.6827C65.2822 59.6827 65.2822 59.5625 65.3422 59.5625C65.4022 59.5625 65.4022 59.5024 65.4022 59.4424C65.4022 59.3823 65.4022 59.3823 65.4622 59.3222C65.5222 59.2621 65.5222 59.2621 65.5222 59.2621C65.5222 59.2621 65.5822 59.142 65.6422 59.0218C65.7622 58.7815 65.7622 58.7815 65.8822 58.4811C65.9422 58.361 65.9422 58.3009 66.0022 58.2408C66.1222 58.0005 66.4222 57.0993 66.5422 56.5586C66.5422 56.4385 66.6022 56.2582 66.6622 56.1981C66.6622 56.078 66.7222 56.0179 66.7222 55.9578C66.7222 55.8977 66.7222 55.8377 66.7822 55.7175C66.7822 55.6574 66.8422 55.5373 66.8422 55.4171C66.8422 55.297 66.8422 55.2369 66.9022 55.1768C66.9022 55.1167 66.9622 54.9966 66.9622 54.8764C66.9622 54.7563 66.9622 54.6361 67.0222 54.6361C67.0822 54.6361 67.0822 54.3958 67.0822 54.1555C67.0822 53.9152 67.1422 53.6148 67.1422 53.4946C67.2022 53.2543 67.2022 51.6322 67.1422 51.3919M44.2222 66.1111L44.2822 66.1712C44.2822 66.1712 44.3422 66.1711 44.3422 66.2312C44.3422 66.2913 44.4022 66.2913 44.5222 66.3514C44.6422 66.4115 44.7022 66.4715 44.7022 66.4715C44.7022 66.4715 44.7022 66.5316 44.7622 66.5316C44.8222 66.5316 45.2422 66.7119 45.4222 66.832C45.4822 66.8921 45.5422 66.8921 45.5422 66.8921C45.5422 66.8921 45.6022 66.8921 45.6022 66.9522C45.6022 67.0123 45.6622 67.0122 45.6622 67.0122C45.7222 67.0122 45.9022 67.0723 46.2022 67.1925C46.5622 67.3126 47.8822 67.7332 48.1822 67.7933C48.3022 67.7933 48.4222 67.8533 48.4822 67.8533C48.5422 67.8533 48.6622 67.9134 48.7222 67.9134C48.7822 67.9134 48.9022 67.9134 48.9022 67.9735C48.9022 68.0336 49.0822 68.0336 49.2622 68.0336C49.4422 68.0336 49.5622 68.0937 49.6222 68.0937C49.6822 68.1537 50.8222 68.2138 51.5422 68.2138C52.3222 68.2138 53.3422 68.1537 53.4022 68.0937C53.4622 68.0937 53.5822 68.0336 53.7022 68.0336C53.8222 68.0336 54.0022 68.0336 54.0622 67.9735C54.1222 67.9134 54.2422 67.9134 54.3622 67.9134C54.4822 67.9134 54.5422 67.9134 54.6622 67.8533C54.7222 67.7933 54.8422 67.7933 54.9022 67.7933C54.9622 67.7933 55.0822 67.7933 55.1422 67.7332C55.2022 67.6731 55.5022 67.613 55.8022 67.553C56.4022 67.3727 56.8822 67.2526 57.0022 67.1925C57.0622 67.1324 57.1222 67.1324 57.1822 67.1324C57.2422 67.1324 57.3022 67.1324 57.3022 67.0723C57.3022 67.0122 57.4222 67.0122 57.4222 67.0122C57.4822 67.0122 57.5422 67.0123 57.5422 66.9522C57.6022 66.8921 57.6622 66.8921 57.6622 66.8921C57.6622 66.8921 57.7222 66.8921 57.7222 66.832C57.7222 66.832 57.7222 66.7719 57.7822 66.7719C57.8422 66.7719 58.8022 66.3514 58.8622 66.2913C58.8622 66.2913 58.9222 66.2312 59.0422 66.1712C59.1622 66.1111 59.2222 66.051 59.2822 66.051C59.3422 66.051 59.4022 65.9909 59.4622 65.9308C59.5222 65.8708 59.5822 65.8708 59.6422 65.8107C59.7022 65.7506 59.7622 65.7506 59.8222 65.6905C59.8822 65.6905 59.8822 65.6304 59.8822 65.6304C59.8822 65.6304 59.8822 65.5704 59.9422 65.5704C59.9422 65.5704 60.1822 65.4502 60.6022 65.1498M43.3822 65.5704C43.3822 65.5704 43.4422 65.6304 43.5622 65.6905C43.6222 65.7506 43.7422 65.8107 43.7422 65.8107M41.6422 64.3087C41.6422 64.3087 41.7022 64.3087 41.7022 64.3688M36.3022 54.2756C36.3022 54.4559 36.3622 54.6962 36.3622 54.7563C36.3622 54.8163 36.4222 54.9365 36.4222 54.9966C36.4222 55.0566 36.4222 55.2369 36.4822 55.357C36.5422 55.4772 36.5422 55.7175 36.6022 55.8377C36.7222 56.3183 36.9622 57.2795 37.0822 57.5199C37.0822 57.5799 37.1422 57.64 37.1422 57.7001C37.1422 57.7602 37.1422 57.8203 37.2022 57.8203C37.2622 57.8203 37.2622 57.9404 37.2622 58.0005C37.2622 58.0606 37.2622 58.0606 37.3222 58.0606C37.3222 58.0606 37.3822 58.1206 37.3822 58.1807C37.3822 58.2408 37.3822 58.3009 37.4422 58.3009C37.5022 58.3009 37.5022 58.421 37.5022 58.4811C37.5022 58.5412 37.5622 58.6013 37.5622 58.6013L37.6222 58.6614C37.6222 58.6614 37.6222 58.7815 37.6822 58.7815C37.7422 58.7815 37.7422 58.8416 37.7422 58.9017C37.7422 58.9617 37.7422 58.9617 37.8022 59.0218C37.8622 59.0819 37.8622 59.0819 37.8622 59.142C37.8622 59.2021 37.8622 59.2621 37.9222 59.2621C37.9822 59.2621 37.9822 59.3222 37.9822 59.3823C37.9822 59.4424 37.9822 59.4424 38.0422 59.5024C38.1022 59.5625 38.1022 59.5625 38.1022 59.6226C38.1022 59.6827 38.1022 59.6827 38.1622 59.6827C38.2222 59.6827 38.2222 59.7428 38.2222 59.7428C38.2222 59.7428 38.2222 59.8028 38.2822 59.8629C38.2822 59.8629 38.3422 59.923 38.3422 59.9831C38.3422 60.0432 38.4022 60.1032 38.4622 60.1633C38.5222 60.2234 38.5222 60.2835 38.5822 60.3435C38.6422 60.4036 38.6422 60.4637 38.7022 60.5238C38.7622 60.5839 38.8222 60.6439 38.8222 60.704C38.8822 60.8242 39.2422 61.425 39.3022 61.425C39.3022 61.425 39.3622 61.5451 39.4822 61.6653C39.5422 61.7854 39.6022 61.8455 39.6622 61.8455C39.7222 61.8455 39.7222 61.8455 39.7222 61.9056C39.7222 61.9056 39.7822 62.0257 39.8422 62.0858M37.1422 47.2465C37.1422 47.2465 37.1422 47.3065 37.0822 47.3666C36.9622 47.5468 36.6622 48.6883 36.5422 49.2891C36.4822 49.4694 36.4822 49.6496 36.4222 49.7697C36.3622 49.8899 36.3622 50.0101 36.3622 50.1302C36.3622 50.1903 36.3622 50.3105 36.3022 50.3705C36.2422 50.4306 36.2422 50.6709 36.2422 50.8512M39.4222 43.1611L39.3622 43.2212C39.3622 43.2212 39.3622 43.2813 39.3022 43.2813C39.1822 43.4014 38.9422 43.822 38.9422 43.822C38.9422 43.822 38.8822 43.8821 38.8822 43.9421C38.8222 44.0022 38.8222 44.0623 38.7622 44.1224C38.7622 44.1825 38.7022 44.2425 38.6422 44.3627C38.5222 44.4828 38.4622 44.603 38.4022 44.7232C38.4022 44.7832 38.3422 44.8433 38.2822 44.9034C38.2222 44.9635 38.2222 45.0236 38.1622 45.0836C38.1622 45.1437 38.1022 45.1437 38.1022 45.2038C38.1022 45.2038 38.0422 45.2639 38.0422 45.3239C38.0422 45.384 38.0422 45.384 37.9822 45.384C37.9822 45.384 37.9222 45.4441 37.9222 45.5042C37.9222 45.5643 37.8622 45.6243 37.8622 45.6243C37.8022 45.6243 37.8022 45.6844 37.8022 45.7445C37.8022 45.8046 37.8022 45.8046 37.7422 45.8647C37.6822 45.9247 37.6822 45.9247 37.6822 45.9848C37.6822 46.0449 37.6822 46.0449 37.6222 46.105C37.5622 46.165 37.5622 46.165 37.5622 46.2251C37.5622 46.2852 37.5622 46.2852 37.5022 46.3453C37.4422 46.4054 37.4422 46.4054 37.4422 46.4654C37.4422 46.5255 37.4422 46.5255 37.3822 46.5255C37.3822 46.5255 37.3222 46.5856 37.3222 46.6457C37.3222 46.7058 37.2622 46.7658 37.2622 46.8259C37.2022 46.886 37.2022 46.9461 37.2022 46.9461C37.2022 46.9461 37.2022 47.0061 37.1422 47.0662C37.0822 47.1263 37.0822 47.1263 37.0822 47.1864M42.4822 40.1572C42.4222 40.1572 42.1222 40.3975 42.1222 40.4576L42.0622 40.5177C42.0622 40.5177 42.0022 40.5177 42.0022 40.5777C42.0022 40.5777 41.9422 40.6378 41.8222 40.6979M46.3222 38.1145C46.2622 38.1145 46.2622 38.1145 46.2022 38.1746C46.2022 38.1746 46.1422 38.2347 46.0822 38.2347C46.0222 38.2347 45.9622 38.2948 45.9022 38.2948C45.8422 38.2948 45.7822 38.3549 45.7222 38.3549C45.6622 38.4149 45.5422 38.4149 45.4822 38.475C45.4222 38.5351 45.3622 38.5351 45.3022 38.5351C45.2422 38.5351 45.2422 38.5351 45.1822 38.5952C45.1222 38.6552 45.1222 38.6552 45.0622 38.6552C45.0022 38.6552 45.0022 38.6552 44.9422 38.7153C44.8822 38.7754 44.8822 38.7754 44.8222 38.7754C44.7622 38.7754 44.7622 38.7754 44.7022 38.8355C44.6422 38.8956 44.6422 38.8956 44.5822 38.8956C44.5222 38.8956 44.5222 38.8956 44.5222 38.9556C44.5222 38.9556 44.4022 39.0157 44.3422 39.0758C44.2222 39.1359 44.1622 39.1959 44.1022 39.1959C44.0422 39.1959 43.9222 39.3161 43.7422 39.4363C43.5622 39.5564 43.4422 39.6165 43.4422 39.6766L43.3822 39.7367M49.9222 37.2734C49.8022 37.3335 49.6222 37.3335 49.5622 37.3335C49.4422 37.3335 49.2622 37.3335 49.2022 37.3936C49.1422 37.4537 48.9622 37.4537 48.9022 37.4537" stroke="#4F296F" stroke-miterlimit="10"/>
</g>
<g id="Group_4">
<path id="Vector_5" d="M37.5 32.707C38.3284 32.707 39 32.0346 39 31.2051C39 30.3756 38.3284 29.7031 37.5 29.7031C36.6716 29.7031 36 30.3756 36 31.2051C36 32.0346 36.6716 32.707 37.5 32.707Z" fill="#8887C3"/>
<path id="Vector_6" d="M46.8594 32.707C47.6878 32.707 48.3594 32.0346 48.3594 31.2051C48.3594 30.3756 47.6878 29.7031 46.8594 29.7031C46.0309 29.7031 45.3594 30.3756 45.3594 31.2051C45.3594 32.0346 46.0309 32.707 46.8594 32.707Z" fill="#8887C3"/>
<path id="Vector_7" d="M56.2812 32.707C57.1097 32.707 57.7812 32.0346 57.7812 31.2051C57.7812 30.3756 57.1097 29.7031 56.2812 29.7031C55.4528 29.7031 54.7812 30.3756 54.7812 31.2051C54.7812 32.0346 55.4528 32.707 56.2812 32.707Z" fill="#8887C3"/>
<path id="Vector_8" d="M65.6992 32.707C66.5276 32.707 67.1992 32.0346 67.1992 31.2051C67.1992 30.3756 66.5276 29.7031 65.6992 29.7031C64.8708 29.7031 64.1992 30.3756 64.1992 31.2051C64.1992 32.0346 64.8708 32.707 65.6992 32.707Z" fill="#8887C3"/>
</g>
<g id="Group_5">
<path id="Vector_9" d="M37.5 25.0781C38.3284 25.0781 39 24.4057 39 23.5762C39 22.7467 38.3284 22.0742 37.5 22.0742C36.6716 22.0742 36 22.7467 36 23.5762C36 24.4057 36.6716 25.0781 37.5 25.0781Z" fill="#8887C3"/>
<path id="Vector_10" d="M46.8594 25.0781C47.6878 25.0781 48.3594 24.4057 48.3594 23.5762C48.3594 22.7467 47.6878 22.0742 46.8594 22.0742C46.0309 22.0742 45.3594 22.7467 45.3594 23.5762C45.3594 24.4057 46.0309 25.0781 46.8594 25.0781Z" fill="#8887C3"/>
<path id="Vector_11" d="M56.2812 25.0781C57.1097 25.0781 57.7812 24.4057 57.7812 23.5762C57.7812 22.7467 57.1097 22.0742 56.2812 22.0742C55.4528 22.0742 54.7812 22.7467 54.7812 23.5762C54.7812 24.4057 55.4528 25.0781 56.2812 25.0781Z" fill="#8887C3"/>
<path id="Vector_12" d="M65.6992 25.0781C66.5276 25.0781 67.1992 24.4057 67.1992 23.5762C67.1992 22.7467 66.5276 22.0742 65.6992 22.0742C64.8708 22.0742 64.1992 22.7467 64.1992 23.5762C64.1992 24.4057 64.8708 25.0781 65.6992 25.0781Z" fill="#8887C3"/>
</g>
<g id="Group_6">
<path id="Vector_13" d="M37.5 82.5742C38.3284 82.5742 39 81.9018 39 81.0723C39 80.2428 38.3284 79.5703 37.5 79.5703C36.6716 79.5703 36 80.2428 36 81.0723C36 81.9018 36.6716 82.5742 37.5 82.5742Z" fill="#8887C3"/>
<path id="Vector_14" d="M46.8594 82.5742C47.6878 82.5742 48.3594 81.9018 48.3594 81.0723C48.3594 80.2428 47.6878 79.5703 46.8594 79.5703C46.0309 79.5703 45.3594 80.2428 45.3594 81.0723C45.3594 81.9018 46.0309 82.5742 46.8594 82.5742Z" fill="#8887C3"/>
<path id="Vector_15" d="M56.2812 82.5742C57.1097 82.5742 57.7812 81.9018 57.7812 81.0723C57.7812 80.2428 57.1097 79.5703 56.2812 79.5703C55.4528 79.5703 54.7812 80.2428 54.7812 81.0723C54.7812 81.9018 55.4528 82.5742 56.2812 82.5742Z" fill="#8887C3"/>
<path id="Vector_16" d="M65.6992 82.5742C66.5276 82.5742 67.1992 81.9018 67.1992 81.0723C67.1992 80.2428 66.5276 79.5703 65.6992 79.5703C64.8708 79.5703 64.1992 80.2428 64.1992 81.0723C64.1992 81.9018 64.8708 82.5742 65.6992 82.5742Z" fill="#8887C3"/>
</g>
<g id="Group_7">
<path id="Vector_17" d="M37.5 75.6055C38.3284 75.6055 39 74.933 39 74.1035C39 73.274 38.3284 72.6016 37.5 72.6016C36.6716 72.6016 36 73.274 36 74.1035C36 74.933 36.6716 75.6055 37.5 75.6055Z" fill="#8887C3"/>
<path id="Vector_18" d="M46.8594 75.6055C47.6878 75.6055 48.3594 74.933 48.3594 74.1035C48.3594 73.274 47.6878 72.6016 46.8594 72.6016C46.0309 72.6016 45.3594 73.274 45.3594 74.1035C45.3594 74.933 46.0309 75.6055 46.8594 75.6055Z" fill="#8887C3"/>
<path id="Vector_19" d="M56.2812 75.6055C57.1097 75.6055 57.7812 74.933 57.7812 74.1035C57.7812 73.274 57.1097 72.6016 56.2812 72.6016C55.4528 72.6016 54.7812 73.274 54.7812 74.1035C54.7812 74.933 55.4528 75.6055 56.2812 75.6055Z" fill="#8887C3"/>
<path id="Vector_20" d="M65.6992 75.6055C66.5276 75.6055 67.1992 74.933 67.1992 74.1035C67.1992 73.274 66.5276 72.6016 65.6992 72.6016C64.8708 72.6016 64.1992 73.274 64.1992 74.1035C64.1992 74.933 64.8708 75.6055 65.6992 75.6055Z" fill="#8887C3"/>
</g>
</g>
</g>
</g>
</svg>
