<svg width="8" height="12" viewBox="0 0 8 12" fill="none" xmlns="http://www.w3.org/2000/svg">
<path d="M2.99091 5.99998L6.79526 9.80433C7.00649 10.0156 7.11211 10.2808 7.11211 10.6C7.11211 10.9192 7.00649 11.1844 6.79526 11.3956C6.58403 11.6069 6.31881 11.7125 5.99961 11.7125C5.68041 11.7125 5.41519 11.6069 5.20396 11.3956L0.609934 6.8016C0.497984 6.68965 0.416193 6.56538 0.364559 6.42878C0.312926 6.29219 0.287109 6.14926 0.287109 5.99998C0.287109 5.85069 0.312926 5.70776 0.364559 5.57118C0.416193 5.43458 0.497984 5.3103 0.609934 5.19835L5.20396 0.604326C5.41519 0.393093 5.68041 0.287476 5.99961 0.287476C6.31881 0.287476 6.58403 0.393093 6.79526 0.604326C7.00649 0.815559 7.11211 1.08078 7.11211 1.39998C7.11211 1.71918 7.00649 1.98439 6.79526 2.19563L2.99091 5.99998Z" fill="#673391"/>
</svg>
