<svg width="25" height="24" viewBox="0 0 25 24" fill="none" xmlns="http://www.w3.org/2000/svg">
<g id="IC / keyboard_arrow_down">
<mask id="mask0_3053_3633" style="mask-type:alpha" maskUnits="userSpaceOnUse" x="0" y="0" width="25" height="24">
<rect id="Bounding box" x="0.5" width="24" height="24" fill="#D9D9D9"/>
</mask>
<g mask="url(#mask0_3053_3633)">
<path id="keyboard_arrow_down" d="M12.5 15.1126C12.3507 15.1126 12.2078 15.0868 12.0712 15.0351C11.9346 14.9835 11.8103 14.9017 11.6984 14.7898L7.10433 10.1957C6.89309 9.98451 6.78748 9.7193 6.78748 9.4001C6.78748 9.0809 6.89309 8.81568 7.10433 8.60445C7.31556 8.39321 7.58078 8.2876 7.89998 8.2876C8.21918 8.2876 8.48439 8.39321 8.69563 8.60445L12.5 12.4088L16.3043 8.60445C16.5156 8.39321 16.7808 8.2876 17.1 8.2876C17.4192 8.2876 17.6844 8.39321 17.8956 8.60445C18.1069 8.81568 18.2125 9.0809 18.2125 9.4001C18.2125 9.7193 18.1069 9.98451 17.8956 10.1957L13.3016 14.7898C13.1897 14.9017 13.0654 14.9835 12.9288 15.0351C12.7922 15.0868 12.6493 15.1126 12.5 15.1126Z" fill="#673391"/>
</g>
</g>
</svg>
