<svg width="24" height="24" viewBox="0 0 24 24" fill="none" xmlns="http://www.w3.org/2000/svg">
<mask id="mask0_947_2800" style="mask-type:alpha" maskUnits="userSpaceOnUse" x="0" y="0" width="24" height="24">
<rect width="24" height="24" fill="#D9D9D9"/>
</mask>
<g mask="url(#mask0_947_2800)">
<path d="M12.4087 12L8.60433 8.19565C8.39309 7.98441 8.28748 7.7192 8.28748 7.4C8.28748 7.0808 8.39309 6.81558 8.60433 6.60435C8.81556 6.39312 9.08078 6.2875 9.39998 6.2875C9.71918 6.2875 9.98439 6.39312 10.1956 6.60435L14.7896 11.1984C14.9016 11.3103 14.9834 11.4346 15.035 11.5712C15.0867 11.7078 15.1125 11.8507 15.1125 12C15.1125 12.1493 15.0867 12.2922 15.035 12.4288C14.9834 12.5654 14.9016 12.6897 14.7896 12.8016L10.1956 17.3956C9.98439 17.6069 9.71918 17.7125 9.39998 17.7125C9.08078 17.7125 8.81556 17.6069 8.60433 17.3956C8.39309 17.1844 8.28748 16.9192 8.28748 16.6C8.28748 16.2808 8.39309 16.0156 8.60433 15.8043L12.4087 12Z" fill="#FCFCFC"/>
</g>
</svg>
