<svg width="31" height="36" viewBox="0 0 31 36" fill="none" xmlns="http://www.w3.org/2000/svg">
<g id="Group 1244829152">
<path id="Vector" d="M21.1 33C23.7 30.8 25.9 28.2 27.5 25.2C29.2 22.2 30 19 30 15.5C30 12 28.6 8 25.8 5.2C23 2.4 19.6 1 15.5 1C11.4 1 8 2.4 5.2 5.2C2.4 8 1 11.4 1 15.5C1 19.6 2.4 23 5.2 25.8C8 28.6 11.4 30 15.5 30H21.1V33Z" stroke="url(#paint0_linear_271_4147)" stroke-width="2" stroke-miterlimit="10"/>
<g id="Group">
<path id="Vector_2" d="M15.4369 23.9999C15.9097 23.9999 16.3824 23.7948 16.737 23.4871C17.0916 23.1794 17.328 22.7692 17.328 22.3589C17.328 21.9487 17.0916 21.5384 16.737 21.2307C16.3824 20.923 15.9097 20.7179 15.4369 20.7179C14.9642 20.7179 14.4914 20.923 14.1368 21.2307C13.7823 21.5384 13.5459 21.9487 13.5459 22.3589C13.5459 22.7692 13.7823 23.1794 14.1368 23.4871C14.4914 23.7948 14.9642 23.9999 15.4369 23.9999Z" fill="#BBBADD"/>
<path id="Vector_3" d="M14.0184 18.8717H16.7368C16.7368 18.0512 16.7368 17.5384 16.9732 17.2307C17.2095 16.923 17.8005 16.3076 18.746 15.4871C19.6915 14.6666 19.8097 14.4615 20.1643 13.9487C20.5188 13.4358 20.7552 12.8205 20.7552 12.1025C20.7552 10.7692 20.1643 9.74357 19.1006 9.02563C18.0369 8.30769 16.7368 8 15.3185 8C13.9002 8 12.8365 8.30769 11.891 9.02563C10.9455 9.74357 10.3546 10.4615 10 11.3846L12.6002 12.3076C12.7184 11.8974 13.0729 11.3846 13.4275 10.9743C13.7821 10.5641 14.4912 10.359 15.3185 10.359C16.1458 10.359 16.7368 10.5641 17.2095 10.9743C17.6823 11.3846 17.8005 11.7948 17.8005 12.3076C17.8005 12.8205 17.6823 13.1282 17.3277 13.5384C16.9732 13.9487 16.6186 14.2563 16.264 14.6666C15.2003 15.4871 14.4912 16.1025 14.2548 16.6153C14.0184 17.1281 13.9002 17.9486 13.9002 19.0768L14.0184 18.8717Z" fill="#BBBADD"/>
</g>
</g>
<defs>
<linearGradient id="paint0_linear_271_4147" x1="0.3" y1="17.4" x2="30.7" y2="17.4" gradientUnits="userSpaceOnUse">
<stop offset="0.2" stop-color="#673391"/>
<stop offset="1" stop-color="#B22382"/>
</linearGradient>
</defs>
</svg>
