<svg width="24" height="25" viewBox="0 0 24 25" fill="none" xmlns="http://www.w3.org/2000/svg">
<g id="IC / location_on">
<mask id="mask0_665_14735" style="mask-type:alpha" maskUnits="userSpaceOnUse" x="0" y="0" width="24" height="25">
<rect id="Bounding box" y="0.5" width="24" height="24" fill="#D9D9D9"/>
</mask>
<g mask="url(#mask0_665_14735)">
<path id="location_on" d="M12.0001 19.6887C14.0056 17.8539 15.495 16.199 16.4684 14.7238C17.4417 13.2486 17.9284 11.8994 17.9284 10.6762C17.9284 8.88759 17.3561 7.42304 16.2116 6.28257C15.0671 5.14212 13.6632 4.5719 11.9999 4.5719C10.3367 4.5719 8.93286 5.14212 7.78847 6.28257C6.64409 7.42304 6.0719 8.88759 6.0719 10.6762C6.0719 11.8994 6.55858 13.2476 7.53195 14.7208C8.50532 16.194 9.99472 17.85 12.0001 19.6887ZM11.9987 21.9925C11.7504 21.9925 11.5024 21.9489 11.2548 21.8616C11.0071 21.7743 10.786 21.6433 10.5915 21.4686C9.4842 20.4567 8.50594 19.4737 7.65667 18.5197C6.80739 17.5657 6.0986 16.6389 5.5303 15.7393C4.96202 14.8396 4.53104 13.9684 4.23737 13.1254C3.94371 12.2825 3.79688 11.4661 3.79688 10.6762C3.79688 8.12156 4.62147 6.08633 6.27067 4.57055C7.91988 3.05477 9.8297 2.29688 12.0001 2.29688C14.1706 2.29688 16.0804 3.05477 17.7296 4.57055C19.3788 6.08633 20.2034 8.12156 20.2034 10.6762C20.2034 11.4661 20.0566 12.2825 19.7629 13.1254C19.4693 13.9684 19.0383 14.8396 18.47 15.7393C17.9017 16.6389 17.1929 17.5657 16.3436 18.5197C15.4944 19.4737 14.5161 20.4567 13.4089 21.4686C13.2137 21.6433 12.992 21.7743 12.7437 21.8616C12.4954 21.9489 12.247 21.9925 11.9987 21.9925ZM12.0001 12.5599C12.5701 12.5599 13.0559 12.3591 13.4575 11.9575C13.8591 11.5559 14.0599 11.0701 14.0599 10.5001C14.0599 9.93022 13.8591 9.44443 13.4575 9.0428C13.0559 8.64118 12.5701 8.44037 12.0001 8.44037C11.4302 8.44037 10.9444 8.64118 10.5428 9.0428C10.1412 9.44443 9.94038 9.93022 9.94038 10.5001C9.94038 11.0701 10.1412 11.5559 10.5428 11.9575C10.9444 12.3591 11.4302 12.5599 12.0001 12.5599Z" fill="#673391"/>
</g>
</g>
</svg>
