<svg width="24" height="24" viewBox="0 0 24 24" fill="none" xmlns="http://www.w3.org/2000/svg">
<path d="M4.31 19.5C3.8 19.5 3.38 19.32 3.03 18.97C2.68 18.62 2.5 18.19 2.5 17.69V6.31C2.5 5.8 2.68 5.38 3.03 5.03C3.38 4.68 3.81 4.5 4.31 4.5H19.69C20.2 4.5 20.62 4.68 20.97 5.03C21.32 5.38 21.5 5.81 21.5 6.31V17.69C21.5 18.2 21.32 18.62 20.97 18.97C20.62 19.32 20.19 19.5 19.69 19.5H4.31ZM20 7.44L12.49 12.25C12.41 12.29 12.33 12.33 12.25 12.35C12.17 12.38 12.09 12.39 12 12.39C11.92 12.39 11.83 12.38 11.75 12.35C11.67 12.33 11.59 12.29 11.51 12.25L4 7.44V17.69C4 17.78 4.03 17.85 4.09 17.91C4.15 17.97 4.22 18 4.31 18H19.69C19.78 18 19.85 17.97 19.91 17.91C19.97 17.85 20 17.78 20 17.69V7.44ZM12 11L19.85 6H4.15L12 11ZM4 7.44V7.67V6.53V7.68V7.45V18.01V7.44Z" fill="#673391"/>
</svg>
