<svg width="20" height="20" viewBox="0 0 20 20" fill="none" xmlns="http://www.w3.org/2000/svg">
<g id="IC / my_location">
<mask id="mask0_3951_18922" style="mask-type:alpha" maskUnits="userSpaceOnUse" x="0" y="0" width="20" height="20">
<rect id="Bounding box" width="20" height="20" fill="#D9D9D9"/>
</mask>
<g mask="url(#mask0_3951_18922)">
<path id="my_location" d="M9.0912 18.3763V17.6177C7.34513 17.42 5.83894 16.6863 4.57264 15.4167C3.30633 14.147 2.57595 12.6442 2.38151 10.9081H1.62291C1.36561 10.9081 1.14995 10.821 0.975906 10.647C0.801865 10.4729 0.714844 10.2573 0.714844 9.99999C0.714844 9.74271 0.801858 9.52705 0.975885 9.35299C1.14994 9.17895 1.36561 9.09193 1.62291 9.09193H2.38151C2.57927 7.34586 3.31297 5.83967 4.58259 4.57337C5.85222 3.30706 7.35509 2.57669 9.0912 2.38224V1.62364C9.0912 1.36635 9.17822 1.15068 9.35226 0.976639C9.52632 0.802597 9.74198 0.715576 9.99926 0.715576C10.2565 0.715576 10.4722 0.802597 10.6463 0.976639C10.8203 1.15068 10.9073 1.36635 10.9073 1.62364V2.38224C12.6434 2.57669 14.1463 3.30706 15.4159 4.57337C16.6856 5.83967 17.4192 7.34586 17.617 9.09193H18.3756C18.6329 9.09193 18.8486 9.17895 19.0226 9.35299C19.1967 9.52705 19.2837 9.74271 19.2837 9.99999C19.2837 10.2573 19.1967 10.4729 19.0226 10.647C18.8486 10.821 18.6329 10.9081 18.3756 10.9081H17.617C17.4226 12.6442 16.6922 14.147 15.4259 15.4167C14.1596 16.6863 12.6534 17.42 10.9073 17.6177V18.3763C10.9073 18.6336 10.8203 18.8493 10.6463 19.0233C10.4722 19.1974 10.2565 19.2844 9.99926 19.2844C9.74198 19.2844 9.52632 19.1974 9.35226 19.0234C9.17822 18.8493 9.0912 18.6336 9.0912 18.3763ZM9.99926 15.7735C11.5971 15.7735 12.9588 15.2107 14.0844 14.0851C15.21 12.9595 15.7728 11.5978 15.7728 9.99999C15.7728 8.40217 15.21 7.04046 14.0844 5.91485C12.9588 4.78925 11.5971 4.22645 9.99926 4.22645C8.40144 4.22645 7.03973 4.78925 5.91411 5.91485C4.78852 7.04046 4.22572 8.40217 4.22572 9.99999C4.22572 11.5978 4.78852 12.9595 5.91411 14.0851C7.03973 15.2107 8.40144 15.7735 9.99926 15.7735ZM9.99926 13.3333C9.08259 13.3333 8.29787 13.0069 7.64509 12.3542C6.99232 11.7014 6.66593 10.9167 6.66593 9.99999C6.66593 9.08333 6.99232 8.2986 7.64509 7.64583C8.29787 6.99305 9.08259 6.66666 9.99926 6.66666C10.9159 6.66666 11.7007 6.99305 12.3534 7.64583C13.0062 8.2986 13.3326 9.08333 13.3326 9.99999C13.3326 10.9167 13.0062 11.7014 12.3534 12.3542C11.7007 13.0069 10.9159 13.3333 9.99926 13.3333ZM9.99851 11.5122C10.4142 11.5122 10.7702 11.3642 11.0667 11.0682C11.3632 10.7722 11.5115 10.4164 11.5115 10.0007C11.5115 9.58509 11.3635 9.22901 11.0675 8.93251C10.7715 8.63601 10.4157 8.48776 10 8.48776C9.58436 8.48776 9.22828 8.63576 8.93178 8.93176C8.63528 9.22776 8.48703 9.58359 8.48703 9.99924C8.48703 10.4149 8.63503 10.771 8.93103 11.0675C9.22703 11.364 9.58286 11.5122 9.99851 11.5122Z" fill="#BBBADD"/>
</g>
</g>
</svg>
