<svg width="20" height="21" viewBox="0 0 20 21" fill="none" xmlns="http://www.w3.org/2000/svg">
<circle cx="10" cy="10.5" r="8" fill="#FF8C00"/>
<mask id="mask0_2615_3087" style="mask-type:alpha" maskUnits="userSpaceOnUse" x="4" y="4" width="12" height="13">
<rect x="4" y="4.5" width="12" height="12" fill="#D9D9D9"/>
</mask>
<g mask="url(#mask0_2615_3087)">
<path d="M10.0004 15.1614C9.69981 15.1614 9.44262 15.0544 9.22885 14.8403C9.01509 14.6262 8.9082 14.3689 8.9082 14.0683C8.9082 13.7677 9.01524 13.5105 9.2293 13.2967C9.44337 13.083 9.70071 12.9761 10.0013 12.9761C10.3019 12.9761 10.5591 13.0831 10.7729 13.2972C10.9866 13.5112 11.0935 13.7686 11.0935 14.0692C11.0935 14.3698 10.9865 14.627 10.7724 14.8408C10.5584 15.0545 10.301 15.1614 10.0004 15.1614ZM10.0024 11.9761C9.71441 11.9761 9.46803 11.8738 9.26323 11.6692C9.05843 11.4645 8.95603 11.2186 8.95603 10.9312V6.90733C8.95603 6.61999 9.05793 6.37402 9.26174 6.1694C9.46554 5.96479 9.71142 5.86249 9.99937 5.86249C10.2873 5.86249 10.5337 5.96479 10.7385 6.1694C10.9433 6.37402 11.0457 6.61999 11.0457 6.90733V10.9312C11.0457 11.2186 10.9438 11.4645 10.74 11.6692C10.5362 11.8738 10.2903 11.9761 10.0024 11.9761Z" fill="#FCFCFC"/>
</g>
</svg>
