<svg width="32" height="32" viewBox="0 0 32 32" fill="none" xmlns="http://www.w3.org/2000/svg">
<g id="Icon">
<path id="Vector" d="M26.6823 27.2C26.3985 27.2 26.1631 26.9764 26.1631 26.6918V23.4396C26.1631 23.3583 26.1631 23.277 26.1562 23.1957C26.1146 22.9179 26.3154 22.6672 26.5993 22.6266C26.8831 22.5859 27.1393 22.7824 27.1808 23.0602C27.1946 23.1822 27.2016 23.3109 27.2016 23.4396V26.6918C27.2016 26.9696 26.9731 27.2 26.6823 27.2ZM6.12079 27.2C5.83695 27.2 5.60156 26.9764 5.60156 26.6918V23.4396C5.60156 20.4313 8.10079 17.9922 11.1746 17.9922H21.6285C22.9093 17.9922 24.1554 18.4326 25.1454 19.2321C25.3669 19.4083 25.3946 19.7267 25.2146 19.9435C25.0346 20.1603 24.7093 20.1874 24.4877 20.0113C23.6846 19.3608 22.6669 19.0017 21.6285 19.0017H11.1746C8.67541 19.0017 6.6331 20.9937 6.6331 23.4396V26.6918C6.6331 26.9696 6.40464 27.2 6.11387 27.2H6.12079ZM16.09 16.4948C13.0023 16.4948 10.5862 14.1031 10.5862 11.0474C10.5862 7.99169 13.0508 5.59998 16.09 5.59998C19.1293 5.59998 21.5869 7.99169 21.5869 11.0474C21.5869 14.1031 19.1708 16.4948 16.09 16.4948ZM16.09 6.60951C13.6254 6.60951 11.6177 8.60148 11.6177 11.0474C11.6177 13.4933 13.5839 15.4853 16.09 15.4853C18.5962 15.4853 20.5554 13.534 20.5554 11.0474C20.5554 8.56083 18.5962 6.60951 16.09 6.60951Z" fill="white"/>
<path id="Vector_2" d="M23.6592 24C23.6592 24 23.6177 24 23.5969 24C23.4447 23.9818 23.3063 23.903 23.2233 23.7879L21.6802 21.5943C21.5279 21.3822 21.604 21.1035 21.8462 20.9762C22.0884 20.8429 22.4067 20.9096 22.552 21.1217L23.763 22.8365L27.9287 19.328C28.1363 19.1523 28.4615 19.1584 28.6553 19.3402C28.856 19.522 28.849 19.8067 28.6414 19.9764L24.0121 23.8727C23.9152 23.9515 23.7838 24 23.6523 24H23.6592Z" fill="white"/>
</g>
</svg>
