<svg width="20" height="20" viewBox="0 0 20 20" fill="none" xmlns="http://www.w3.org/2000/svg">
<circle cx="10" cy="10" r="8" fill="#FF8C00"/>
<mask id="mask0_2079_100629" style="mask-type:alpha" maskUnits="userSpaceOnUse" x="4" y="4" width="12" height="12">
<rect x="4" y="4" width="12" height="12" fill="#D9D9D9"/>
</mask>
<g mask="url(#mask0_2079_100629)">
<path d="M10.0004 14.6612C9.69981 14.6612 9.44262 14.5542 9.22885 14.3401C9.01509 14.1261 8.9082 13.8687 8.9082 13.5681C8.9082 13.2675 9.01524 13.0103 9.2293 12.7965C9.44337 12.5828 9.70071 12.4759 10.0013 12.4759C10.3019 12.4759 10.5591 12.5829 10.7729 12.797C10.9866 13.0111 11.0935 13.2684 11.0935 13.569C11.0935 13.8696 10.9865 14.1268 10.7724 14.3406C10.5584 14.5543 10.301 14.6612 10.0004 14.6612ZM10.0024 11.4759C9.71441 11.4759 9.46803 11.3736 9.26323 11.169C9.05843 10.9644 8.95603 10.7184 8.95603 10.4311V6.40714C8.95603 6.11981 9.05793 5.87383 9.26174 5.66922C9.46554 5.46461 9.71142 5.3623 9.99937 5.3623C10.2873 5.3623 10.5337 5.46461 10.7385 5.66922C10.9433 5.87383 11.0457 6.11981 11.0457 6.40714V10.4311C11.0457 10.7184 10.9438 10.9644 10.74 11.169C10.5362 11.3736 10.2903 11.4759 10.0024 11.4759Z" fill="#FCFCFC"/>
</g>
</svg>
