<svg width="24" height="24" viewBox="0 0 24 24" fill="none" xmlns="http://www.w3.org/2000/svg">
<g id="IC / search">
<mask id="mask0_5240_1592" style="mask-type:alpha" maskUnits="userSpaceOnUse" x="0" y="0" width="24" height="24">
<rect id="Bounding box" width="24" height="24" fill="#D9D9D9"/>
</mask>
<g mask="url(#mask0_5240_1592)">
<path id="search" d="M9.45391 16.1375C7.60137 16.1375 6.03199 15.4944 4.74576 14.2082C3.45952 12.922 2.81641 11.3526 2.81641 9.50005C2.81641 7.64752 3.45952 6.07813 4.74576 4.7919C6.03199 3.50567 7.60137 2.86255 9.45391 2.86255C11.3064 2.86255 12.8758 3.50567 14.1621 4.7919C15.4483 6.07813 16.0914 7.64752 16.0914 9.50005C16.0914 10.2413 15.9787 10.934 15.7534 11.578C15.528 12.2221 15.2233 12.7901 14.8392 13.2821L20.3914 18.8403C20.6026 19.0555 20.7083 19.3217 20.7083 19.6389C20.7083 19.9561 20.6007 20.2203 20.3854 20.4316C20.1742 20.6428 19.909 20.7484 19.5898 20.7484C19.2706 20.7484 19.0054 20.6428 18.7941 20.4316L13.2479 14.8854C12.7519 15.2694 12.1799 15.5741 11.5319 15.7995C10.8839 16.0249 10.1912 16.1375 9.45391 16.1375ZM9.45391 13.8625C10.668 13.8625 11.6987 13.439 12.5458 12.5919C13.3929 11.7448 13.8164 10.7142 13.8164 9.50005C13.8164 8.28592 13.3929 7.2553 12.5458 6.4082C11.6987 5.5611 10.668 5.13755 9.45391 5.13755C8.23977 5.13755 7.20916 5.5611 6.36206 6.4082C5.51496 7.2553 5.09141 8.28592 5.09141 9.50005C5.09141 10.7142 5.51496 11.7448 6.36206 12.5919C7.20916 13.439 8.23977 13.8625 9.45391 13.8625Z" fill="#FCFCFC"/>
</g>
</g>
</svg>
