<svg width="16" height="16" viewBox="0 0 16 16" fill="none" xmlns="http://www.w3.org/2000/svg">
<circle cx="8.00034" cy="7.99985" r="6.4" fill="#ED1C24"/>
<path d="M8.00038 11.1693C7.83539 11.1693 7.69414 11.1105 7.57664 10.993C7.45914 10.8755 7.40039 10.7343 7.40039 10.5693C7.40039 10.4043 7.45914 10.263 7.57664 10.1455C7.69414 10.028 7.83539 9.9693 8.00038 9.9693C8.16537 9.9693 8.30662 10.028 8.42412 10.1455C8.54162 10.263 8.60037 10.4043 8.60037 10.5693C8.60037 10.7343 8.54162 10.8755 8.42412 10.993C8.30662 11.1105 8.16537 11.1693 8.00038 11.1693ZM7.99977 9.20776C7.84941 9.20776 7.7209 9.15429 7.61424 9.04734C7.50757 8.94039 7.45424 8.81182 7.45424 8.66163V5.17699C7.45424 5.0268 7.50778 4.89823 7.61485 4.79128C7.72192 4.68433 7.85064 4.63086 8.00099 4.63086C8.15135 4.63086 8.27986 4.68433 8.38652 4.79128C8.49319 4.89823 8.54652 5.0268 8.54652 5.17699V8.66163C8.54652 8.81182 8.49298 8.94039 8.38591 9.04734C8.27884 9.15429 8.15012 9.20776 7.99977 9.20776Z" fill="white"/>
</svg>
