<?xml version="1.0" encoding="UTF-8"?>
<svg id="Layer_2" data-name="Layer 2" xmlns="http://www.w3.org/2000/svg" viewBox="0 0 600 49">
  <rect x="39.518" y="1.483" width="3.662" height="46.035" rx="1.669" ry="1.669" fill="#c9c9c9" stroke-width="0"/>
  <rect x="171.246" y="1.483" width="3.662" height="46.035" rx="1.669" ry="1.669" fill="#c9c9c9" stroke-width="0"/>
  <rect x="329.319" y="1.483" width="3.662" height="46.035" rx="1.669" ry="1.669" fill="#c9c9c9" stroke-width="0"/>
  <rect x="408.356" y="1.483" width="3.662" height="46.035" rx="1.669" ry="1.669" fill="#c9c9c9" stroke-width="0"/>
  <rect x="26.346" y="6.818" width="3.238" height="36.2" rx="1.619" ry="1.619" fill="#c9c9c9" stroke-width="0"/>
  <rect x="158.073" y="6.818" width="3.238" height="36.2" rx="1.619" ry="1.619" fill="#c9c9c9" stroke-width="0"/>
  <rect x="316.146" y="6.818" width="3.238" height="36.2" rx="1.619" ry="1.619" fill="#c9c9c9" stroke-width="0"/>
  <rect x="13.173" y="17.97" width="3.238" height="13.85" rx="1.619" ry="1.619" fill="#c9c9c9" stroke-width="0"/>
  <rect x="65.864" y="17.283" width="3.238" height="15.523" rx="1.619" ry="1.619" fill="#c9c9c9" stroke-width="0"/>
  <rect x="92.209" y="17.283" width="3.238" height="15.523" rx="1.619" ry="1.619" fill="#c9c9c9" stroke-width="0"/>
  <rect x="144.9" y="17.283" width="3.238" height="15.523" rx="1.619" ry="1.619" fill="#c9c9c9" stroke-width="0"/>
  <rect x="197.591" y="17.283" width="3.238" height="15.523" rx="1.619" ry="1.619" fill="#c9c9c9" stroke-width="0"/>
  <rect x="302.974" y="17.283" width="3.238" height="15.523" rx="1.619" ry="1.619" fill="#c9c9c9" stroke-width="0"/>
  <rect x="342.492" y="17.283" width="3.238" height="15.523" rx="1.619" ry="1.619" fill="#c9c9c9" stroke-width="0"/>
  <rect x="355.665" y="17.283" width="3.238" height="15.523" rx="1.619" ry="1.619" fill="#c9c9c9" stroke-width="0"/>
  <rect x="382.01" y="17.283" width="3.238" height="15.523" rx="1.619" ry="1.619" fill="#c9c9c9" stroke-width="0"/>
  <rect x="421.528" y="17.283" width="3.238" height="15.523" rx="1.619" ry="1.619" fill="#c9c9c9" stroke-width="0"/>
  <rect x="434.701" y="17.283" width="3.238" height="15.523" rx="1.619" ry="1.619" fill="#c9c9c9" stroke-width="0"/>
  <rect x="461.047" y="17.283" width="3.238" height="15.523" rx="1.619" ry="1.619" fill="#c9c9c9" stroke-width="0"/>
  <rect x="513.738" y="17.283" width="3.238" height="15.523" rx="1.619" ry="1.619" fill="#c9c9c9" stroke-width="0"/>
  <rect x="553.256" y="17.283" width="3.238" height="15.523" rx="1.619" ry="1.619" fill="#c9c9c9" stroke-width="0"/>
  <rect x="395.183" y="6.798" width="3.238" height="35.507" rx="1.619" ry="1.619" fill="#c9c9c9" stroke-width="0"/>
  <rect x="263.455" y="17.283" width="3.238" height="15.523" rx="1.619" ry="1.619" fill="#c9c9c9" stroke-width="0"/>
  <rect x="184.419" y="14.921" width="3.238" height="19.487" rx="1.619" ry="1.619" fill="#c9c9c9" stroke-width="0"/>
  <rect x="79.037" y="20.159" width="3.238" height="9.711" rx="1.619" ry="1.619" fill="#c9c9c9" stroke-width="0"/>
  <rect x="105.382" y="20.159" width="3.238" height="9.711" rx="1.619" ry="1.619" fill="#c9c9c9" stroke-width="0"/>
  <rect x="118.555" y="20.159" width="3.238" height="9.711" rx="1.619" ry="1.619" fill="#c9c9c9" stroke-width="0"/>
  <rect x="131.728" y="20.159" width="3.238" height="9.711" rx="1.619" ry="1.619" fill="#c9c9c9" stroke-width="0"/>
  <rect x="210.764" y="20.159" width="3.238" height="9.711" rx="1.619" ry="1.619" fill="#c9c9c9" stroke-width="0"/>
  <rect x="223.937" y="20.159" width="3.238" height="9.711" rx="1.619" ry="1.619" fill="#c9c9c9" stroke-width="0"/>
  <rect x="237.11" y="20.159" width="3.238" height="9.711" rx="1.619" ry="1.619" fill="#c9c9c9" stroke-width="0"/>
  <rect x="250.282" y="20.159" width="3.238" height="9.711" rx="1.619" ry="1.619" fill="#c9c9c9" stroke-width="0"/>
  <rect x="276.628" y="20.159" width="3.238" height="9.711" rx="1.619" ry="1.619" fill="#c9c9c9" stroke-width="0"/>
  <rect x="289.801" y="20.159" width="3.238" height="9.711" rx="1.619" ry="1.619" fill="#c9c9c9" stroke-width="0"/>
  <rect x="368.837" y="20.159" width="3.238" height="9.711" rx="1.619" ry="1.619" fill="#c9c9c9" stroke-width="0"/>
  <rect x="447.874" y="20.159" width="3.238" height="9.711" rx="1.619" ry="1.619" fill="#c9c9c9" stroke-width="0"/>
  <rect x="474.219" y="20.159" width="3.238" height="9.711" rx="1.619" ry="1.619" fill="#c9c9c9" stroke-width="0"/>
  <rect x="487.392" y="20.159" width="3.238" height="9.711" rx="1.619" ry="1.619" fill="#c9c9c9" stroke-width="0"/>
  <rect x="500.565" y="20.159" width="3.238" height="9.711" rx="1.619" ry="1.619" fill="#c9c9c9" stroke-width="0"/>
  <rect x="526.91" y="20.159" width="3.238" height="9.711" rx="1.619" ry="1.619" fill="#c9c9c9" stroke-width="0"/>
  <rect x="540.083" y="20.159" width="3.238" height="9.711" rx="1.619" ry="1.619" fill="#c9c9c9" stroke-width="0"/>
  <rect x="566.429" y="20.159" width="3.238" height="9.711" rx="1.619" ry="1.619" fill="#c9c9c9" stroke-width="0"/>
  <rect x="579.602" y="20.159" width="3.238" height="9.711" rx="1.619" ry="1.619" fill="#c9c9c9" stroke-width="0"/>
  <rect x="52.691" y="14.659" width="3.238" height="19.869" rx="1.619" ry="1.619" fill="#c9c9c9" stroke-width="0"/>
</svg>