<svg width="220" height="209" viewBox="0 0 220 209" fill="none" xmlns="http://www.w3.org/2000/svg">
<g id="Group">
<g id="Group_2">
<path id="Vector" d="M171.526 84.4249C127.352 64.8348 206.143 16.4509 148.195 2.58097C90.2478 -11.2889 14.1948 34.0164 42.738 60.5286C71.2811 87.0407 -15.4731 88.2683 35.2632 134.846C0.479184 151.043 4.03985 188.623 46.7935 204.247C104.49 204.247 153.44 202.949 180.164 204.247C224.338 202.621 218.438 136.029 167.291 127.249C194.034 116.522 194.613 93.2237 171.526 84.4313V84.4249Z" fill="#D0EAF2"/>
<g id="Group_3">
<path id="Vector_2" d="M118.714 155.464C118.714 156.274 132.449 203.752 132.449 203.752H137.719L126.414 154.25L118.714 155.464Z" fill="#4F286F"/>
<path id="Vector_3" d="M174.881 149.635C175.086 150.445 187.285 203.758 187.285 203.758H182.073C182.073 203.758 168.19 151.666 168.794 151.666C169.398 151.666 174.874 149.641 174.874 149.641L174.881 149.635Z" fill="#4F286F"/>
<path id="Vector_4" d="M100.178 203.752L110.339 162.547L118.714 161.705L104.233 203.752H100.178Z" fill="#4F286F"/>
<path id="Vector_5" d="M43.1553 108.18C43.1553 108.18 72.1098 104.33 79.1476 104.902C86.1789 105.474 87.2458 108.161 90.2537 113.868C93.2617 119.569 95.9547 125.848 95.9547 125.848C95.9547 125.848 107.151 125.116 112.061 134.718L170.806 128.111C173.859 127.867 177.072 129.371 179.56 131.164C182.355 133.169 184.11 137.784 183.435 143.42C182.111 154.539 171.044 159.392 162.444 161.404C153.838 163.415 92.394 171.269 73.5238 165.234C54.6599 159.199 51.125 137.012 47.7764 125.122C44.4279 113.232 43.1553 108.187 43.1553 108.187V108.18Z" fill="#FFE1B7" stroke="#4F296F" stroke-width="0.83" stroke-miterlimit="10"/>
<g id="Vector_6">
<path d="M169.707 128.149L167.393 108.539C167.393 108.539 165.934 101.135 160.349 101.206C154.764 101.277 120.076 101.373 120.076 101.373C120.076 101.373 111.136 37.5318 106.862 34.1254C102.588 30.7254 94.676 30.1148 78.8909 35.3723C63.1057 40.6233 53.7862 38.4959 49.4415 36.8505C45.0967 35.2116 34.6204 29.0672 30.6355 29.3436C30.6355 29.3436 19.5422 27.4347 21.6374 41.3303C23.7327 55.2259 46.2407 119.344 46.2407 119.344" fill="#FFE1B7"/>
<path d="M169.707 128.149L167.393 108.539C167.393 108.539 165.934 101.135 160.349 101.206C154.764 101.277 120.076 101.373 120.076 101.373C120.076 101.373 111.136 37.5318 106.862 34.1254C102.588 30.7254 94.676 30.1148 78.8909 35.3723C63.1057 40.6233 53.7862 38.4959 49.4415 36.8505C45.0967 35.2116 34.6204 29.0672 30.6355 29.3436C30.6355 29.3436 19.5422 27.4347 21.6374 41.3303C23.7327 55.2259 46.2407 119.344 46.2407 119.344" stroke="#4F296F" stroke-width="0.83" stroke-miterlimit="10"/>
</g>
<path id="Vector_7" d="M51.4533 102.524C51.4533 102.524 51.3248 102.324 51.1255 101.913C50.907 101.463 50.6306 100.865 50.2771 100.126C49.5444 98.5772 48.5354 96.3084 47.3335 93.4804C44.9361 87.8309 41.8768 79.9126 39.0488 70.9853C36.2273 62.0515 34.1706 53.8118 32.8851 47.8088C32.2424 44.8073 31.7604 42.3714 31.4712 40.6811C31.3362 39.8712 31.2269 39.2285 31.1434 38.7336C31.0727 38.2901 31.047 38.0523 31.0598 38.0459C31.0791 38.0459 31.137 38.2709 31.2398 38.7143C31.349 39.2028 31.484 39.8455 31.664 40.6425C32.011 42.32 32.5445 44.743 33.2322 47.7317C34.6012 53.7025 36.7093 61.9101 39.5244 70.831C42.3524 79.7455 45.3475 87.6703 47.6613 93.3455C48.8182 96.1863 49.7758 98.4744 50.4571 100.049C50.772 100.801 51.0291 101.412 51.2219 101.868C51.389 102.286 51.4726 102.511 51.4597 102.517L51.4533 102.524Z" fill="#C78933"/>
<path id="Vector_8" d="M55.6953 203.752L70.4072 162.129L77.2714 164.694L60.355 203.752H55.6953Z" fill="#4F286F"/>
<path id="Vector_9" d="M120.063 101.38C120.063 101.38 120.114 101.528 120.172 101.823C120.237 102.164 120.32 102.588 120.417 103.122C120.622 104.311 120.905 105.95 121.258 107.987C121.946 112.203 122.904 118.039 124.009 124.794L123.778 124.595C126.722 124.614 129.909 124.691 133.2 124.858C142.359 125.321 150.599 126.324 156.569 126.954C159.507 127.275 161.91 127.539 163.633 127.725C164.43 127.815 165.066 127.892 165.555 127.943C165.992 128.001 166.223 128.04 166.223 128.053C166.223 128.072 165.992 128.066 165.548 128.04C165.06 128.008 164.417 127.963 163.62 127.911C161.949 127.783 159.526 127.577 156.537 127.294C150.56 126.754 142.32 125.81 133.181 125.347C129.897 125.18 126.715 125.096 123.778 125.064H123.572L123.54 124.865C122.505 118.103 121.612 112.255 120.963 108.032C120.667 105.988 120.429 104.343 120.262 103.147C120.192 102.614 120.14 102.183 120.095 101.836C120.063 101.541 120.05 101.38 120.063 101.38Z" fill="#FFE1B7" stroke="#232323" stroke-width="0.83" stroke-miterlimit="10"/>
<path id="Vector_10" d="M183.403 143.517C183.403 143.517 183.3 143.562 183.088 143.619C182.851 143.684 182.542 143.761 182.156 143.864C181.302 144.076 180.1 144.378 178.557 144.77C176.995 145.175 175.074 145.593 172.837 146.081C170.607 146.595 168.049 147.097 165.221 147.643C153.915 149.854 138.104 152.02 120.539 152.977C102.973 153.967 87.0404 153.71 75.5229 153.389C69.7641 153.247 65.098 152.791 61.9358 152.129C60.3547 151.808 59.1464 151.473 58.3301 151.229C57.9445 151.101 57.6424 151.004 57.411 150.927C57.2054 150.856 57.1025 150.811 57.1025 150.805C57.1025 150.799 57.2118 150.824 57.4239 150.876C57.6553 150.94 57.9638 151.024 58.3558 151.133C59.1721 151.345 60.3868 151.653 61.9679 151.943C65.1301 152.547 69.7705 152.952 75.5293 153.042C87.0404 153.273 102.961 153.472 120.507 152.483C138.047 151.525 153.838 149.417 165.15 147.302C167.978 146.775 170.543 146.306 172.773 145.818C175.009 145.355 176.944 144.963 178.506 144.59C180.055 144.243 181.269 143.973 182.124 143.78C182.516 143.697 182.831 143.632 183.069 143.581C183.281 143.536 183.39 143.523 183.397 143.529L183.403 143.517Z" fill="#C78932"/>
</g>
</g>
<path id="Vector_11" d="M141.935 64.8669L151.428 48.6768L140.72 45.2446L131.632 62.2446L141.935 64.8669Z" fill="#4F296F"/>
<path id="Vector_12" d="M137.758 48.1308C138.008 48.1308 148.652 52.842 148.652 52.842L148.845 57.0132L147.18 69.7841L147.431 90.6339C147.431 90.6339 145.496 95.8785 139.943 96.5662C134.39 97.2539 134.204 90.8267 134.204 90.8267L141.196 70.6003C139.808 69.3663 138.895 66.744 139.949 65.6707C140.322 65.1115 133.085 63.5497 133.085 63.5497C132.706 62.9134 132.835 62.4249 133.4 62.0521L143.015 62.4249L137.083 60.124H132.089C131.337 60.124 131.478 58.8578 132.089 58.7421C132.32 58.5236 138.021 58.0544 138.021 58.0544L143.574 58.7421L140.207 56.3062L133.837 54.7444C133.047 54.5966 133.329 53.0027 134.339 53.1698L140.914 53.4333L144.134 54.4295L137.642 50.811C136.639 50.0526 137.166 47.8673 137.764 48.1244L137.758 48.1308Z" fill="#E08076" stroke="#4F286F" stroke-width="0.83" stroke-miterlimit="10"/>
<path id="Vector_13" d="M111.483 60.4902C111.483 60.4902 115.668 59.8668 119.627 61.9878C123.592 64.1088 132.892 78.9684 133.079 78.8399C133.265 78.7113 134.204 78.3386 134.204 78.3386L137.713 80.6716L136.639 93.5067C136.639 93.5067 130.836 95.3192 130.771 95.1264C130.707 94.9336 125.469 85.9484 125.469 85.9484L111.49 60.4838L111.483 60.4902Z" fill="#8887C3" stroke="#4F286F" stroke-width="0.83" stroke-miterlimit="10"/>
<path id="Vector_14" d="M153.8 196.599L153.1 207.75C153.1 207.75 194.626 208.913 194.626 208.63C194.626 208.348 197.807 204.568 187.324 203.007C176.835 201.451 172.439 191.18 172.439 191.18C162.413 189.374 153.807 196.599 153.807 196.599H153.8Z" fill="#4F286F" stroke="#4F286F" stroke-width="0.56" stroke-miterlimit="10"/>
<path id="Vector_15" d="M146.711 52.4946C147.488 52.6746 148.221 52.9252 148.42 54.005L148.53 57.0194L146.865 69.7902L147.116 90.64C147.116 90.64 145.181 95.8846 139.628 96.5723C142.147 95.1905 147.533 93.95 146.119 70.0473C147.765 58.4719 149.127 53.8315 146.711 52.501V52.4946Z" fill="white"/>
<path id="Vector_16" d="M77.4577 41.1505C78.4667 47.8604 78.3832 53.105 76.7764 56.8714C76.7764 56.8714 89.2194 67.8426 89.8107 67.8555C90.402 67.8683 96.5721 67.6048 96.5721 67.6048C94.1619 64.2112 95.1196 55.2453 95.3702 54.6219C95.6209 53.9984 84.6818 47.462 77.4577 41.144V41.1505Z" fill="#E08076" stroke="#4F296F" stroke-width="0.83" stroke-miterlimit="10"/>
<path id="Vector_17" d="M95.6145 58.1826C96.2893 60.7599 95.4281 62.1289 94.9075 66.3259C92.1374 66.0302 85.5752 63.6779 85.5752 63.6779C85.5752 63.6779 101.971 88.5961 107.171 100.788L121.15 91.0513L117.563 81.9247L97.2727 60.1365L95.6145 58.1955V58.1826Z" fill="#D9D8EA" stroke="#4F296F" stroke-width="0.83" stroke-miterlimit="10"/>
<g id="Vector_18">
<path d="M96.6045 68.7749C99.3746 72.297 106.753 81.8671 107.646 84.7722L96.6045 68.7749Z" fill="#D9D8EA"/>
<path d="M96.6045 68.7749C99.3746 72.297 106.753 81.8671 107.646 84.7722" stroke="#4F296F" stroke-width="0.83" stroke-miterlimit="10"/>
</g>
<path id="Vector_19" d="M90.4475 56.7427C90.4475 56.7427 88.2622 57.9896 85.0808 60.5476C80.376 57.3019 77.998 53.0856 78.1201 52.8992C78.1201 52.8992 78.6793 48.4066 78.043 44.8267L90.4475 56.7362V56.7427Z" fill="#8E3D38"/>
<path id="Vector_20" d="M91.6813 70.118L85.8325 65.2976L94.5735 66.3581L95.4669 62.7267C99.4003 61.7305 96.1739 59.2367 99.034 63.8C95.4283 64.2242 96.1289 67.862 96.1289 67.862C96.1289 67.862 92.054 67.8235 91.6813 70.118Z" fill="#4F296F"/>
<g id="Vector_21">
<path d="M117.165 67.6051C122.159 71.6028 125.681 79.7139 127.841 89.7918L118.322 89.8239C110.455 75.5941 103.334 72.3998 97.0673 63.286C98.9312 63.0096 100.236 62.0905 103.057 64.7321C102.17 61.5249 99.0597 58.5749 96.1289 56.8652L100.268 57.1609C99.7474 56.7303 107.486 59.8796 110.802 59.7318C111.304 59.5775 111.959 59.8025 112.685 60.2588" fill="#8887C3"/>
<path d="M117.165 67.6051C122.159 71.6028 125.681 79.7139 127.841 89.7918L118.322 89.8239C110.455 75.5941 103.334 72.3998 97.0673 63.286C98.9312 63.0096 100.236 62.0905 103.057 64.7321C102.17 61.5249 99.0597 58.5749 96.1289 56.8652L100.268 57.1609C99.7474 56.7303 107.486 59.8796 110.802 59.7318C111.304 59.5775 111.959 59.8025 112.685 60.2588" stroke="#4F296F" stroke-width="0.83" stroke-miterlimit="10"/>
</g>
<path id="Vector_22" d="M105.956 89.92C105.738 93.5707 105.937 96.7843 107.64 98.4425L97.9992 107.055C95.0041 114.543 96.9708 118.386 100.525 122.41C103.469 128.258 92.716 132.436 93.693 131.678C87.8956 114.555 81.1921 102.8 67.4765 102.652L67.2901 89.2645C67.6436 77.7598 66.1525 74.5976 64.6678 71.384C60.4001 71.1462 57.0066 68.1254 59.5196 63.1443C65.2912 63.0094 75.9989 57.7134 75.9989 57.7134C88.172 63.9863 99.8759 78.0297 105.962 89.92H105.956Z" fill="#8887C3" stroke="#4F296F" stroke-miterlimit="10"/>
<path id="Vector_23" d="M94.9078 66.3255C95.1842 66.0555 97.0609 62.1092 103.051 64.738C102.164 61.5308 94.5286 53.4068 93.5967 56.0291C96.3861 57.7966 94.1944 65.2586 94.9078 66.3255Z" fill="#DDDDEE" stroke="#4F286F" stroke-width="0.65" stroke-miterlimit="10"/>
<g id="Vector_24">
<path d="M59.5194 63.1445C59.5194 63.1445 54.2427 68.6076 52.4945 76.0953C50.7463 83.583 48.6382 95.6918 48.6382 95.6918C48.6382 95.6918 50.997 104.054 54.7376 104.555C58.4846 105.056 69.5458 102.768 69.5458 102.768L68.5946 100.782C66.5186 94.0336 75.6452 91.3921 75.6452 91.3921L76.77 91.7648C76.77 91.7648 76.0694 89.8045 75.5167 89.6439L67.3092 88.7055C67.6305 81.9248 67.0135 75.9282 64.6612 71.3842" fill="#8887C3"/>
<path d="M59.5194 63.1445C59.5194 63.1445 54.2427 68.6076 52.4945 76.0953C50.7463 83.583 48.6382 95.6918 48.6382 95.6918C48.6382 95.6918 50.997 104.054 54.7376 104.555C58.4846 105.056 69.5458 102.768 69.5458 102.768L68.5946 100.782C66.5186 94.0336 75.6452 91.3921 75.6452 91.3921L76.77 91.7648C76.77 91.7648 76.0694 89.8045 75.5167 89.6439L67.3092 88.7055C67.6305 81.9248 67.0135 75.9282 64.6612 71.3842" stroke="#4F286F" stroke-miterlimit="10"/>
</g>
<path id="Vector_25" d="M51.749 91.5138C54.0885 85.1059 67.3221 88.7052 67.3221 88.7052C64.7512 89.0394 62.6753 89.9327 61.4862 91.8288" stroke="#4F296F" stroke-width="0.83" stroke-miterlimit="10"/>
<path id="Vector_26" d="M59.5329 94.2583C58.3567 98.0825 58.3888 101.508 60.3684 104.298" stroke="#4F296F" stroke-width="0.83" stroke-miterlimit="10"/>
<g id="Vector_27">
<path d="M95.1008 66.6536C87.054 62.476 79.7205 58.1504 77.7345 52.6616L75.7164 54.3905L75.4336 57.8998L87.3239 72.8816C87.3239 69.713 87.8831 66.8914 87.8831 66.8914C87.8831 66.8914 91.688 66.4865 94.9337 66.6086" fill="#DDDDEE"/>
<path d="M95.1008 66.6536C87.054 62.476 79.7205 58.1504 77.7345 52.6616L75.7164 54.3905L75.4336 57.8998L87.3239 72.8816C87.3239 69.713 87.8831 66.8914 87.8831 66.8914C87.8831 66.8914 91.688 66.4865 94.9337 66.6086" stroke="#4F286F" stroke-miterlimit="10"/>
</g>
<path id="Vector_28" d="M74.7779 91.6945C69.9703 92.9478 66.8531 99.1886 69.5976 102.653C77.368 103.263 83.6024 102.389 92.2406 100.783C94.3423 100.783 95.1714 101.297 96.1226 101.56C98.0636 102.094 101.104 102.184 104.15 100.982L113.257 92.9156C110.166 91.0453 107.107 90.1841 107.107 90.1841C107.107 90.1841 98.0957 94.9338 95.3706 94.1368L74.7779 91.7009V91.6945Z" fill="#E08076" stroke="#4F296F" stroke-width="0.83" stroke-miterlimit="10"/>
<g id="Group_4">
<path id="Vector_29" d="M98.6868 22.4859C98.6868 22.4859 98.7189 22.7944 98.7767 23.3343C99.1752 27.2613 100.576 45.8809 99.9336 48.2333C99.2009 50.9134 98.2176 55.6759 97.3628 56.5436C96.5079 57.4113 94.3098 57.6298 92.3303 57.347C90.3507 57.0642 79.9001 50.4828 79.4052 49.1459C78.9103 47.8091 75.3175 30.1536 74.8547 28.2768C74.392 26.3936 74.6555 23.45 77.2842 20.4099C79.9065 17.3699 85.8195 15.5253 90.3057 16.8814C90.3057 16.8814 97.2471 18.0254 98.6932 22.4795L98.6868 22.4859Z" fill="#E08076" stroke="#4F296F" stroke-width="0.83" stroke-miterlimit="10"/>
<path id="Vector_30" d="M98.2493 24.7226C96.2183 31.7732 95.6656 31.4069 86.8796 31.7732C84.0388 31.2333 79.8997 44.1327 83.5246 48.9403C86.5004 52.5523 87.4195 52.7516 91.4493 56.6208C85.4592 54.4355 79.6747 49.5637 79.5912 48.696C76.9689 40.2057 77.0974 31.7089 78.3443 27.3513C78.3443 27.3513 99.7918 24.4527 98.2493 24.729V24.7226Z" fill="#CA5B52"/>
<path id="Vector_31" d="M73.2416 24.7483C73.1966 23.2379 72.9138 21.104 72.9138 21.104C78.0491 13.9891 98.3333 12.7744 98.6675 21.4318C102.215 24.2726 100.094 25.693 99.3295 30.1407C98.8282 26.9721 98.9889 24.2405 97.9734 24.2405C97.9413 25.3524 97.2793 32.056 88.519 29.8707C84.2578 27.7947 80.1251 26.2779 78.4669 27.8462C76.5323 29.6779 81.7062 35.2053 77.4642 41.1376C75.189 34.8261 75.0347 39.5051 73.7429 38.0397C71.4098 34.2026 64.4813 29.8 73.2416 24.7354V24.7483Z" fill="#4F296F" stroke="#4F296F" stroke-width="0.83" stroke-miterlimit="10"/>
<path id="Vector_32" d="M99.3548 34.5755C98.365 33.9392 97.0667 34.1256 95.897 35.456" stroke="#4F296F" stroke-width="0.83" stroke-miterlimit="10"/>
<path id="Vector_33" d="M91.9706 36.3237C90.8972 34.5305 87.5294 34.0099 86.3403 36.7029" stroke="#4F296F" stroke-width="0.83" stroke-miterlimit="10"/>
<path id="Vector_34" d="M96.6299 41.189C96.8356 42.1916 96.4114 43.7727 98.4359 44.6982C100.197 46.0479 97.0477 48.2653 95.8394 47.9954" stroke="#4F296F" stroke-width="0.83" stroke-miterlimit="10"/>
<path id="Vector_35" d="M99.0915 50.0845C97.6968 52.0576 95.473 52.2826 92.8442 50.8107" stroke="#4F296F" stroke-width="0.83" stroke-miterlimit="10"/>
<path id="Vector_36" d="M76.6348 38.1875C76.6348 38.1875 74.5074 34.8904 73.8646 37.8662C72.8748 42.4616 77.9331 45.476 78.0487 44.8333L76.6412 38.1875H76.6348Z" fill="#CA5B52" stroke="#4F296F" stroke-width="0.83" stroke-miterlimit="10"/>
<path id="Vector_37" d="M91.2736 40.8174C91.7745 40.7155 92.0813 40.1451 91.9589 39.5433C91.8365 38.9415 91.3312 38.5363 90.8303 38.6382C90.3294 38.7401 90.0226 39.3106 90.145 39.9123C90.2674 40.5141 90.7727 40.9193 91.2736 40.8174Z" fill="#4F296F"/>
<path id="Vector_38" d="M98.6852 39.6063C99.1069 39.5819 99.4198 39.0622 99.3842 38.4456C99.3485 37.829 98.9777 37.3489 98.556 37.3733C98.1343 37.3977 97.8214 37.9174 97.8571 38.534C97.8927 39.1506 98.2635 39.6306 98.6852 39.6063Z" fill="#4F296F"/>
<path id="Vector_39" d="M91.1026 38.8301C89.6244 38.4959 88.6603 39.3957 87.979 40.4498" stroke="#4F296F" stroke-width="0.41" stroke-miterlimit="10"/>
<path id="Vector_40" d="M99.0338 37.8466C98.3333 37.1782 97.7098 37.4417 96.6943 38.7528" stroke="#4F296F" stroke-width="0.41" stroke-miterlimit="10"/>
</g>
<path id="Vector_41" d="M69.4433 75.125C69.4305 79.2962 68.7813 83.7953 67.3159 88.6992" stroke="#4F296F" stroke-width="0.83" stroke-miterlimit="10"/>
<g id="Group_5">
<g id="Group_6">
<path id="Vector_42" d="M148.028 44.4546L151.293 38.7023C149.847 36.3563 149.012 33.5991 149.012 30.6426C149.012 22.1458 155.902 15.2559 164.398 15.2559C172.895 15.2559 179.785 22.1458 179.785 30.6426C179.785 39.1393 172.895 46.0293 164.398 46.0293C160.851 46.0293 157.586 44.8274 154.983 42.8092L148.022 44.4546H148.028Z" fill="white" stroke="#4F296F" stroke-width="0.83" stroke-miterlimit="10"/>
<g id="Vector_43">
<path d="M148.028 44.4542C148.503 44.3385 150.618 43.8179 154.976 42.7445L154.937 42.8538C154.937 42.8538 154.937 42.8538 154.937 42.8474C154.911 42.8152 154.918 42.7702 154.95 42.751C154.976 42.7317 155.014 42.7317 155.033 42.751C156.769 44.0878 159.263 45.3861 162.373 45.791C163.145 45.8874 163.954 45.9453 164.784 45.9003C165.195 45.8746 165.619 45.8617 166.043 45.8231C166.467 45.7589 166.892 45.6946 167.329 45.6239C169.051 45.2768 170.806 44.6213 172.445 43.5993C174.084 42.5838 175.594 41.202 176.809 39.5052C178.017 37.8149 178.936 35.816 179.367 33.6372C179.791 31.4648 179.752 29.1381 179.18 26.8886C178.608 24.6455 177.535 22.4539 175.928 20.6543C174.302 18.8161 172.297 17.3378 170.086 16.483C167.881 15.6089 165.536 15.2747 163.286 15.4354C161.036 15.596 158.89 16.2323 157.039 17.2735C155.188 18.3019 153.619 19.6709 152.411 21.207C151.196 22.7431 150.342 24.4399 149.802 26.1302C149.268 27.827 149.12 29.5174 149.12 31.0792C149.191 34.2285 150.232 36.8251 151.351 38.6632C151.364 38.6825 151.364 38.7082 151.351 38.734C149.262 42.3332 148.266 44.0492 148.028 44.4542C148.253 44.0428 149.217 42.3075 151.235 38.6697V38.7404C150.091 36.9022 149.018 34.2799 148.928 31.092C148.921 29.5109 149.063 27.8013 149.596 26.0724C150.13 24.3563 150.997 22.6274 152.225 21.0656C153.446 19.5038 155.033 18.1027 156.917 17.055C158.793 16.001 160.979 15.339 163.267 15.1783C165.555 15.0112 167.946 15.3518 170.189 16.2388C172.438 17.1129 174.482 18.6104 176.14 20.4871C177.773 22.3253 178.866 24.5556 179.45 26.8372C180.029 29.1317 180.067 31.4969 179.63 33.7079C179.193 35.9188 178.255 37.9563 177.021 39.6723C175.787 41.3884 174.238 42.7895 172.573 43.8179C170.909 44.8526 169.122 45.5146 167.374 45.8553C166.93 45.9195 166.5 45.9838 166.069 46.0545C165.638 46.0931 165.208 46.0995 164.79 46.1252C163.948 46.1638 163.132 46.0995 162.348 45.9967C159.198 45.5661 156.692 44.2356 154.95 42.8666L155.046 42.7702V42.7766C155.072 42.8088 155.066 42.8474 155.033 42.8731C155.027 42.8731 155.014 42.8859 155.008 42.8859C150.631 43.8693 148.51 44.3513 148.028 44.4606V44.4542Z" fill="#263238"/>
<path d="M148.028 44.4542C148.503 44.3385 150.618 43.8179 154.976 42.7445L154.937 42.8538C154.937 42.8538 154.937 42.8538 154.937 42.8474C154.911 42.8152 154.918 42.7702 154.95 42.751C154.976 42.7317 155.014 42.7317 155.033 42.751C156.769 44.0878 159.263 45.3861 162.373 45.791C163.145 45.8874 163.954 45.9453 164.784 45.9003C165.195 45.8746 165.619 45.8617 166.043 45.8231C166.467 45.7589 166.892 45.6946 167.329 45.6239C169.051 45.2768 170.806 44.6212 172.445 43.5993C174.084 42.5838 175.594 41.202 176.809 39.5052C178.017 37.8149 178.936 35.816 179.367 33.6372C179.791 31.4648 179.752 29.1381 179.18 26.8886C178.608 24.6455 177.535 22.4539 175.928 20.6543C174.302 18.8161 172.297 17.3378 170.086 16.483C167.881 15.6089 165.536 15.2747 163.286 15.4354C161.036 15.596 158.89 16.2323 157.039 17.2735C155.188 18.3019 153.619 19.6709 152.411 21.207C151.196 22.7431 150.342 24.4399 149.802 26.1302C149.268 27.827 149.12 29.5174 149.12 31.0792C149.191 34.2285 150.232 36.8251 151.351 38.6632C151.364 38.6825 151.364 38.7082 151.351 38.734C149.262 42.3332 148.266 44.0492 148.028 44.4542ZM148.028 44.4542C148.253 44.0428 149.217 42.3075 151.235 38.6697V38.7404C150.091 36.9022 149.018 34.2799 148.928 31.092C148.921 29.5109 149.063 27.8013 149.596 26.0724C150.13 24.3563 150.997 22.6274 152.225 21.0656C153.446 19.5038 155.033 18.1027 156.917 17.055C158.793 16.001 160.979 15.339 163.267 15.1783C165.555 15.0112 167.946 15.3518 170.189 16.2388C172.438 17.1129 174.482 18.6104 176.14 20.4871C177.773 22.3253 178.866 24.5556 179.45 26.8372C180.029 29.1317 180.067 31.4969 179.63 33.7079C179.193 35.9188 178.255 37.9563 177.021 39.6723C175.787 41.3884 174.238 42.7895 172.573 43.8179C170.909 44.8526 169.122 45.5146 167.374 45.8553C166.93 45.9195 166.5 45.9838 166.069 46.0545C165.638 46.0931 165.208 46.0995 164.79 46.1252C163.948 46.1638 163.132 46.0995 162.348 45.9967C159.198 45.5661 156.692 44.2356 154.95 42.8666L155.046 42.7702V42.7766C155.072 42.8088 155.066 42.8474 155.033 42.8731C155.027 42.8731 155.014 42.8859 155.008 42.8859C150.631 43.8693 148.51 44.3513 148.028 44.4606V44.4542Z" stroke="#4F296F" stroke-width="0.83" stroke-miterlimit="10"/>
</g>
</g>
<g id="Group_7">
<path id="Vector_44" d="M160.272 30.3339C160.272 31.0666 159.674 31.6643 158.942 31.6643C158.209 31.6643 157.611 31.0666 157.611 30.3339C157.611 29.6012 158.209 29.0034 158.942 29.0034C159.674 29.0034 160.272 29.6012 160.272 30.3339Z" fill="#4F296F"/>
<path id="Vector_45" d="M165.594 30.3334C165.594 31.0661 164.996 31.6638 164.264 31.6638C163.531 31.6638 162.933 31.0661 162.933 30.3334C162.933 29.6007 163.531 29.0029 164.264 29.0029C164.996 29.0029 165.594 29.6007 165.594 30.3334Z" fill="#4F296F"/>
<path id="Vector_46" d="M170.902 29.6651C171.269 30.3014 171.05 31.1177 170.414 31.484C169.778 31.8504 168.961 31.6318 168.595 30.9955C168.229 30.3593 168.447 29.543 169.084 29.1766C169.72 28.8103 170.536 29.0288 170.902 29.6651Z" fill="#4F296F"/>
</g>
</g>
<g id="Group_8">
<path id="Vector_47" d="M159.835 71.0818L161.744 72.1166L160.889 73.5498L158.961 72.4122L158.993 74.5332H157.348L157.367 72.3993L155.439 73.5562L154.597 72.123L156.506 71.0882L154.597 70.0406L155.439 68.6073L157.367 69.7642L157.348 67.6304H158.993L158.961 69.7642L160.889 68.6073L161.744 70.0406L159.835 71.0882V71.0818Z" fill="#7875B2"/>
<path id="Vector_48" d="M167.786 71.0818L169.695 72.1166L168.84 73.5498L166.912 72.4122L166.944 74.5332H165.299L165.318 72.3993L163.39 73.5562L162.548 72.123L164.457 71.0882L162.548 70.0406L163.39 68.6073L165.318 69.7642L165.299 67.6304H166.944L166.912 69.7642L168.84 68.6073L169.695 70.0406L167.786 71.0882V71.0818Z" fill="#7875B2"/>
<path id="Vector_49" d="M175.73 71.0818L177.639 72.1166L176.784 73.5498L174.856 72.4122L174.888 74.5332H173.243L173.262 72.3993L171.334 73.5562L170.492 72.123L172.401 71.0882L170.492 70.0406L171.334 68.6073L173.262 69.7642L173.243 67.6304H174.888L174.856 69.7642L176.784 68.6073L177.639 70.0406L175.73 71.0882V71.0818Z" fill="#7875B2"/>
</g>
<path id="Vector_50" d="M1 203.913H219.152" stroke="#4F296F" stroke-width="0.83" stroke-linecap="round" stroke-linejoin="round"/>
<path id="Vector_51" d="M130.064 124.19H113.495V136.453H130.064V124.19Z" fill="#FFE1B7"/>
<g id="Group_9">
<path id="Vector_52" d="M53.0666 104.818L44.1328 111.548L58.3626 146.936L95.2611 149.185C137.687 150.888 156.885 130.18 156.885 130.18L138.349 130.836L109.979 134.3C106.393 127.236 101.406 125.103 96.1674 123.849L85.826 104.998L81.237 103.314C76.8665 102.337 69.6102 103.038 61.949 103.97L53.0602 104.825L53.0666 104.818Z" fill="#FFE1B7"/>
<path id="Vector_53" d="M114.704 133.618C113.026 133.779 111.355 133.933 109.71 134.094L109.543 134.107L109.466 133.959C108.058 131.266 106.136 128.875 103.752 127.191C101.406 125.482 98.6357 124.421 95.9427 124.177L95.7884 124.164L95.7306 124.036C94.1495 120.404 92.5299 116.927 90.8781 113.662C90.0425 112.036 89.2263 110.436 88.3779 108.919C87.5295 107.415 86.5783 105.982 85.2607 105.043C83.956 104.079 82.3878 103.655 80.8838 103.404C79.3605 103.16 77.8694 103.089 76.4233 103.096C73.5375 103.096 70.8638 103.263 68.4472 103.43C63.6075 103.777 59.764 104.163 57.1289 104.433C55.8306 104.568 54.8215 104.67 54.1081 104.741C53.7803 104.773 53.5232 104.799 53.3304 104.812C53.1569 104.825 53.0669 104.831 53.0669 104.825C53.0669 104.818 53.1569 104.799 53.3304 104.773C53.5232 104.748 53.7803 104.709 54.1081 104.658C54.8151 104.568 55.8242 104.439 57.1225 104.272C59.7512 103.957 63.5946 103.52 68.4343 103.134C70.8574 102.948 73.5311 102.762 76.4362 102.742C77.8887 102.729 79.4055 102.794 80.9545 103.031C82.4906 103.282 84.1295 103.706 85.5114 104.722C86.9125 105.712 87.9023 107.196 88.7635 108.713C89.6248 110.249 90.441 111.837 91.2894 113.469C92.9605 116.741 94.5866 120.211 96.1805 123.856L95.9684 123.714C98.8157 123.971 101.618 125.051 104.047 126.806C106.496 128.535 108.476 130.99 109.915 133.741L109.671 133.606C111.317 133.451 112.988 133.291 114.665 133.13C135.933 131.138 135.971 131.581 114.71 133.625L114.704 133.618Z" fill="#C78932"/>
<path id="Vector_54" d="M95.268 153.941C95.268 153.941 95.1587 153.781 94.9852 153.459C94.7988 153.087 94.561 152.611 94.2717 152.026C93.6419 150.715 92.7806 148.915 91.7266 146.724C89.5927 142.173 86.6941 135.99 83.4933 129.158C81.9058 125.72 80.4019 122.442 79.02 119.453C77.6574 116.471 76.8219 113.476 77.1561 110.937C77.4839 108.405 78.7501 106.612 79.8427 105.744C80.3826 105.288 80.8968 105.069 81.231 104.915C81.5845 104.799 81.7644 104.741 81.7709 104.76C81.803 104.818 81.006 104.985 79.9712 105.892C78.9493 106.772 77.7796 108.533 77.5096 110.976C77.2333 113.418 78.0688 116.317 79.4442 119.267C80.8325 122.249 82.3493 125.514 83.9497 128.946C87.099 135.804 89.9527 142.006 92.0479 146.576C93.0441 148.793 93.854 150.612 94.4517 151.943C94.7088 152.54 94.9145 153.029 95.0816 153.414C95.223 153.755 95.2872 153.935 95.268 153.941Z" fill="#C78932"/>
</g>
<path id="Vector_55" d="M160.247 120.205C160.247 120.205 171.468 119.536 171.096 138.882C170.723 158.235 172.471 189.689 172.471 189.689C173.641 191.437 174.136 193.038 173.718 194.432C168.724 191.238 163.332 189.606 155.24 198.43C153.742 200.178 152.36 198.533 151.743 197.305C156.859 169.72 147.508 153.363 148.376 144.127C144.005 129.524 132.147 132.892 110.924 133.265C111.573 115.288 138.002 111.297 160.247 120.205Z" fill="#E0A7CD" stroke="#4F296F" stroke-width="0.83" stroke-miterlimit="10"/>
<path id="Vector_56" d="M114.658 133.124L128.605 114.646L133.181 115.044L168.39 125.385C159.436 123.791 133.079 119.916 133.079 119.916C127.962 118.103 123.283 131.234 114.658 133.124Z" fill="#4F296F"/>
<path id="Vector_57" d="M191.161 116.51C191.033 117.358 213.123 124.544 214.852 125.405C220.02 127.969 224.274 143.446 207.924 142.077C203.707 139.545 186.238 126.266 183.957 127.282L191.168 116.516L191.161 116.51Z" fill="#4F286F" stroke="#4F286F" stroke-width="0.83" stroke-miterlimit="10"/>
<path id="Vector_58" d="M97.9987 107.055L116.535 89.9201C116.535 89.9201 123.219 85.4274 129.64 89.9201C135.881 94.2841 177.992 115.083 184.882 113.328C193.494 114.453 191.624 117.82 191.624 117.82L181.231 132.802C181.231 132.802 178.705 135.135 177.863 132.333C177.06 129.672 168.049 125.79 163.537 124.466C155.355 122.062 136.009 119.877 129.736 115.481C129.736 115.481 121.651 128.432 113.79 133.394C112.556 133.554 111.052 133.702 109.452 133.824C107.35 128.265 103.648 127.082 101.18 125.032C101.431 123.785 100.428 122.41 99.5606 121.535C96.0449 117.313 95.3379 112.524 97.9987 107.055Z" fill="#E0A7CD" stroke="#4F296F" stroke-width="0.83" stroke-miterlimit="10"/>
<path id="Vector_59" d="M129.736 115.481C129.736 115.481 119.999 110.05 119.626 100.782" stroke="#4F286F" stroke-width="0.83" stroke-miterlimit="10"/>
<g id="Vector_60">
<path d="M132.642 79.7139C131.106 81.9634 129.788 85.042 129.518 88.4549L132.642 79.7139Z" fill="#9491BC"/>
<path d="M132.642 79.7139C131.106 81.9634 129.788 85.042 129.518 88.4549" stroke="#4F296F" stroke-width="0.83" stroke-miterlimit="10"/>
</g>
<g id="Vector_61">
<path d="M135.103 79.8101C133.169 82.638 131.517 86.5072 131.183 90.7941L135.103 79.8101Z" fill="#9491BC"/>
<path d="M135.103 79.8101C133.169 82.638 131.517 86.5072 131.183 90.7941" stroke="#4F296F" stroke-width="1.04" stroke-miterlimit="10"/>
</g>
<path id="Vector_62" d="M68.6201 98.4104C68.6201 98.4104 68.7358 101.168 69.6035 102.26C77.374 102.871 83.6083 101.997 92.2465 100.39C94.3482 100.39 95.1773 100.904 96.1285 101.168C98.0695 101.701 101.11 101.791 104.156 100.589L107.305 97.7998C106.046 99.1817 100.75 100.538 95.0102 98.4811C72.29 101.913 68.6265 98.4104 68.6265 98.4104H68.6201Z" fill="#CA5B52"/>
<path id="Vector_63" d="M101.181 103.436C97.1124 104.233 93.0697 107.183 91.8164 112.048" stroke="#4F296F" stroke-width="0.83" stroke-miterlimit="10"/>
<path id="Vector_64" d="M148.331 144.75C147.951 141.826 149.044 135.759 150.561 131.022" stroke="#4F286F" stroke-width="0.83" stroke-miterlimit="10"/>
<path id="Vector_65" d="M69.5524 102.768L68.4791 99.625C67.6693 97.067 70.2273 93.3199 74.7842 91.4175L81.6677 92.3558C71.0885 91.9831 69.1668 99.8435 69.5588 102.774L69.5524 102.768Z" fill="#4F296F"/>
<path id="Vector_66" d="M175.055 113.142C152.11 105.069 133.053 91.8164 122.782 89.5797C120.597 88.4807 113.289 94.278 107.743 98.7256C120.411 85.582 122.159 87.5809 126.465 88.802C145.567 99.754 176.835 114.453 186.669 113.797C189.972 116.561 179.181 114.08 175.061 113.142H175.055Z" fill="white"/>
<path id="Vector_67" d="M129.615 74.5332C125.7 68.8836 119.845 61.4795 111.483 61.4152C99.5481 59.2171 98.1855 57.3726 98.1855 57.3726C98.1855 57.3726 110.989 60.8561 112.743 60.554C114.44 61.743 119.755 57.7132 129.615 74.5332Z" fill="white"/>
<path id="Vector_68" d="M75.3435 58.3687C75.3435 58.3687 66.2298 62.4243 59.5519 63.6712C54.6222 68.9158 53.1247 74.7195 53.1247 74.7195L51.2544 83.5826C53.941 72.47 58.3629 65.0787 59.9954 64.6674L74.7265 59.8599L75.3499 58.3623L75.3435 58.3687Z" fill="white"/>
<path id="Vector_69" d="M171.905 188.809C171.886 189.715 170.312 187.652 169.907 184.548C167.946 177.253 172.265 128.149 167.194 126.53C169.399 126.311 170.26 130.013 170.691 137.886C170.344 159.912 171.333 182.498 171.905 188.809Z" fill="white"/>
<g id="Group_10">
<path id="Vector_70" d="M73.4922 16.875C72.5281 17.6913 71.7568 18.6232 71.2876 19.7351C71.7825 20.7377 71.5704 21.6633 70.8506 22.5438" stroke="#4F296F" stroke-width="0.83" stroke-miterlimit="10"/>
<path id="Vector_71" d="M77.9012 14.7349C76.7251 14.9084 75.7931 15.2683 74.8676 15.866C74.5977 16.0396 74.0835 16.4059 74.0835 16.4059" stroke="#4F296F" stroke-width="0.83" stroke-miterlimit="10"/>
<path id="Vector_72" d="M115.134 52.186C115.192 55.4189 115.379 58.2469 116.542 58.0862C119.845 58.6582 122.474 59.9565 123.657 62.7652" stroke="#4F296F" stroke-width="0.83" stroke-miterlimit="10"/>
<path id="Vector_73" d="M166.359 99.7471C168.21 101.02 170.241 102.736 170.485 106.419C171.796 108.604 177.349 108.79 177.349 108.79" stroke="#4F296F" stroke-width="0.83" stroke-miterlimit="10"/>
<path id="Vector_74" d="M159.855 97.9416C159.855 97.9416 161.198 97.8644 162.908 98.2629C163.48 98.3979 164.708 98.8478 164.708 98.8478" stroke="#4F296F" stroke-width="0.83" stroke-miterlimit="10"/>
<path id="Vector_75" d="M51.1386 70.459C50.6887 71.9629 50.4508 73.4669 50.438 74.8488" stroke="#4F296F" stroke-width="0.83" stroke-miterlimit="10"/>
<path id="Vector_76" d="M63.9224 59.2109C61.9557 60.3357 60.3617 60.9913 57.6559 61.0427C55.1043 62.7652 53.1183 65.4967 51.8843 68.4018" stroke="#4F296F" stroke-width="0.83" stroke-miterlimit="10"/>
</g>
<path id="Vector_77" d="M149.121 184.014C149.777 187.96 149.385 193.044 148.369 198.81L150.149 201.149" stroke="#4F296F" stroke-width="0.83" stroke-miterlimit="10"/>
</g>
</svg>
