<svg xmlns="http://www.w3.org/2000/svg" width="24" height="24" viewBox="0 0 24 24" fill="none">
  <mask id="mask0_967_735" style="mask-type:alpha" maskUnits="userSpaceOnUse" x="0" y="0" width="24" height="24">
    <rect width="24" height="24" fill="#D9D9D9"/>
  </mask>
  <g mask="url(#mask0_967_735)">
    <path d="M16.1359 13.1984L14.4289 11.4914C14.5803 10.7635 14.392 10.1428 13.8639 9.6294C13.3358 9.116 12.7015 8.91401 11.9609 9.02343L10.3017 7.36418C10.5731 7.24281 10.8498 7.15178 11.1319 7.09108C11.4139 7.03039 11.7033 7.00005 12.0001 7.00005C13.2501 7.00005 14.3126 7.43755 15.1876 8.31255C16.0626 9.18755 16.5001 10.2501 16.5001 11.5001C16.5001 11.7968 16.4707 12.0872 16.412 12.3713C16.3533 12.6553 16.2613 12.931 16.1359 13.1984ZM19.4914 16.5158L17.9218 14.9843C18.5312 14.505 19.078 13.9744 19.562 13.3927C20.0461 12.811 20.4548 12.1801 20.7881 11.5001C19.9468 9.8207 18.7416 8.4842 17.1726 7.49055C15.6036 6.49689 13.8794 6.00005 12.0001 6.00005C11.5367 6.00005 11.0838 6.03039 10.6414 6.09108C10.199 6.15178 9.75441 6.2448 9.30766 6.37015L7.60224 4.66473C8.3102 4.37741 9.03067 4.16391 9.76364 4.02423C10.4966 3.88456 11.2421 3.81473 12.0001 3.81473C14.3113 3.81473 16.4267 4.42369 18.3463 5.64163C20.2658 6.85956 21.7316 8.50313 22.7435 10.5723C22.8142 10.7176 22.8682 10.8681 22.9055 11.0237C22.9428 11.1793 22.9615 11.3381 22.9615 11.5001C22.9615 11.662 22.948 11.8218 22.921 11.9794C22.894 12.137 22.8452 12.2885 22.7745 12.4338C22.4039 13.2385 21.9392 13.9846 21.3805 14.6723C20.8218 15.36 20.1921 15.9745 19.4914 16.5158ZM12.0001 19.1854C9.74281 19.1854 7.67624 18.5772 5.80034 17.3609C3.92442 16.1446 2.44914 14.5392 1.37451 12.5446C1.28321 12.3874 1.21474 12.2206 1.16909 12.0444C1.12342 11.8681 1.10059 11.6867 1.10059 11.5001C1.10059 11.3135 1.11925 11.1342 1.15659 10.9623C1.1939 10.7904 1.25821 10.6194 1.34951 10.4495C1.67488 9.7948 2.05441 9.17125 2.48811 8.57885C2.92179 7.98647 3.41201 7.44227 3.95876 6.94625L1.94354 4.912C1.74825 4.70404 1.65378 4.45757 1.66011 4.1726C1.66644 3.88763 1.76726 3.64751 1.96256 3.45223C2.15784 3.25694 2.40214 3.1593 2.69544 3.1593C2.98874 3.1593 3.23303 3.25694 3.42831 3.45223L20.4582 20.4821C20.6535 20.6774 20.7543 20.9175 20.7607 21.2025C20.767 21.4875 20.6662 21.7339 20.4582 21.9419C20.2629 22.1372 20.0196 22.2348 19.7283 22.2348C19.437 22.2348 19.1937 22.1372 18.9984 21.9419L15.6359 18.6234C15.0486 18.8147 14.451 18.9562 13.843 19.0479C13.235 19.1395 12.6207 19.1854 12.0001 19.1854ZM5.49626 8.4658C5.02886 8.89914 4.60314 9.36816 4.21909 9.87288C3.83502 10.3776 3.50132 10.92 3.21799 11.5001C4.05132 13.1834 5.25349 14.5209 6.82451 15.5126C8.39553 16.5042 10.1207 17.0001 12.0001 17.0001C12.3135 17.0001 12.6205 16.9812 12.9213 16.9435C13.222 16.9058 13.529 16.864 13.8425 16.818L12.9425 15.868C12.779 15.914 12.622 15.9475 12.4713 15.9685C12.3205 15.9895 12.1635 16.0001 12.0001 16.0001C10.7501 16.0001 9.68756 15.5626 8.81256 14.6876C7.93756 13.8126 7.50006 12.7501 7.50006 11.5001C7.50006 11.3367 7.50957 11.1796 7.52859 11.0289C7.54762 10.8781 7.57814 10.7211 7.62016 10.5577L5.49626 8.4658Z" fill="white"/>
  </g>
</svg>