<svg width="24" height="24" viewBox="0 0 24 24" fill="none" xmlns="http://www.w3.org/2000/svg">
<mask id="mask0_4101_14118" style="mask-type:alpha" maskUnits="userSpaceOnUse" x="0" y="0" width="24" height="24">
<rect width="24" height="24" fill="#D9D9D9"/>
</mask>
<g mask="url(#mask0_4101_14118)">
<path d="M11.9988 17.2033C12.3309 17.2033 12.6097 17.091 12.8352 16.8663C13.0607 16.6417 13.1735 16.3633 13.1735 16.0313C13.1735 15.6992 13.0612 15.4194 12.8366 15.1919C12.6119 14.9643 12.3336 14.8506 12.0015 14.8506C11.6694 14.8506 11.3906 14.9643 11.1651 15.1919C10.9396 15.4194 10.8268 15.6992 10.8268 16.0313C10.8268 16.3633 10.9391 16.6417 11.1637 16.8663C11.3884 17.091 11.6667 17.2033 11.9988 17.2033ZM12.0001 13.012C12.3193 13.012 12.5887 12.9022 12.8083 12.6826C13.0279 12.4631 13.1376 12.1937 13.1376 11.8745V8.01198C13.1376 7.69278 13.0279 7.42339 12.8083 7.20383C12.5887 6.98426 12.3193 6.87448 12.0001 6.87448C11.681 6.87448 11.4116 6.98426 11.192 7.20383C10.9724 7.42339 10.8626 7.69278 10.8626 8.01198V11.8745C10.8626 12.1937 10.9724 12.4631 11.192 12.6826C11.4116 12.9022 11.681 13.012 12.0001 13.012ZM12.0001 22.2033C10.5849 22.2033 9.25706 21.9357 8.01652 21.4004C6.77599 20.8651 5.6969 20.1386 4.77925 19.2209C3.8616 18.3033 3.13512 17.2242 2.59982 15.9837C2.06452 14.7431 1.79688 13.4152 1.79688 12C1.79688 10.5848 2.06452 9.25694 2.59982 8.0164C3.13512 6.77587 3.8616 5.69678 4.77925 4.77913C5.6969 3.86148 6.77599 3.135 8.01652 2.5997C9.25706 2.0644 10.5849 1.79675 12.0001 1.79675C13.4154 1.79675 14.7432 2.0644 15.9838 2.5997C17.2243 3.135 18.3034 3.86148 19.2211 4.77913C20.1387 5.69678 20.8652 6.77587 21.4005 8.0164C21.9358 9.25694 22.2034 10.5848 22.2034 12C22.2034 13.4152 21.9358 14.7431 21.4005 15.9837C20.8652 17.2242 20.1387 18.3033 19.2211 19.2209C18.3034 20.1386 17.2243 20.8651 15.9838 21.4004C14.7432 21.9357 13.4154 22.2033 12.0001 22.2033ZM12.0001 19.9283C14.2175 19.9283 16.0933 19.1613 17.6273 17.6272C19.1614 16.0931 19.9284 14.2174 19.9284 12C19.9284 9.78264 19.1614 7.90692 17.6273 6.37285C16.0933 4.8388 14.2175 4.07178 12.0001 4.07178C9.78277 4.07178 7.90704 4.8388 6.37297 6.37285C4.83892 7.90692 4.0719 9.78264 4.0719 12C4.0719 14.2174 4.83892 16.0931 6.37297 17.6272C7.90704 19.1613 9.78277 19.9283 12.0001 19.9283Z" fill="#FF8C00"/>
</g>
</svg>
