<svg width="40" height="40" viewBox="0 0 40 40" fill="none" xmlns="http://www.w3.org/2000/svg">
<circle cx="20" cy="20" r="20" fill="#5553AA"/>
<mask id="mask0_904_425" style="mask-type:alpha" maskUnits="userSpaceOnUse" x="9" y="8" width="24" height="24">
<rect x="9" y="8" width="24" height="24" fill="#D9D9D9"/>
</mask>
<g mask="url(#mask0_904_425)">
<path d="M21 25.5C22.25 25.5 23.3125 25.0625 24.1875 24.1875C25.0625 23.3125 25.5 22.25 25.5 21C25.5 19.75 25.0625 18.6875 24.1875 17.8125C23.3125 16.9375 22.25 16.5 21 16.5C19.75 16.5 18.6875 16.9375 17.8125 17.8125C16.9375 18.6875 16.5 19.75 16.5 21C16.5 22.25 16.9375 23.3125 17.8125 24.1875C18.6875 25.0625 19.75 25.5 21 25.5ZM21 23.5C20.3 23.5 19.7083 23.2583 19.225 22.775C18.7417 22.2917 18.5 21.7 18.5 21C18.5 20.3 18.7417 19.7083 19.225 19.225C19.7083 18.7417 20.3 18.5 21 18.5C21.7 18.5 22.2917 18.7417 22.775 19.225C23.2583 19.7083 23.5 20.3 23.5 21C23.5 21.7 23.2583 22.2917 22.775 22.775C22.2917 23.2583 21.7 23.5 21 23.5ZM13 29C12.45 29 11.9792 28.8042 11.5875 28.4125C11.1958 28.0208 11 27.55 11 27V15C11 14.45 11.1958 13.9792 11.5875 13.5875C11.9792 13.1958 12.45 13 13 13H16.15L18 11H24L25.85 13H29C29.55 13 30.0208 13.1958 30.4125 13.5875C30.8042 13.9792 31 14.45 31 15V27C31 27.55 30.8042 28.0208 30.4125 28.4125C30.0208 28.8042 29.55 29 29 29H13ZM13 27H29V15H24.95L23.125 13H18.875L17.05 15H13V27Z" fill="#FCFCFC"/>
</g>
</svg>
