<svg xmlns="http://www.w3.org/2000/svg" width="35" height="28" viewBox="0 0 35 28" fill="none">
  <path d="M34.3408 4.50004L34.3515 23.5301C34.3515 25.7752 32.5188 27.614 30.2919 27.614L4.10214 27.6354C1.85396 27.6354 0.0213098 25.7966 0.0213098 23.5621L0 4.53211C0 2.27631 1.83265 0.44814 4.07018 0.44814L30.2706 0.426758C32.5082 0.426758 34.3408 2.24423 34.3408 4.50004Z" fill="#F6C859"/>
  <path d="M13.2429 24.0003C13.0937 24.0003 12.9552 23.9255 12.8913 23.7865C12.7954 23.594 12.87 23.3481 13.0618 23.2519C13.6371 22.9526 14.4149 22.3966 14.8731 21.4451C15.4485 20.2264 15.2993 18.9007 15.0542 18.7831C14.9903 18.751 14.7559 18.8793 14.6067 18.9541C14.2338 19.1466 13.7117 19.4138 13.115 19.2C12.529 18.9969 12.2413 18.473 12.1028 18.2164C11.1972 16.5593 10.9201 12.2615 11.8684 10.1233C12.1881 9.41773 12.6143 8.99009 13.147 8.8618C13.6904 8.73351 14.1379 8.95802 14.4895 9.15046C14.7772 9.30013 14.9264 9.36428 15.0223 9.31082C15.3952 9.08631 15.3845 7.71786 14.8624 6.63807C14.4043 5.67587 13.6265 5.11994 13.0511 4.83128C12.8593 4.73506 12.7741 4.48917 12.8806 4.29673C12.9765 4.10429 13.2216 4.01876 13.4134 4.12567C14.0953 4.47848 15.0329 5.14132 15.5763 6.30664C16.1197 7.45058 16.3754 9.42842 15.4272 10.0057C14.9477 10.2944 14.4895 10.0592 14.1273 9.87745C13.8502 9.73846 13.5839 9.59948 13.3281 9.66363C12.9765 9.74915 12.7421 10.1447 12.5929 10.4655C11.7619 12.3364 12.0069 16.399 12.7954 17.853C12.9339 18.0988 13.0937 18.3661 13.3708 18.4623C13.6371 18.5586 13.8928 18.441 14.2445 18.2592C14.5961 18.0775 14.9796 17.885 15.3952 18.0775C16.2902 18.5158 16.2263 20.4295 15.587 21.7979C15.0329 22.9633 14.1059 23.6261 13.424 23.9789C13.3601 23.9896 13.2962 24.0003 13.2429 24.0003Z" fill="#7D662D"/>
  <path d="M12.0437 10.839H4.89423C4.67048 10.839 4.5 10.6572 4.5 10.4434C4.5 10.2296 4.67048 10.0479 4.88358 10.0479H12.033C12.2568 10.0479 12.4273 10.2296 12.4273 10.4434C12.4379 10.6572 12.2674 10.839 12.0437 10.839Z" fill="#7D662D"/>
  <path d="M12.0437 18.0236H4.89423C4.67048 18.0236 4.5 17.8418 4.5 17.628C4.5 17.4035 4.68113 17.2324 4.89423 17.2324H12.0437C12.2674 17.2324 12.4379 17.4142 12.4379 17.628C12.4486 17.8418 12.2674 18.0236 12.0437 18.0236Z" fill="#7D662D"/>
  <path d="M21.5857 23.9923C21.5218 23.9923 21.4579 23.9816 21.4046 23.9496C20.7227 23.5968 19.7851 22.9339 19.2417 21.7686C18.5917 20.4002 18.5384 18.4865 19.4228 18.0481C19.8383 17.845 20.2326 18.0481 20.5735 18.2192C20.9358 18.4009 21.1915 18.5185 21.4472 18.4223C21.7456 18.3154 21.916 18.0054 22.0226 17.8129C22.8111 16.3589 23.0455 12.2857 22.2144 10.4254C22.0652 10.1047 21.8308 9.69844 21.4792 9.6236C21.2661 9.57014 21.1276 9.35632 21.1809 9.1425C21.2341 8.92868 21.4472 8.80039 21.6603 8.84315C22.1931 8.97145 22.6193 9.3884 22.9389 10.094C23.8979 12.2322 23.6208 16.5407 22.7152 18.1871C22.5766 18.4437 22.289 18.9676 21.7029 19.1707C21.1063 19.3845 20.5842 19.1172 20.2113 18.9248C20.0621 18.85 19.8277 18.7324 19.7638 18.7537C19.5293 18.8713 19.3695 20.197 19.9555 21.4158C20.4137 22.378 21.1915 22.9339 21.7669 23.2226C21.9587 23.3188 22.0439 23.5647 21.9374 23.7571C21.8734 23.9175 21.7349 23.9923 21.5857 23.9923Z" fill="#7D662D"/>
  <path d="M19.9898 9.23784C19.8194 9.23784 19.6702 9.13093 19.6169 8.97056C18.7645 6.40471 20.757 4.42687 21.3963 4.10614C21.5881 3.99923 21.8331 4.08476 21.929 4.2772C22.0249 4.46964 21.9503 4.71553 21.7586 4.81175C21.4709 4.96143 19.6382 6.53301 20.3628 8.71398C20.4373 8.9278 20.3201 9.15231 20.107 9.21645C20.0751 9.23784 20.0325 9.23784 19.9898 9.23784Z" fill="#7D662D"/>
  <path d="M29.9324 10.8292H22.7829C22.5591 10.8292 22.3887 10.6475 22.3887 10.4337C22.3887 10.2198 22.5698 10.0381 22.7829 10.0381H29.9324C30.1561 10.0381 30.3266 10.2198 30.3266 10.4337C30.3266 10.6475 30.1455 10.8292 29.9324 10.8292Z" fill="#7D662D"/>
  <path d="M29.9324 18.007H22.7829C22.5591 18.007 22.3887 17.8252 22.3887 17.6114C22.3887 17.3869 22.5698 17.2158 22.7829 17.2158H29.9324C30.1561 17.2158 30.3266 17.3976 30.3266 17.6114C30.3266 17.8359 30.1561 18.007 29.9324 18.007Z" fill="#7D662D"/>
</svg>