<svg width="20" height="20" viewBox="0 0 20 20" fill="none" xmlns="http://www.w3.org/2000/svg">
<path d="M9.99828 14.75C10.2083 14.75 10.3883 14.68 10.5283 14.53C10.6683 14.39 10.7483 14.21 10.7483 14V9.74999C10.7483 9.53999 10.6783 9.35999 10.5283 9.21999C10.3883 9.07999 10.2083 8.99999 9.99828 8.99999C9.78828 8.99999 9.60828 9.06999 9.46828 9.21999C9.32828 9.35999 9.24828 9.53999 9.24828 9.74999V14C9.24828 14.21 9.31828 14.39 9.46828 14.53C9.60828 14.67 9.78828 14.75 9.99828 14.75ZM9.99828 7.28999C10.2283 7.28999 10.4183 7.20999 10.5783 7.05999C10.7383 6.90999 10.8083 6.70999 10.8083 6.47999C10.8083 6.24999 10.7283 6.05999 10.5783 5.89999C10.4283 5.74999 10.2283 5.66999 9.99828 5.66999C9.76828 5.66999 9.57828 5.74999 9.41828 5.89999C9.26828 6.04999 9.18828 6.24999 9.18828 6.47999C9.18828 6.70999 9.26828 6.89999 9.41828 7.05999C9.56828 7.20999 9.76828 7.28999 9.99828 7.28999ZM9.99828 19.5C8.68828 19.5 7.44828 19.25 6.28828 18.75C5.12828 18.25 4.12828 17.57 3.26828 16.72C2.40828 15.87 1.73828 14.86 1.23828 13.7C0.738281 12.54 0.488281 11.31 0.488281 9.99999C0.488281 8.68999 0.738281 7.44999 1.23828 6.28999C1.73828 5.12999 2.41828 4.12999 3.26828 3.26999C4.11828 2.40999 5.12828 1.73999 6.28828 1.23999C7.44828 0.73999 8.67828 0.48999 9.98828 0.48999C11.2983 0.48999 12.5383 0.73999 13.6983 1.23999C14.8583 1.73999 15.8583 2.41999 16.7183 3.26999C17.5783 4.11999 18.2483 5.12999 18.7483 6.28999C19.2483 7.44999 19.4983 8.67999 19.4983 9.98999C19.4983 11.3 19.2483 12.54 18.7483 13.7C18.2483 14.86 17.5683 15.86 16.7183 16.72C15.8683 17.58 14.8583 18.25 13.6983 18.75C12.5383 19.25 11.3083 19.5 9.99828 19.5ZM9.99828 18C12.2283 18 14.1283 17.22 15.6783 15.67C17.2283 14.12 18.0083 12.23 18.0083 9.98999C18.0083 7.74999 17.2283 5.85999 15.6783 4.30999C14.1283 2.75999 12.2383 1.97999 9.99828 1.97999C7.75828 1.97999 5.86828 2.75999 4.31828 4.30999C2.76828 5.85999 1.98828 7.74999 1.98828 9.98999C1.98828 12.23 2.76828 14.12 4.31828 15.67C5.86828 17.22 7.75828 18 9.99828 18Z" fill="#5553AA"/>
</svg>