<svg width="24" height="24" viewBox="0 0 24 24" fill="none" xmlns="http://www.w3.org/2000/svg">
<g id="IC / keyboard_arrow_down">
<mask id="mask0_967_654" style="mask-type:alpha" maskUnits="userSpaceOnUse" x="0" y="0" width="24" height="24">
<rect id="Bounding box" width="24" height="24" fill="#D9D9D9"/>
</mask>
<g mask="url(#mask0_967_654)">
<path id="keyboard_arrow_down" d="M12.0001 15.1125C11.8508 15.1125 11.7079 15.0867 11.5713 15.035C11.4347 14.9834 11.3104 14.9016 11.1985 14.7897L6.60445 10.1956C6.39321 9.98439 6.2876 9.71918 6.2876 9.39998C6.2876 9.08078 6.39321 8.81556 6.60445 8.60433C6.81568 8.39309 7.0809 8.28748 7.4001 8.28748C7.7193 8.28748 7.98451 8.39309 8.19575 8.60433L12.0001 12.4087L15.8044 8.60433C16.0157 8.39309 16.2809 8.28748 16.6001 8.28748C16.9193 8.28748 17.1845 8.39309 17.3957 8.60433C17.607 8.81556 17.7126 9.08078 17.7126 9.39998C17.7126 9.71918 17.607 9.98439 17.3957 10.1956L12.8017 14.7897C12.6898 14.9016 12.5655 14.9834 12.4289 15.035C12.2923 15.0867 12.1494 15.1125 12.0001 15.1125Z" fill="#673391"/>
</g>
</g>
</svg>
