<svg width="12" height="8" viewBox="0 0 12 8" fill="none" xmlns="http://www.w3.org/2000/svg">
<path d="M6.00156 2.99126L2.19721 6.79561C1.98598 7.00684 1.72076 7.11246 1.40156 7.11246C1.08236 7.11246 0.817146 7.00684 0.605913 6.79561C0.394679 6.58437 0.289062 6.31916 0.289062 5.99996C0.289062 5.68076 0.394679 5.41554 0.605913 5.20431L5.19994 0.610283C5.42784 0.382383 5.69505 0.268433 6.00156 0.268433C6.30808 0.268433 6.57529 0.382383 6.80319 0.610283L11.3972 5.20431C11.6084 5.41554 11.7141 5.68076 11.7141 5.99996C11.7141 6.31916 11.6084 6.58437 11.3972 6.79561C11.186 7.00684 10.9208 7.11246 10.6016 7.11246C10.2824 7.11246 10.0171 7.00684 9.80591 6.79561L6.00156 2.99126Z" fill="#FCFCFC"/>
</svg>
