<svg width="8" height="12" viewBox="0 0 8 12" fill="none" xmlns="http://www.w3.org/2000/svg">
<path d="M4.41026 5.99998L0.605913 2.19563C0.394679 1.98439 0.289062 1.71918 0.289062 1.39998C0.289062 1.08078 0.394679 0.815559 0.605913 0.604326C0.817146 0.393093 1.08236 0.287476 1.40156 0.287476C1.72076 0.287476 1.98598 0.393093 2.19721 0.604326L6.79124 5.19835C6.90319 5.3103 6.98498 5.43458 7.03661 5.57118C7.08825 5.70776 7.11406 5.85069 7.11406 5.99998C7.11406 6.14926 7.08825 6.29219 7.03661 6.42878C6.98498 6.56538 6.90319 6.68965 6.79124 6.8016L2.19721 11.3956C1.98598 11.6069 1.72076 11.7125 1.40156 11.7125C1.08236 11.7125 0.817146 11.6069 0.605913 11.3956C0.394679 11.1844 0.289062 10.9192 0.289062 10.6C0.289062 10.2808 0.394679 10.0156 0.605913 9.80433L4.41026 5.99998Z" fill="#FCFCFC"/>
</svg>
