<svg width="8" height="12" viewBox="0 0 8 12" fill="none" xmlns="http://www.w3.org/2000/svg">
<path d="M2.99286 5.99998L6.79721 9.80433C7.00845 10.0156 7.11406 10.2808 7.11406 10.6C7.11406 10.9192 7.00845 11.1844 6.79721 11.3956C6.58598 11.6069 6.32076 11.7125 6.00156 11.7125C5.68236 11.7125 5.41715 11.6069 5.20591 11.3956L0.611887 6.8016C0.499937 6.68965 0.418146 6.56538 0.366512 6.42878C0.314879 6.29219 0.289062 6.14926 0.289062 5.99998C0.289062 5.85069 0.314879 5.70776 0.366512 5.57118C0.418146 5.43458 0.499937 5.3103 0.611887 5.19835L5.20591 0.604326C5.41715 0.393093 5.68236 0.287476 6.00156 0.287476C6.32076 0.287476 6.58598 0.393093 6.79721 0.604326C7.00845 0.815559 7.11406 1.08078 7.11406 1.39998C7.11406 1.71918 7.00845 1.98439 6.79721 2.19563L2.99286 5.99998Z" fill="#FCFCFC"/>
</svg>
