<svg width="16" height="16" viewBox="0 0 16 16" fill="none" xmlns="http://www.w3.org/2000/svg">
<mask id="mask0_2682_3506" style="mask-type:alpha" maskUnits="userSpaceOnUse" x="0" y="0" width="16" height="16">
<rect width="16" height="16" fill="#D9D9D9"/>
</mask>
<g mask="url(#mask0_2682_3506)">
<path d="M7.99853 11.4688C8.21992 11.4688 8.40579 11.394 8.55615 11.2442C8.70652 11.0944 8.7817 10.9089 8.7817 10.6875C8.7817 10.4661 8.70682 10.2796 8.55707 10.1279C8.40731 9.97621 8.22174 9.90036 8.00037 9.90036C7.77898 9.90036 7.5931 9.97621 7.44275 10.1279C7.29238 10.2796 7.2172 10.4661 7.2172 10.6875C7.2172 10.9089 7.29208 11.0944 7.44183 11.2442C7.59159 11.394 7.77715 11.4688 7.99853 11.4688ZM7.99945 8.67463C8.21225 8.67463 8.39184 8.60144 8.53822 8.45506C8.68459 8.30869 8.75778 8.1291 8.75778 7.9163V5.3413C8.75778 5.1285 8.68459 4.94891 8.53822 4.80253C8.39184 4.65615 8.21225 4.58297 7.99945 4.58297C7.78665 4.58297 7.60706 4.65615 7.46068 4.80253C7.3143 4.94891 7.24112 5.1285 7.24112 5.3413V7.9163C7.24112 8.1291 7.3143 8.30869 7.46068 8.45506C7.60706 8.60144 7.78665 8.67463 7.99945 8.67463ZM7.99945 14.8022C7.05597 14.8022 6.17072 14.6237 5.3437 14.2669C4.51668 13.91 3.79728 13.4257 3.18552 12.8139C2.57375 12.2022 2.08943 11.4828 1.73257 10.6557C1.3757 9.82873 1.19727 8.94348 1.19727 8C1.19727 7.05652 1.3757 6.17127 1.73257 5.34425C2.08943 4.51723 2.57375 3.79783 3.18552 3.18606C3.79728 2.5743 4.51668 2.08998 5.3437 1.73311C6.17072 1.37625 7.05597 1.19781 7.99945 1.19781C8.94293 1.19781 9.82818 1.37625 10.6552 1.73311C11.4822 2.08998 12.2016 2.5743 12.8134 3.18606C13.4251 3.79783 13.9095 4.51723 14.2663 5.34425C14.6232 6.17127 14.8016 7.05652 14.8016 8C14.8016 8.94348 14.6232 9.82873 14.2663 10.6557C13.9095 11.4828 13.4251 12.2022 12.8134 12.8139C12.2016 13.4257 11.4822 13.91 10.6552 14.2669C9.82818 14.6237 8.94293 14.8022 7.99945 14.8022ZM7.99945 13.2855C9.47771 13.2855 10.7282 12.7741 11.7509 11.7514C12.7736 10.7287 13.2849 9.47825 13.2849 8C13.2849 6.52174 12.7736 5.27126 11.7509 4.24855C10.7282 3.22585 9.47771 2.7145 7.99945 2.7145C6.52119 2.7145 5.27071 3.22585 4.248 4.24855C3.2253 5.27126 2.71395 6.52174 2.71395 8C2.71395 9.47825 3.2253 10.7287 4.248 11.7514C5.27071 12.7741 6.52119 13.2855 7.99945 13.2855Z" fill="#A85D00"/>
</g>
</svg>
    