<svg width="90" height="90" viewBox="0 0 90 90" fill="none" xmlns="http://www.w3.org/2000/svg">
<mask id="mask0_904_441" style="mask-type:alpha" maskUnits="userSpaceOnUse" x="0" y="0" width="90" height="90">
<rect width="90" height="90" fill="#D9D9D9"/>
</mask>
<g mask="url(#mask0_904_441)">
<path d="M44.9953 44.6139C40.7029 44.6139 37.1934 43.2506 34.4668 40.524C31.7402 37.7975 30.377 34.288 30.377 29.9955C30.377 25.703 31.7402 22.192 34.4668 19.4624C37.1934 16.7327 40.7029 15.3679 44.9953 15.3679C49.2877 15.3679 52.8025 16.7327 55.5396 19.4624C58.2768 22.192 59.6453 25.703 59.6453 29.9955C59.6453 34.288 58.2768 37.7975 55.5396 40.524C52.8025 43.2506 49.2877 44.6139 44.9953 44.6139ZM14.4395 75.851V66.4379C14.4395 63.9655 15.0618 61.8392 16.3065 60.0589C17.5512 58.2785 19.1585 56.9264 21.1283 56.0025C25.3457 54.1125 29.3984 52.6951 33.2863 51.7501C37.1743 50.8051 41.0768 50.3326 44.9939 50.3326C48.9396 50.3326 52.8394 50.8208 56.6932 51.797C60.5471 52.7732 64.5728 54.1811 68.7703 56.0207C70.8254 56.9329 72.4746 58.2764 73.7179 60.0513C74.9612 61.8263 75.5828 63.9532 75.5828 66.432V75.851H14.4395ZM20.8266 69.4638H69.1731V66.5229C69.1731 65.5326 68.8763 64.5882 68.2825 63.6899C67.6888 62.7915 66.9544 62.1258 66.0794 61.6927C62.1391 59.8001 58.5315 58.5019 55.2564 57.798C51.9814 57.0942 48.5588 56.7423 44.9888 56.7423C41.4486 56.7423 38.0023 57.0942 34.6497 57.798C31.2971 58.5019 27.6927 59.7989 23.8363 61.6892C22.9549 62.1225 22.2329 62.7886 21.6704 63.6876C21.1079 64.5866 20.8266 65.5317 20.8266 66.5229V69.4638ZM44.9953 38.2267C47.376 38.2267 49.3446 37.4496 50.9011 35.8955C52.4575 34.3415 53.2356 32.3735 53.2356 29.9917C53.2356 27.6038 52.459 25.634 50.9056 24.0825C49.3523 22.531 47.3852 21.7552 45.0045 21.7552C42.6237 21.7552 40.6551 22.5313 39.0987 24.0836C37.5423 25.6358 36.7641 27.6014 36.7641 29.9806C36.7641 32.3659 37.5408 34.3366 39.0942 35.8926C40.6475 37.4487 42.6145 38.2267 44.9953 38.2267Z" fill="#5553AA"/>
</g>
</svg>
