<svg width="40" height="40" viewBox="0 0 40 40" fill="none" xmlns="http://www.w3.org/2000/svg">
<circle cx="20" cy="20" r="20" fill="#5553AA"/>
<mask id="mask0_909_449" style="mask-type:alpha" maskUnits="userSpaceOnUse" x="9" y="8" width="24" height="24">
<rect x="9" y="8" width="24" height="24" fill="#D9D9D9"/>
</mask>
<g mask="url(#mask0_909_449)">
<path d="M22.0509 30.263V27.938C22.6056 27.8586 23.1489 27.7126 23.6806 27.4999C24.2123 27.2873 24.7178 27.0079 25.1971 26.6619L26.8004 28.3032C26.0964 28.8605 25.3461 29.3056 24.5496 29.6385C23.753 29.9715 22.9201 30.1797 22.0509 30.263ZM20.0509 30.263C17.6951 29.959 15.739 28.9422 14.1825 27.2127C12.6259 25.4832 11.8477 23.4508 11.8477 21.1157C11.8477 19.8498 12.0852 18.66 12.5602 17.5464C13.0352 16.4328 13.6798 15.4609 14.4941 14.6306C15.3084 13.8004 16.2644 13.1418 17.3621 12.6548C18.4597 12.1679 19.6395 11.9244 20.9015 11.9244H21.0276L19.5971 10.488L21.1884 8.85864L25.3797 13.0499L21.1884 17.2412L19.5971 15.6499L21.0477 14.1994H20.8835C18.9853 14.1994 17.384 14.8786 16.0795 16.2369C14.7749 17.5952 14.1227 19.2215 14.1227 21.1157C14.1227 22.8251 14.6814 24.325 15.7988 25.6154C16.9162 26.9058 18.3335 27.68 20.0509 27.938V30.263ZM28.2504 26.8592L26.6031 25.2619C26.9491 24.7825 27.2285 24.278 27.4412 23.7483C27.6538 23.2186 27.8018 22.6744 27.8852 22.1157H30.2042C30.1209 22.9769 29.9127 23.8038 29.5797 24.5964C29.2468 25.389 28.8036 26.1432 28.2504 26.8592ZM30.2042 20.1157H27.8852C27.7978 19.557 27.6478 19.0108 27.4352 18.4771C27.2225 17.9434 26.9431 17.4369 26.5971 16.9575L28.2504 15.3782C28.8076 16.0521 29.2496 16.7927 29.5762 17.5999C29.9028 18.4072 30.1122 19.2458 30.2042 20.1157Z" fill="#FCFCFC"/>
</g>
</svg>
