<svg width="21" height="20" viewBox="0 0 21 20" fill="none" xmlns="http://www.w3.org/2000/svg">
<mask id="mask0_463_2177" style="mask-type:alpha" maskUnits="userSpaceOnUse" x="0" y="0" width="21" height="20">
<rect x="0.878906" width="20.0575" height="20" fill="#D9D9D9"/>
</mask>
<g mask="url(#mask0_463_2177)">
<path d="M9.13215 11.7685L14.558 6.37902C14.7346 6.20299 14.9361 6.11845 15.1628 6.1254C15.3894 6.13234 15.591 6.22383 15.7676 6.39985C15.9441 6.57588 16.0324 6.7769 16.0324 7.0029C16.0324 7.22888 15.9441 7.42989 15.7676 7.60592L9.7603 13.596C9.58377 13.772 9.37786 13.86 9.14259 13.86C8.90732 13.86 8.70142 13.772 8.52488 13.596L6.04858 11.1267C5.87205 10.9507 5.78294 10.7497 5.78127 10.5237C5.77962 10.2977 5.86705 10.0967 6.04359 9.92069C6.22012 9.74466 6.42171 9.65665 6.64836 9.65665C6.875 9.65665 7.07658 9.74466 7.25312 9.92069L9.13215 11.7685Z" fill="#FCFCFC"/>
</g>
</svg>
