    <svg xmlns="http://www.w3.org/2000/svg" width="27" height="25" viewBox="0 0 27 25" fill="none">
    <path d="M18.5575 13.0196L16.4505 10.9384C16.6375 10.051 16.405 9.29432 15.7532 8.6684C15.1015 8.04248 14.3185 7.79622 13.4045 7.92962L11.3565 5.90672C11.6915 5.75875 12.033 5.64777 12.3812 5.57376C12.7293 5.49978 13.0865 5.46279 13.4528 5.46279C14.9956 5.46279 16.307 5.99617 17.387 7.06294C18.4669 8.12971 19.0069 9.42508 19.0069 10.949C19.0069 11.3108 18.9707 11.6649 18.8983 12.0112C18.8258 12.3575 18.7122 12.6936 18.5575 13.0196ZM22.699 17.0641L20.7617 15.1969C21.5139 14.6125 22.1887 13.9657 22.7862 13.2565C23.3836 12.5473 23.8881 11.7782 24.2995 10.949C23.2611 8.90163 21.7736 7.27221 19.837 6.06079C17.9005 4.84934 15.7724 4.24362 13.4528 4.24362C12.8808 4.24362 12.3218 4.28061 11.7758 4.3546C11.2298 4.4286 10.6811 4.54201 10.1296 4.69483L8.02471 2.61564C8.89853 2.26535 9.78777 2.00506 10.6924 1.83476C11.5971 1.66448 12.5172 1.57935 13.4528 1.57935C16.3054 1.57935 18.9164 2.32178 21.2856 3.80664C23.6549 5.29151 25.464 7.29529 26.713 9.81799C26.8002 9.99513 26.8668 10.1786 26.9129 10.3683C26.959 10.558 26.982 10.7516 26.982 10.949C26.982 11.1465 26.9653 11.3413 26.932 11.5334C26.8987 11.7256 26.8384 11.9102 26.7512 12.0874C26.2937 13.0684 25.7202 13.9782 25.0307 14.8166C24.3411 15.655 23.5638 16.4041 22.699 17.0641ZM13.4528 20.3187C10.6667 20.3187 8.11605 19.5773 5.8007 18.0944C3.48534 16.6115 1.66447 14.6543 0.338094 12.2225C0.225406 12.0308 0.140891 11.8275 0.0845467 11.6126C0.0281823 11.3977 0 11.1765 0 10.949C0 10.7215 0.0230395 10.503 0.0691185 10.2934C0.115177 10.0838 0.19455 9.87542 0.307238 9.66824C0.708824 8.87005 1.17727 8.10984 1.71256 7.38761C2.24784 6.66539 2.8529 6.00192 3.52773 5.3972L1.04042 2.91711C0.799388 2.66356 0.682781 2.36308 0.690598 2.01565C0.698415 1.66823 0.822849 1.37548 1.0639 1.1374C1.30493 0.899314 1.60645 0.780273 1.96846 0.780273C2.33046 0.780273 2.63198 0.899314 2.87301 1.1374L23.8923 21.8997C24.1333 22.1378 24.2578 22.4305 24.2656 22.7779C24.2734 23.1254 24.149 23.4258 23.8923 23.6794C23.6513 23.9175 23.351 24.0365 22.9914 24.0365C22.6319 24.0365 22.3316 23.9175 22.0906 23.6794L17.9404 19.6336C17.2155 19.8668 16.4778 20.0393 15.7274 20.1511C14.977 20.2628 14.2188 20.3187 13.4528 20.3187ZM5.4254 7.24978C4.84851 7.77809 4.32305 8.34991 3.84903 8.96524C3.375 9.58057 2.96312 10.2418 2.61342 10.949C3.64197 13.0013 5.12576 14.6319 7.0648 15.8409C9.00384 17.0499 11.1332 17.6545 13.4528 17.6545C13.8396 17.6545 14.2186 17.6315 14.5898 17.5855C14.9609 17.5396 15.3399 17.4886 15.7268 17.4325L14.6159 16.2743C14.4142 16.3304 14.2204 16.3712 14.0343 16.3969C13.8483 16.4225 13.6544 16.4353 13.4528 16.4353C11.9099 16.4353 10.5985 15.9019 9.51857 14.8351C8.43859 13.7684 7.8986 12.473 7.8986 10.949C7.8986 10.7498 7.91034 10.5583 7.93381 10.3746C7.9573 10.1908 7.99498 9.99933 8.04684 9.80009L5.4254 7.24978Z" fill="#FCFCFC"/>
    </svg>