<svg width="24" height="24" viewBox="0 0 24 24" fill="none" xmlns="http://www.w3.org/2000/svg">
<g id="IC / visibility">
<mask id="mask0_1791_1896" style="mask-type:alpha" maskUnits="userSpaceOnUse" x="0" y="0" width="24" height="24">
<rect id="Bounding box" width="24" height="24" fill="#D9D9D9"/>
</mask>
<g mask="url(#mask0_1791_1896)">
<path id="visibility" d="M11.9995 16C13.2495 16 14.312 15.5625 15.187 14.6875C16.062 13.8125 16.4995 12.75 16.4995 11.5C16.4995 10.25 16.062 9.18752 15.187 8.31252C14.312 7.43752 13.2495 7.00002 11.9995 7.00002C10.7495 7.00002 9.68698 7.43752 8.81198 8.31252C7.93698 9.18752 7.49948 10.25 7.49948 11.5C7.49948 12.75 7.93698 13.8125 8.81198 14.6875C9.68698 15.5625 10.7495 16 11.9995 16ZM12.0005 14.0745C11.2857 14.0745 10.6777 13.8243 10.1767 13.3239C9.67557 12.8235 9.42502 12.2159 9.42502 11.5011C9.42502 10.7862 9.67522 10.1783 10.1756 9.6772C10.676 9.17611 11.2836 8.92557 11.9984 8.92557C12.7133 8.92557 13.3212 9.17576 13.8223 9.67615C14.3234 10.1765 14.5739 10.7841 14.5739 11.499C14.5739 12.2138 14.3237 12.8218 13.8234 13.3228C13.323 13.8239 12.7154 14.0745 12.0005 14.0745ZM11.9995 19.1853C9.74223 19.1853 7.68081 18.5814 5.81523 17.3734C3.94966 16.1654 2.47955 14.5662 1.4049 12.5756C1.30962 12.4056 1.23915 12.2305 1.1935 12.0503C1.14783 11.87 1.125 11.6866 1.125 11.5C1.125 11.3134 1.14783 11.13 1.1935 10.9497C1.23915 10.7695 1.30962 10.5944 1.4049 10.4245C2.47955 8.43389 3.94966 6.83461 5.81523 5.62665C7.68081 4.41868 9.74223 3.8147 11.9995 3.8147C14.2567 3.8147 16.3181 4.41868 18.1837 5.62665C20.0493 6.83461 21.5194 8.43389 22.5941 10.4245C22.6893 10.5944 22.7598 10.7695 22.8055 10.9497C22.8511 11.13 22.8739 11.3134 22.8739 11.5C22.8739 11.6866 22.8511 11.87 22.8055 12.0503C22.7598 12.2305 22.6893 12.4056 22.5941 12.5756C21.5194 14.5662 20.0493 16.1654 18.1837 17.3734C16.3181 18.5814 14.2567 19.1853 11.9995 19.1853ZM12 17C13.879 17 15.604 16.5032 17.175 15.5095C18.746 14.5159 19.9482 13.1794 20.7816 11.5C19.9482 9.82067 18.7459 8.48417 17.1745 7.49052C15.6031 6.49686 13.8779 6.00002 11.999 6.00002C10.12 6.00002 8.39494 6.49686 6.82393 7.49052C5.25291 8.48417 4.05073 9.82067 3.2174 11.5C4.05073 13.1794 5.25309 14.5159 6.82448 15.5095C8.39584 16.5032 10.121 17 12 17Z" fill="#673391"/>
</g>
</g>
</svg>
